<?xml version="1.0" encoding="UTF-8" standalone="no"?>
<svg
   xmlns:dc="http://purl.org/dc/elements/1.1/"
   xmlns:cc="http://creativecommons.org/ns#"
   xmlns:rdf="http://www.w3.org/1999/02/22-rdf-syntax-ns#"
   xmlns:svg="http://www.w3.org/2000/svg"
   xmlns="http://www.w3.org/2000/svg"
   width="48.113354mm"
   height="51.642502mm"
   viewBox="0 0 48.113354 51.642502"
   version="1.1"
   id="svg838">
  <defs
     id="defs832" />
  <metadata
     id="metadata835">
    <rdf:RDF>
      <cc:Work
         rdf:about="">
        <dc:format>image/svg+xml</dc:format>
        <dc:type
           rdf:resource="http://purl.org/dc/dcmitype/StillImage" />
        <dc:title></dc:title>
      </cc:Work>
    </rdf:RDF>
  </metadata>
  <g
     id="layer1"
     transform="translate(-76.29632,-87.206797)">
    <path
       style="fill:#000000;stroke-width:0.0846667"
       d="m 100.19748,138.75984 c -0.0281,-0.0733 -0.10777,-0.1333 -0.17696,-0.1333 -0.0692,0 -0.219514,-0.0937 -0.334034,-0.20822 -0.11453,-0.11452 -0.304,-0.23226 -0.42106,-0.26164 -0.11706,-0.0294 -0.23344,-0.10713 -0.25863,-0.17278 -0.0252,-0.0656 -0.10574,-0.11936 -0.179,-0.11936 -0.0733,0 -0.20845,-0.0701 -0.30042,-0.15579 -0.092,-0.0857 -0.27136,-0.20951 -0.39863,-0.27516 -0.12727,-0.0657 -0.283,-0.16826 -0.34607,-0.228 -0.0631,-0.0597 -0.26495,-0.18529 -0.44863,-0.27899 -0.18367,-0.0937 -0.35522,-0.2258 -0.38122,-0.29355 -0.026,-0.0677 -0.10034,-0.12317 -0.16521,-0.12317 -0.0649,0 -0.11794,-0.032 -0.11794,-0.0711 0,-0.0391 -0.15515,-0.12232 -0.34477,-0.1849 -0.18962,-0.0626 -0.38965,-0.17345 -0.4445,-0.24638 -0.0549,-0.0729 -0.21403,-0.18949 -0.35373,-0.25901 -0.1397,-0.0695 -0.37784,-0.2467 -0.5292,-0.39373 -0.17236,-0.16743 -0.43337,-0.30527 -0.6985,-0.36887 -0.23281,-0.0558 -0.4233,-0.13585 -0.4233,-0.17777 0,-0.0419 -0.0408,-0.0762 -0.0907,-0.0762 -0.0499,0 -0.14382,-0.0476 -0.20872,-0.10584 -0.28839,-0.25861 -0.37767,-0.3175 -0.48141,-0.3175 -0.0609,0 -0.25283,-0.0762 -0.4266,-0.16933 -0.17376,-0.0931 -0.37322,-0.16933 -0.44324,-0.16933 -0.07,0 -0.12731,-0.0381 -0.12731,-0.0847 0,-0.0466 -0.0419,-0.0847 -0.093,-0.0847 -0.1162,0 -0.67596,-0.25973 -0.81419,-0.37778 -0.30384,-0.2595 -0.36283,-0.29955 -0.44126,-0.29955 -0.12064,0 -0.80463,-0.3594 -0.83873,-0.4407 -0.0155,-0.037 -0.11805,-0.0673 -0.22784,-0.0673 -0.10979,0 -0.22178,-0.0359 -0.24886,-0.0797 -0.0271,-0.0438 -0.22936,-0.16766 -0.4495,-0.27517 -0.22014,-0.10752 -0.44229,-0.2348 -0.49368,-0.28286 -0.05138,-0.0481 -0.260931,-0.16228 -0.465663,-0.25383 -0.351807,-0.1573 -0.541798,-0.28253 -0.798972,-0.52663 -0.06133,-0.0582 -0.143161,-0.10583 -0.181852,-0.10583 -0.03869,0 -0.117936,-0.0762 -0.176099,-0.16933 -0.05816,-0.0931 -0.162577,-0.16934 -0.232032,-0.16934 -0.06946,0 -0.126283,-0.0355 -0.126283,-0.079 0,-0.0434 -0.07742,-0.10353 -0.172054,-0.13357 -0.09463,-0.03 -0.258357,-0.13737 -0.363839,-0.23854 -0.218522,-0.20957 -0.6224,-0.46862 -0.837136,-0.53695 -0.07995,-0.0254 -0.165251,-0.10882 -0.189558,-0.18528 -0.04973,-0.15643 -1.003032,-1.10059 -1.544269,-1.52946 -0.195355,-0.15479 -0.393398,-0.39104 -0.440096,-0.525 -0.0467,-0.13396 -0.143649,-0.24357 -0.215446,-0.24357 -0.0718,0 -0.269672,-0.20955 -0.439724,-0.46566 -0.170052,-0.25612 -0.33755,-0.46567 -0.372218,-0.46567 -0.09315,0 -0.336327,-0.54747 -0.336327,-0.75717 0,-0.0997 -0.07767,-0.26462 -0.17261,-0.36652 -0.09494,-0.1019 -0.194316,-0.27176 -0.220845,-0.37746 -0.02653,-0.1057 -0.07918,-0.19218 -0.116996,-0.19218 -0.03782,0 -0.09304,-0.12383 -0.122703,-0.27517 -0.02967,-0.15134 -0.143965,-0.46567 -0.253993,-0.6985 -0.110027,-0.23283 -0.281621,-0.69003 -0.381318,-1.016 -0.175371,-0.57338 -0.335369,-0.97075 -0.426137,-1.05833 -0.06416,-0.0619 -0.252731,-0.8209 -0.252731,-1.01722 0,-0.0925 -0.04342,-0.16812 -0.0965,-0.16812 -0.142317,0 -0.321054,-0.26844 -0.324141,-0.48683 -0.0015,-0.10477 -0.04079,-0.1905 -0.08736,-0.1905 -0.04657,0 -0.08467,-0.17145 -0.08467,-0.381 0,-0.20955 -0.0381,-0.381 -0.08467,-0.381 -0.04657,0 -0.08467,-0.0953 -0.08467,-0.21167 0,-0.11641 -0.0381,-0.21166 -0.08467,-0.21166 -0.04657,0 -0.08467,-0.0762 -0.08467,-0.16934 0,-0.0931 -0.03377,-0.16933 -0.07505,-0.16933 -0.04128,0 -0.101024,-0.18097 -0.132767,-0.40217 -0.03174,-0.22119 -0.112269,-0.59005 -0.178947,-0.8197 -0.06668,-0.22964 -0.121233,-0.53729 -0.121233,-0.68367 0,-0.14637 -0.09293,-0.53935 -0.206506,-0.87329 -0.113578,-0.33393 -0.232801,-0.874 -0.26494,-1.20016 -0.03214,-0.32615 -0.09161,-0.59301 -0.13216,-0.59301 -0.04055,0 -0.07373,-0.1905 -0.07373,-0.42333 0,-0.23284 -0.03259,-0.42334 -0.07242,-0.42334 -0.03983,0 -0.09525,-0.2444 -0.123141,-0.54312 -0.04608,-0.49342 -0.209882,-1.29287 -0.400481,-1.95454 -0.04024,-0.1397 -0.09904,-0.7874 -0.130658,-1.43934 -0.03162,-0.65193 -0.08688,-1.22343 -0.122792,-1.27 -0.03592,-0.0466 -0.0934,-0.88329 -0.127748,-1.85939 -0.04752,-1.35049 -0.09103,-1.80331 -0.182029,-1.89431 -0.08483,-0.0848 -0.10031,-0.1965 -0.05327,-0.38427 0.03647,-0.14558 0.04806,-0.83619 0.02575,-1.53469 -0.05608,-1.75576 -0.04676,-2.219144 0.06813,-3.38667 0.05499,-0.5588 0.100585,-1.904392 0.101322,-2.990206 0.0012,-1.840461 0.01138,-1.971172 0.149507,-1.929427 0.463348,0.140029 2.899218,0.3053 4.499725,0.3053 2.047198,0 4.495987,-0.137323 4.618875,-0.259016 0.04424,-0.04381 0.243716,-0.07965 0.443285,-0.07965 0.199569,0 0.525324,-0.03587 0.7239,-0.07971 0.198576,-0.04384 0.703948,-0.155955 1.123048,-0.249141 0.419102,-0.09319 0.895352,-0.194311 1.058342,-0.224724 0.66024,-0.123202 3.31997,-0.960178 3.44337,-1.083573 0.0309,-0.0309 0.16413,-0.05618 0.29607,-0.05618 0.13194,0 0.23989,-0.0381 0.23989,-0.08467 0,-0.04657 0.0572,-0.08467 0.127,-0.08467 0.0699,0 0.127,-0.0381 0.127,-0.08467 0,-0.04657 0.0399,-0.08467 0.0888,-0.08467 0.0488,0 0.24647,-0.0762 0.43923,-0.169334 0.19277,-0.09313 0.40048,-0.169333 0.46158,-0.169333 0.0611,0 0.1111,-0.03135 0.1111,-0.06966 0,-0.09036 0.6963,-0.438341 0.8771,-0.438341 0.0764,0 0.1389,-0.0381 0.1389,-0.08467 0,-0.04657 0.0572,-0.08467 0.127,-0.08467 0.0699,0 0.127,-0.0305 0.127,-0.06778 0,-0.03728 0.17145,-0.176156 0.381,-0.308611 0.20955,-0.132455 0.381,-0.273403 0.381,-0.313217 0,-0.03981 0.0574,-0.07239 0.12756,-0.07239 0.0701,0 0.21037,-0.09525 0.3116,-0.211667 0.10122,-0.116417 0.25044,-0.211667 0.33159,-0.211667 0.0812,0 0.25526,-0.106461 0.3869,-0.23658 0.13164,-0.13012 0.36469,-0.287771 0.51789,-0.350335 0.15319,-0.06256 0.32464,-0.175179 0.381,-0.250253 0.0563,-0.07507 0.20659,-0.190217 0.33386,-0.255874 0.12727,-0.06566 0.30665,-0.189481 0.39863,-0.275166 0.092,-0.08569 0.19739,-0.155854 0.23426,-0.155931 0.0369,-7.6e-5 0.2104,-0.152498 0.38561,-0.338715 0.281554,-0.299231 0.338134,-0.326364 0.486834,-0.233494 0.0926,0.05779 0.16827,0.134016 0.16827,0.169381 0,0.03537 0.0762,0.0643 0.16933,0.0643 0.0931,0 0.16933,0.0381 0.16933,0.08467 0,0.04657 0.0596,0.08467 0.13247,0.08467 0.0729,0 0.22864,0.1143 0.34619,0.254 0.11755,0.1397 0.26749,0.254 0.3332,0.254 0.0657,0 0.11948,0.0381 0.11948,0.08467 0,0.04657 0.0546,0.08467 0.12129,0.08467 0.0667,0 0.14521,0.07536 0.17445,0.167467 0.032,0.100769 0.18536,0.207077 0.3851,0.266921 0.18257,0.0547 0.35308,0.166052 0.37892,0.24745 0.0258,0.0814 0.14009,0.171366 0.2539,0.19993 0.11381,0.02856 0.3199,0.156177 0.45799,0.283584 0.39226,0.361933 0.47144,0.418286 0.68124,0.484874 0.10792,0.03425 0.30373,0.172264 0.43514,0.306693 0.13141,0.134428 0.29736,0.244415 0.36878,0.244415 0.0714,0 0.12985,0.03637 0.12985,0.08083 0,0.04446 0.13335,0.105847 0.29634,0.136423 0.16298,0.03057 0.29633,0.08642 0.29633,0.124109 0,0.03768 0.10915,0.09249 0.24256,0.121791 0.13341,0.0293 0.31891,0.124409 0.41223,0.211349 0.0933,0.08694 0.30875,0.196476 0.47874,0.243412 0.42393,0.117053 0.8138,0.295629 0.8138,0.372754 0,0.0352 0.0686,0.064 0.1524,0.064 0.0838,0 0.1886,0.03308 0.23284,0.07351 0.12491,0.114165 2.82196,0.965362 3.76343,1.187752 0.65946,0.155774 1.37239,0.262737 1.75122,0.262737 0.20099,0 0.36545,0.0381 0.36545,0.08467 0,0.04657 0.11698,0.08467 0.25996,0.08467 0.14298,0 0.5716,0.05515 0.9525,0.122562 0.99333,0.175796 2.8272,0.331959 3.90987,0.332944 1.08968,9.92e-4 4.38973,-0.287306 4.43089,-0.387091 0.0155,-0.03763 0.13935,-0.06842 0.27517,-0.06842 h 0.24694 v 0.852233 c 0,0.468728 0.039,0.925081 0.0866,1.014118 0.0528,0.09863 0.0934,1.221239 0.10402,2.8731 0.01,1.491169 0.049,2.711217 0.0877,2.711217 0.0387,0 0.0395,0.0476 0.002,0.10583 -0.0377,0.0582 -0.0696,0.79164 -0.0709,1.62984 -10e-4,0.8382 -0.0481,1.7907 -0.10395,2.11666 -0.0558,0.32597 -0.14595,1.44152 -0.20023,2.47901 -0.0543,1.03749 -0.13133,1.90651 -0.17122,1.93116 -0.0399,0.0246 -0.0725,0.27118 -0.0725,0.54783 0,0.27889 -0.0377,0.503 -0.0847,0.503 -0.0466,0 -0.0847,0.12628 -0.0847,0.28061 0,0.15433 -0.15726,0.98301 -0.34946,1.8415 -0.19221,0.85849 -0.36565,1.73234 -0.38542,1.94189 -0.0198,0.20955 -0.0683,0.4572 -0.10794,0.55034 -0.0823,0.19358 -0.83889,3.24505 -0.90813,3.66261 -0.0252,0.15178 -0.0797,0.2969 -0.12107,0.3225 -0.0414,0.0256 -0.0753,0.13955 -0.0753,0.25322 0,0.11367 -0.0294,0.20667 -0.0654,0.20667 -0.0687,0 -0.27325,0.784 -0.27325,1.04745 0,0.0844 -0.0762,0.25038 -0.16933,0.36878 -0.0931,0.1184 -0.16934,0.2678 -0.16934,0.332 0,0.0642 -0.0381,0.19241 -0.0847,0.28492 -0.0466,0.0925 -0.12277,0.24386 -0.16934,0.33636 -0.0466,0.0925 -0.0847,0.24491 -0.0847,0.33867 0,0.0938 -0.0381,0.17048 -0.0847,0.17048 -0.0466,0 -0.0847,0.1143 -0.0847,0.254 0,0.1397 -0.0348,0.254 -0.0773,0.254 -0.0718,0 -0.43068,0.98479 -0.43068,1.18187 0,0.0485 -0.074,0.16215 -0.16448,0.25261 -0.0905,0.0905 -0.21243,0.32859 -0.27104,0.52917 -0.0586,0.20058 -0.13329,0.38374 -0.16595,0.40702 -0.0327,0.0233 -0.1822,0.29951 -0.33231,0.61383 -0.15012,0.31433 -0.30623,0.5715 -0.34691,0.5715 -0.0407,0 -0.074,0.0355 -0.074,0.0788 0,0.14918 -0.38123,0.67709 -0.52484,0.72678 -0.0791,0.0274 -0.1694,0.13031 -0.20065,0.22877 -0.0312,0.0985 -0.17607,0.27674 -0.32183,0.39618 -0.14576,0.11945 -0.39734,0.34644 -0.55908,0.50442 -0.16173,0.15799 -0.38276,0.34536 -0.49116,0.41639 -0.1084,0.071 -0.25328,0.23779 -0.32194,0.37057 -0.0687,0.13279 -0.18222,0.24143 -0.25233,0.24143 -0.0701,0 -0.14942,0.0571 -0.17622,0.127 -0.0268,0.0699 -0.10047,0.127 -0.1637,0.127 -0.0632,0 -0.15574,0.0762 -0.20559,0.16933 -0.0498,0.0931 -0.14326,0.16934 -0.20759,0.16934 -0.0643,0 -0.12966,0.0288 -0.14518,0.0641 -0.0155,0.0352 -0.27588,0.27336 -0.57856,0.52917 -0.30268,0.2558 -0.56303,0.49368 -0.57856,0.5286 -0.0155,0.0349 -0.0917,0.0635 -0.16933,0.0636 -0.0776,6e-5 -0.25541,0.10009 -0.39511,0.2223 -0.1397,0.1222 -0.37783,0.27507 -0.52917,0.3397 -0.15134,0.0646 -0.27516,0.15509 -0.27516,0.20104 0,0.0459 -0.0921,0.0835 -0.20461,0.0835 -0.11254,0 -0.21732,0.0286 -0.23284,0.0635 -0.0359,0.0807 -0.77679,0.4445 -0.90533,0.4445 -0.0531,0 -0.0966,0.035 -0.0966,0.0777 0,0.0427 -0.17145,0.14314 -0.381,0.22317 -0.20955,0.08 -0.381,0.17367 -0.381,0.20809 0,0.0344 -0.11138,0.0849 -0.24752,0.11208 -0.13614,0.0272 -0.31711,0.12251 -0.40217,0.21175 -0.0851,0.0892 -0.24037,0.18858 -0.34514,0.22078 -0.10478,0.0322 -0.1905,0.0941 -0.1905,0.13751 0,0.0434 -0.0573,0.079 -0.12731,0.079 -0.07,0 -0.26948,0.0762 -0.44324,0.16933 -0.17377,0.0931 -0.36413,0.16933 -0.42303,0.16933 -0.0589,0 -0.10709,0.0364 -0.10709,0.0808 0,0.0445 -0.13199,0.1056 -0.29331,0.13586 -0.16133,0.0303 -0.33744,0.10819 -0.39137,0.17317 -0.0539,0.065 -0.15054,0.11814 -0.21468,0.11814 -0.0641,0 -0.11664,0.0381 -0.11664,0.0847 0,0.0466 -0.0762,0.0847 -0.16933,0.0847 -0.0931,0 -0.16933,0.0346 -0.16933,0.0768 0,0.0423 -0.1905,0.12567 -0.42334,0.18534 -0.23283,0.0597 -0.42333,0.13939 -0.42333,0.17716 0,0.0378 -0.0762,0.0687 -0.16933,0.0687 -0.0931,0 -0.16934,0.0381 -0.16934,0.0847 0,0.0466 -0.0572,0.0847 -0.127,0.0847 -0.0698,0 -0.127,0.0381 -0.127,0.0847 0,0.0466 -0.0683,0.0847 -0.15169,0.0847 -0.0834,0 -0.28714,0.12776 -0.45268,0.2839 -0.16554,0.15614 -0.39941,0.3086 -0.51972,0.33879 -0.1203,0.0302 -0.26902,0.1046 -0.33049,0.16535 -0.0615,0.0607 -0.17843,0.13569 -0.25992,0.16654 -0.0815,0.0309 -0.14973,0.10493 -0.15163,0.1646 -0.002,0.0597 -0.18289,0.19306 -0.40217,0.29643 -0.21928,0.10336 -0.47386,0.30139 -0.56573,0.44005 -0.0919,0.13867 -0.24427,0.27177 -0.33867,0.29579 -0.0944,0.024 -0.29068,0.14984 -0.43617,0.27961 -0.45114,0.40236 -0.62343,0.53228 -0.70589,0.53228 -0.0437,0 -0.10996,0.0541 -0.1472,0.12026 -0.10646,0.18909 -0.50021,0.2576 -0.56157,0.0977 z m 0.67041,-4.1973 c 0.0613,0 0.14184,-0.0482 0.17908,-0.10702 0.0372,-0.0589 0.29605,-0.25888 0.57513,-0.4445 0.48663,-0.32364 0.5562,-0.37434 0.84073,-0.61264 0.0695,-0.0582 0.15759,-0.10584 0.19574,-0.10584 0.10612,0 0.61511,-0.48647 0.61511,-0.58789 0,-0.0492 0.0952,-0.0894 0.21167,-0.0894 0.11641,0 0.21166,-0.0332 0.21166,-0.0737 0,-0.0405 0.22767,-0.0995 0.50592,-0.13097 0.27826,-0.0315 0.56129,-0.1126 0.62896,-0.18027 0.0677,-0.0677 0.17337,-0.12317 0.23491,-0.12335 0.0615,-1.7e-4 0.23663,-0.0764 0.38909,-0.16933 0.15247,-0.093 0.37154,-0.16902 0.48684,-0.16902 0.11529,0 0.20962,-0.0381 0.20962,-0.0847 0,-0.0466 0.05,-0.0847 0.11103,-0.0847 0.0611,0 0.18808,-0.0718 0.28225,-0.15951 0.0942,-0.0877 0.29443,-0.18658 0.44502,-0.21965 0.15059,-0.0331 0.29436,-0.1137 0.31948,-0.17916 0.0251,-0.0655 0.0832,-0.11901 0.12909,-0.11901 0.0459,0 0.18029,-0.0762 0.29869,-0.16934 0.1184,-0.0931 0.28633,-0.16933 0.37319,-0.16933 0.0868,0 0.15791,-0.0381 0.15791,-0.0847 0,-0.0466 0.0378,-0.0847 0.0839,-0.0847 0.0719,0 0.57966,-0.35298 1.02048,-0.70945 0.0719,-0.0582 0.19574,-0.13067 0.27517,-0.16115 0.0794,-0.0305 0.14441,-0.0947 0.14441,-0.14275 0,-0.048 0.0762,-0.0873 0.16934,-0.0873 0.0931,0 0.16933,-0.0381 0.16933,-0.0847 0,-0.0466 0.0588,-0.0847 0.13069,-0.0847 0.0719,0 0.23342,-0.0953 0.35897,-0.21167 0.12555,-0.11642 0.27629,-0.21167 0.33497,-0.21167 0.0587,0 0.1067,-0.0381 0.1067,-0.0847 0,-0.0466 0.0525,-0.0847 0.11664,-0.0847 0.0641,0 0.16216,-0.0549 0.21781,-0.12192 0.0556,-0.067 0.18116,-0.13372 0.2789,-0.14816 0.27206,-0.0402 0.26204,-0.18387 -0.0216,-0.30941 -0.14036,-0.0621 -0.36414,-0.22191 -0.4973,-0.35506 -0.13316,-0.13316 -0.33735,-0.26601 -0.45377,-0.29523 -0.11641,-0.0292 -0.26108,-0.14547 -0.32148,-0.25834 -0.0604,-0.11286 -0.13994,-0.20521 -0.17674,-0.20521 -0.13825,0 -0.83581,-0.4684 -0.83581,-0.56124 0,-0.0532 -0.14288,-0.16386 -0.3175,-0.24583 -0.17463,-0.082 -0.41362,-0.24823 -0.5311,-0.36948 -0.11748,-0.12125 -0.37466,-0.29291 -0.5715,-0.38147 -0.19685,-0.0886 -0.3579,-0.19334 -0.3579,-0.23284 0,-0.0395 -0.0487,-0.0718 -0.10831,-0.0718 -0.0596,0 -0.16323,-0.0762 -0.23036,-0.16933 -0.0671,-0.0931 -0.15622,-0.16933 -0.19798,-0.16933 -0.0418,0 -0.34768,-0.20304 -0.67981,-0.45121 -0.33213,-0.24816 -0.7277,-0.52307 -0.87904,-0.61092 -0.15134,-0.0878 -0.27517,-0.1896 -0.27517,-0.22613 0,-0.0365 -0.052,-0.0664 -0.11545,-0.0664 -0.0635,0 -0.20638,-0.0901 -0.3175,-0.20024 -0.11113,-0.11013 -0.28582,-0.22638 -0.38822,-0.25833 -0.10239,-0.0319 -0.20689,-0.12282 -0.23222,-0.20193 -0.0253,-0.0791 -0.22731,-0.25642 -0.44883,-0.39404 -0.22153,-0.13761 -0.43325,-0.29954 -0.47048,-0.35983 -0.0372,-0.0603 -0.13794,-0.10963 -0.22378,-0.10963 -0.0858,0 -0.17802,-0.0572 -0.20485,-0.12712 -0.0268,-0.0699 -0.18331,-0.19128 -0.34772,-0.26968 -0.16442,-0.0784 -0.29895,-0.1736 -0.29895,-0.21155 0,-0.0379 -0.0476,-0.0696 -0.10583,-0.0703 -0.0582,-7.6e-4 -0.23918,-0.11463 -0.40217,-0.25309 -0.16298,-0.13846 -0.34235,-0.29025 -0.39859,-0.33732 -0.0562,-0.0471 -0.13789,-0.0856 -0.18144,-0.0856 -0.0435,0 -0.0981,-0.0476 -0.12128,-0.10583 -0.0232,-0.0582 -0.17362,-0.17527 -0.33437,-0.26014 l -0.29229,-0.15431 -0.401804,0.28131 c -0.221,0.15472 -0.48353,0.32735 -0.58341,0.38362 -0.0999,0.0563 -0.22035,0.15152 -0.26771,0.21166 -0.0474,0.0601 -0.20041,0.16446 -0.34011,0.2318 -0.1397,0.0673 -0.42545,0.26112 -0.635,0.43062 -0.20955,0.1695 -0.54582,0.40016 -0.74727,0.51256 -0.20145,0.11241 -0.53755,0.36631 -0.74688,0.56421 -0.20933,0.19791 -0.4198,0.35984 -0.46769,0.35984 -0.0479,0 -0.22044,0.13335 -0.38342,0.29633 -0.16299,0.16298 -0.34675,0.29633 -0.40836,0.29633 -0.0616,0 -0.22115,0.10914 -0.35454,0.24253 -0.13339,0.13338 -0.36303,0.30483 -0.51031,0.381 -0.14728,0.0762 -0.29825,0.18897 -0.33549,0.25069 -0.0372,0.0617 -0.12485,0.13942 -0.1947,0.17266 -0.19547,0.093 -0.4432,0.2468 -0.7345,0.45596 -0.14592,0.10477 -0.29864,0.1905 -0.33938,0.1905 -0.0407,0 -0.129,0.0762 -0.19612,0.16933 -0.0671,0.0931 -0.1923,0.16933 -0.27816,0.16933 -0.0859,0 -0.25229,0.1143 -0.36984,0.254 -0.11755,0.1397 -0.26429,0.254 -0.3261,0.254 -0.0618,0 -0.27581,0.1524 -0.47556,0.33867 -0.19975,0.18627 -0.40297,0.33921 -0.4516,0.33986 -0.0486,6.8e-4 -0.2568,0.15306 -0.46261,0.33867 -0.20581,0.18561 -0.42489,0.33747 -0.48683,0.33747 -0.0619,0 -0.11264,0.0381 -0.11264,0.0847 0,0.0466 -0.0476,0.0857 -0.10583,0.0871 -0.14947,0.003 -0.83952,0.63269 -0.77001,0.7022 0.0316,0.0316 0.10983,0.0574 0.1739,0.0574 0.0641,0 0.3228,0.1524 0.57494,0.33867 0.25214,0.18626 0.49817,0.33866 0.54672,0.33866 0.0486,0 0.0883,0.0381 0.0883,0.0847 0,0.0466 0.0476,0.085 0.10584,0.0854 0.0582,4.3e-4 0.34998,0.19027 0.64839,0.42188 0.2984,0.23162 0.61273,0.44339 0.6985,0.47062 0.0858,0.0272 0.15594,0.085 0.15594,0.12845 0,0.0434 0.0572,0.079 0.127,0.079 0.0699,0 0.127,0.0381 0.127,0.0847 0,0.0466 0.0762,0.0847 0.16933,0.0847 0.0931,0 0.16934,0.0381 0.16934,0.0847 0,0.0466 0.0956,0.0847 0.21243,0.0847 0.11777,0 0.32433,0.10693 0.46353,0.23996 0.13811,0.13198 0.41311,0.2885 0.61112,0.34782 0.19802,0.0593 0.52017,0.21805 0.71589,0.35271 0.19573,0.13466 0.43473,0.24484 0.53111,0.24484 0.0964,0 0.17525,0.0381 0.17525,0.0847 0,0.0466 0.0762,0.0847 0.16933,0.0847 0.0931,0 0.16934,0.0337 0.16934,0.0748 0,0.0411 0.0667,0.0992 0.14816,0.12911 0.29686,0.10882 0.66192,0.33035 0.91017,0.5523 0.1397,0.12491 0.44358,0.27471 0.6753,0.33291 0.23171,0.0582 0.44126,0.13421 0.46566,0.16892 0.0244,0.0347 0.18725,0.1296 0.36187,0.21085 0.17463,0.0812 0.3175,0.18101 0.3175,0.2217 0,0.0407 0.1143,0.0991 0.254,0.12975 0.1397,0.0307 0.254,0.0901 0.254,0.13211 0,0.042 0.1035,0.10231 0.22999,0.13405 0.21881,0.0549 0.29966,0.10413 0.57124,0.34767 0.0649,0.0582 0.15219,0.10584 0.19397,0.10584 0.0418,0 0.164114,0.0938 0.271854,0.20852 l 0.1959,0.20853 0.21128,-0.16619 c 0.1162,-0.0914 0.26139,-0.1662 0.32265,-0.1662 z m -13.172882,-7.32481 c 0,-0.13426 0.167778,-0.47395 0.273085,-0.55289 0.03378,-0.0253 0.105087,-0.33965 0.158459,-0.6985 0.05337,-0.35885 0.130509,-0.65246 0.171415,-0.65246 0.04091,0 0.07438,-0.0762 0.07438,-0.16933 0,-0.0931 0.0381,-0.16934 0.08467,-0.16934 0.04657,0 0.08467,-0.0762 0.08467,-0.16933 0,-0.0931 0.0329,-0.16933 0.0732,-0.16933 0.0402,0 0.0968,-0.17211 0.12558,-0.38246 0.0288,-0.21035 0.11021,-0.49421 0.18084,-0.6308 0.0706,-0.13658 0.12842,-0.32643 0.12842,-0.42187 0,-0.0954 0.0354,-0.17354 0.0787,-0.17354 0.0433,0 0.12361,-0.21651 0.17855,-0.48114 0.0549,-0.26462 0.15744,-0.6361 0.22779,-0.8255 0.40091,-1.07938 1.57627,-4.55396 1.65591,-4.89519 0.0516,-0.22119 0.12444,-0.40217 0.16181,-0.40217 0.0374,0 0.068,-0.0928 0.068,-0.20615 0,-0.11339 0.043,-0.31341 0.0955,-0.4445 0.0525,-0.13109 0.12647,-0.3717 0.16432,-0.53468 0.0378,-0.16299 0.14877,-0.5185 0.2465,-0.79004 l 0.17769,-0.49369 -0.23617,-0.23397 c -0.12989,-0.12868 -0.42667,-0.35974 -0.6595,-0.51346 -0.23283,-0.15371 -0.49953,-0.34912 -0.59267,-0.43424 -0.54741,-0.50029 -1.49181,-1.17527 -1.64437,-1.17527 -0.0494,0 -0.13745,-0.0762 -0.19561,-0.16933 -0.0582,-0.0931 -0.15064,-0.16934 -0.2055,-0.16934 -0.0549,0 -0.225538,-0.13335 -0.379268,-0.29633 -0.15373,-0.16298 -0.310768,-0.29633 -0.348974,-0.29633 -0.142967,0 -0.895372,-0.60423 -1.364646,-1.09589 -0.08747,-0.0916 -0.343973,-0.25404 -0.570004,-0.36087 -0.226031,-0.10683 -0.41164,-0.24381 -0.412462,-0.3044 -8.47e-4,-0.0606 -0.136504,-0.16656 -0.301513,-0.23551 -0.16501,-0.0689 -0.321555,-0.18148 -0.347879,-0.25007 -0.02632,-0.0686 -0.18659,-0.18785 -0.356149,-0.265 -0.169558,-0.0771 -0.384488,-0.20851 -0.477622,-0.29192 -0.09313,-0.0834 -0.255058,-0.22966 -0.359833,-0.325 -0.104775,-0.0953 -0.2286,-0.17334 -0.275167,-0.17334 -0.04657,0 -0.08467,-0.0381 -0.08467,-0.0847 0,-0.0466 -0.05181,-0.0847 -0.115141,-0.0847 -0.06333,0 -0.18667,-0.0952 -0.274095,-0.21167 -0.08743,-0.11642 -0.205331,-0.21167 -0.262011,-0.21167 -0.05668,0 -0.19512,-0.0857 -0.307641,-0.1905 -0.208246,-0.1939 -0.414926,-0.36276 -0.906787,-0.74083 -0.151455,-0.11642 -0.339054,-0.26882 -0.416886,-0.33867 -0.07783,-0.0699 -0.272371,-0.20022 -0.432309,-0.28971 -0.159939,-0.0895 -0.321265,-0.21332 -0.358504,-0.27517 -0.03724,-0.0619 -0.142014,-0.11245 -0.232834,-0.11245 -0.149046,0 -0.165126,0.0618 -0.165126,0.635 0,0.36689 0.03575,0.635 0.08467,0.635 0.0515,0 0.08467,0.37865 0.08467,0.96661 0,0.559 0.03517,0.97851 0.08339,0.99484 0.04586,0.0155 0.108883,0.53304 0.14004,1.15005 0.03116,0.61701 0.08379,1.12183 0.116957,1.12183 0.03317,0 0.08298,0.37148 0.110697,0.8255 0.02772,0.45403 0.09015,1.11125 0.138736,1.4605 0.04859,0.34925 0.112538,0.83503 0.142107,1.0795 0.02957,0.24448 0.08279,0.4445 0.118271,0.4445 0.03548,0 0.09104,0.2286 0.123468,0.508 0.03243,0.2794 0.08806,0.508 0.123621,0.508 0.03556,0 0.09011,0.24835 0.121204,0.55188 0.03209,0.31322 0.224081,1.01806 0.443945,1.62984 0.213072,0.59287 0.406608,1.20178 0.43008,1.35312 0.02347,0.15134 0.07162,0.27516 0.107002,0.27516 0.03538,0 0.08446,0.1241 0.109075,0.27576 0.05496,0.33867 0.332364,0.99424 0.420713,0.99424 0.03558,0 0.06527,0.0667 0.06597,0.14817 0.002,0.22978 0.212068,0.77963 0.367038,0.96063 0.07683,0.0897 0.139688,0.2024 0.139688,0.25038 0,0.048 0.0762,0.16903 0.169333,0.269 0.09313,0.1 0.169333,0.22497 0.169333,0.27779 0,0.0528 0.108122,0.32185 0.24027,0.59786 0.132148,0.27601 0.293849,0.62567 0.359335,0.77701 0.06548,0.15134 0.147864,0.27516 0.183063,0.27516 0.0352,0 0.064,0.0762 0.064,0.16934 0,0.0931 0.03099,0.16933 0.06886,0.16933 0.03787,0 0.121186,0.13335 0.185136,0.29633 0.06395,0.16299 0.147261,0.29634 0.185136,0.29634 0.03787,0 0.06886,0.0697 0.06886,0.15494 0,0.15486 0.799706,1.03039 0.941154,1.03039 0.04117,0 0.07485,0.0531 0.07485,0.11794 0,0.0649 0.05715,0.13987 0.127,0.16668 0.06985,0.0268 0.127,0.10249 0.127,0.16819 0,0.217 1.04826,0.96611 1.375833,0.98321 0.03492,0.002 0.0635,-0.0543 0.0635,-0.12483 z m 25.823342,-0.0412 c 0.0233,-0.034 0.13646,-0.0913 0.2515,-0.12722 0.23025,-0.072 0.75942,-0.6153 0.76253,-0.78294 10e-4,-0.0582 0.0401,-0.10584 0.0866,-0.10584 0.0466,0 0.0847,-0.054 0.0847,-0.11994 0,-0.066 0.0286,-0.13265 0.0635,-0.14817 0.0656,-0.0292 0.4445,-0.5454 0.4445,-0.60562 0,-0.0187 0.12757,-0.16918 0.28349,-0.33451 0.30342,-0.32171 0.73251,-1.07613 0.73251,-1.28787 0,-0.0707 0.0381,-0.12855 0.0847,-0.12855 0.0466,0 0.0847,-0.054 0.0847,-0.11995 0,-0.066 0.0286,-0.13264 0.0635,-0.14817 0.10052,-0.0447 0.4445,-0.71426 0.4445,-0.86525 0,-0.0752 0.0381,-0.13663 0.0847,-0.13663 0.0466,0 0.0847,-0.0571 0.0847,-0.127 0,-0.0699 0.0381,-0.127 0.0847,-0.127 0.0466,0 0.0847,-0.0482 0.0847,-0.10709 0,-0.0589 0.0762,-0.24926 0.16933,-0.42303 0.0931,-0.17377 0.16934,-0.37323 0.16934,-0.44324 0,-0.07 0.0345,-0.12731 0.0767,-0.12731 0.22393,0 1.61638,-3.67437 1.61686,-4.26656 2.6e-4,-0.28659 0.35092,-1.67885 0.55187,-2.19099 0.0689,-0.17557 0.12525,-0.50946 0.12525,-0.74198 0,-0.23252 0.0346,-0.48893 0.0769,-0.56979 0.0751,-0.14365 0.26361,-2.33235 0.26239,-3.04685 -3.3e-4,-0.19791 0.0375,-0.35983 0.0841,-0.35983 0.0494,0 0.0847,-0.28222 0.0847,-0.67734 0,-0.37253 0.0329,-0.67733 0.0732,-0.67733 0.0403,0 0.0983,-0.48577 0.12888,-1.0795 0.0306,-0.59372 0.0788,-1.37477 0.10707,-1.73567 0.033,-0.42128 0.0206,-0.65616 -0.0346,-0.65616 -0.17701,0 -1.34882,0.83661 -2.37727,1.69723 -0.10873,0.091 -0.23245,0.16543 -0.27492,0.16543 -0.0425,0 -0.22484,0.13335 -0.40524,0.29634 -0.1804,0.16298 -0.36799,0.29633 -0.41687,0.29633 -0.0489,0 -0.2428,0.1524 -0.43093,0.33867 -0.18814,0.18626 -0.3853,0.33866 -0.43814,0.33866 -0.10762,0 -0.5492,0.29999 -0.77723,0.52803 -0.0821,0.0821 -0.18587,0.14931 -0.23056,0.14931 -0.0447,0 -0.23672,0.1524 -0.42675,0.33866 -0.19003,0.18627 -0.38334,0.33867 -0.42958,0.33867 -0.0462,0 -0.21296,0.12383 -0.37049,0.27517 -0.53027,0.50941 -0.81102,0.74083 -0.89877,0.74083 -0.048,0 -0.17552,0.0952 -0.28341,0.21167 -0.10789,0.11641 -0.23409,0.21166 -0.28043,0.21166 -0.0464,0 -0.1558,0.0953 -0.24322,0.21167 -0.0874,0.11642 -0.21695,0.21167 -0.28783,0.21167 -0.0709,0 -0.17646,0.0762 -0.23462,0.16933 -0.0582,0.0931 -0.18163,0.16933 -0.27437,0.16933 -0.0927,0 -0.16861,0.0355 -0.16861,0.079 0,0.0434 -0.0774,0.10354 -0.17207,0.13358 -0.0946,0.03 -0.27164,0.1469 -0.39336,0.2597 -0.12171,0.1128 -0.2521,0.2051 -0.28976,0.2051 -0.065,0 -0.27815,0.18121 -0.75439,0.6413 -0.11692,0.11295 -0.25389,0.20536 -0.30438,0.20536 -0.0505,0 -0.16076,0.0762 -0.24504,0.16934 -0.0843,0.0931 -0.18371,0.16933 -0.22094,0.16933 -0.0372,0 -0.16919,0.10149 -0.29324,0.22554 -0.20761,0.20761 -0.22116,0.26286 -0.17037,0.69494 0.0303,0.25817 0.11105,0.53115 0.17935,0.60662 0.0683,0.0755 0.1242,0.18186 0.1242,0.2364 0,0.0545 0.0381,0.0992 0.0847,0.0992 0.0466,0 0.0847,0.0739 0.0847,0.16434 0,0.0904 0.0381,0.18788 0.0847,0.21666 0.0466,0.0288 0.0847,0.203 0.0847,0.38715 0,0.18415 0.0372,0.40097 0.0828,0.48183 0.0989,0.17576 0.88263,2.53274 1.31571,3.95702 0.16992,0.5588 0.55103,1.6256 0.84692,2.37067 0.29589,0.74506 0.56364,1.4598 0.59501,1.5883 0.0314,0.1285 0.0909,0.25457 0.13232,0.28016 0.0414,0.0256 0.0753,0.15858 0.0753,0.29553 0,0.13696 0.0329,0.24901 0.0731,0.24901 0.0402,0 0.12226,0.23812 0.18235,0.52916 0.0601,0.29105 0.1796,0.59733 0.26557,0.68064 0.0897,0.0869 0.15632,0.27034 0.15632,0.43038 0,0.15341 0.0258,0.30475 0.0574,0.3363 0.0638,0.0638 0.3845,-0.0172 0.45063,-0.11382 z m -17.542804,-24.13 c 1.16823,-3.614958 2.84471,-8.676323 3.35831,-10.138833 0.29844,-0.849842 0.51203,-1.545167 0.47464,-1.545167 -0.0598,0 -0.4844,0.298104 -0.59882,0.420415 -0.10353,0.110664 -0.43516,0.256919 -0.58256,0.256919 -0.0888,0 -0.28389,0.1143 -0.43344,0.254 -0.14955,0.1397 -0.32503,0.254 -0.38995,0.254 -0.0649,0 -0.11805,0.0381 -0.11805,0.08467 0,0.04657 -0.0571,0.08467 -0.127,0.08467 -0.0699,0 -0.127,0.0381 -0.127,0.08467 0,0.04657 -0.0953,0.08467 -0.21167,0.08467 -0.11641,0 -0.21166,0.03099 -0.21166,0.06886 0,0.03788 -0.13335,0.121187 -0.29634,0.185137 -0.16298,0.06395 -0.29633,0.144794 -0.29633,0.179655 0,0.03486 -0.13335,0.111604 -0.29633,0.170539 -0.16299,0.05894 -0.29634,0.134081 -0.29634,0.16699 0,0.03291 -0.1905,0.108657 -0.42333,0.168331 -0.23283,0.05967 -0.42333,0.139394 -0.42333,0.177157 0,0.03776 -0.0762,0.06866 -0.16934,0.06866 -0.0931,0 -0.16933,0.0381 -0.16933,0.08467 0,0.04657 -0.0667,0.0849 -0.14817,0.08519 -0.0815,2.88e-4 -0.25729,0.05744 -0.39068,0.127 -0.13338,0.06956 -0.28578,0.126713 -0.33866,0.127 -0.0529,2.88e-4 -0.19837,0.05385 -0.32329,0.11902 -0.12492,0.06517 -0.34399,0.144167 -0.48683,0.175539 -0.14284,0.03137 -0.2597,0.09211 -0.2597,0.13498 0,0.04287 -0.093,0.07794 -0.20667,0.07794 -0.11367,0 -0.22686,0.03266 -0.25153,0.07257 -0.0247,0.03991 -0.28409,0.121515 -0.57649,0.181335 -0.29241,0.05982 -0.56784,0.141463 -0.61208,0.181428 -0.0442,0.03997 -0.16806,0.07267 -0.27517,0.07267 -0.1071,0 -0.19473,0.03577 -0.19473,0.07948 0,0.04371 -0.18098,0.102671 -0.40217,0.131016 -0.22119,0.02835 -0.56841,0.127533 -0.77159,0.220415 -0.4715,0.21554 -2.37505,0.669757 -2.806838,0.669757 -0.181028,0 -0.548555,0.05715 -0.816727,0.127 -0.268173,0.06985 -0.764,0.127 -1.101839,0.127 -0.346115,0 -0.791101,0.06031 -1.019378,0.138166 -0.481023,0.164049 -1.909726,0.116045 -2.606459,-0.08758 -0.232834,-0.06805 -0.598396,-0.148805 -0.812362,-0.179464 l -0.389028,-0.05574 -0.05496,0.706144 c -0.03023,0.388379 -0.05519,2.162742 -0.05547,3.943031 l -5.08e-4,3.23689 0.1905,0.0414 c 0.104775,0.0228 0.28575,0.0565 0.402167,0.075 0.116417,0.0185 3.564467,0.0291 7.662334,0.0237 l 7.450668,-0.01 z m 24.869254,-0.1905 c 0.11264,-2.97107 0.0501,-6.161826 -0.12061,-6.158494 -0.0283,5.92e-4 -0.26106,0.05725 -0.51718,0.125995 -0.25611,0.06874 -0.57044,0.125442 -0.6985,0.125995 -0.12805,5.92e-4 -0.23283,0.0442 -0.23283,0.09699 0,0.203732 -4.61318,-0.224529 -5.588,-0.518757 -0.45913,-0.13858 -3.13913,-0.775618 -3.47133,-0.825139 -0.16299,-0.0243 -0.37149,-0.09636 -0.46334,-0.160133 -0.0919,-0.06378 -0.23473,-0.115957 -0.3175,-0.115957 -0.0828,0 -0.1505,-0.03318 -0.1505,-0.07373 0,-0.04055 -0.2286,-0.09959 -0.508,-0.131204 -0.2794,-0.03161 -0.50809,-0.08416 -0.5082,-0.11677 -3.5e-4,-0.103564 -0.87533,-0.513365 -1.22746,-0.574885 -0.18627,-0.03254 -0.35772,-0.08313 -0.381,-0.112412 -0.10693,-0.13448 -0.51893,-0.345665 -0.67436,-0.345665 -0.0948,0 -0.17231,-0.03334 -0.17231,-0.0741 0,-0.04075 -0.2286,-0.124813 -0.508,-0.186798 -0.2794,-0.06198 -0.508,-0.14294 -0.508,-0.179901 0,-0.03696 -0.0572,-0.0672 -0.127,-0.0672 -0.0699,0 -0.127,-0.0381 -0.127,-0.08467 0,-0.04657 -0.093,-0.08467 -0.20667,-0.08467 -0.11367,0 -0.23022,-0.0381 -0.259,-0.08467 -0.0288,-0.04657 -0.13787,-0.08467 -0.24242,-0.08467 -0.22584,0 -0.79623,-0.363206 -1.32084,-0.841075 -0.20787,-0.189342 -0.42746,-0.344258 -0.48798,-0.344258 -0.1527,0 -0.4344,-0.169271 -0.73908,-0.444108 -0.14172,-0.127843 -0.2853,-0.232618 -0.31906,-0.232834 -0.0897,-5.76e-4 0.0204,0.51898 0.15637,0.737463 0.0642,0.103137 0.11668,0.257005 0.11668,0.341931 0,0.08492 0.15501,0.55299 0.34447,1.040145 0.18945,0.487155 0.37538,1.000036 0.41317,1.139736 0.0378,0.1397 0.18376,0.61595 0.32438,1.058334 0.14062,0.442383 0.35516,1.159943 0.47677,1.594579 0.12161,0.434634 0.35862,1.120434 0.5267,1.524 0.16807,0.403564 0.35728,0.977242 0.42046,1.274842 0.0632,0.29759 0.16788,0.622 0.23268,0.72091 0.0648,0.0989 0.14672,0.31136 0.18203,0.47213 0.0353,0.16077 0.094,0.35071 0.13048,0.42209 0.19421,0.38029 0.42019,1.07177 0.42019,1.28576 0,0.13441 0.0918,0.47031 0.20401,0.74644 0.1122,0.27613 0.22953,0.61828 0.26072,0.76032 l 0.0567,0.25826 h 7.76945 7.76946 z"
       id="path1415" />
  </g>
</svg>
