<?xml version="1.0" encoding="UTF-8" standalone="no"?>
<svg
   xmlns:dc="http://purl.org/dc/elements/1.1/"
   xmlns:cc="http://creativecommons.org/ns#"
   xmlns:rdf="http://www.w3.org/1999/02/22-rdf-syntax-ns#"
   xmlns:svg="http://www.w3.org/2000/svg"
   xmlns="http://www.w3.org/2000/svg"
   xmlns:sodipodi="http://sodipodi.sourceforge.net/DTD/sodipodi-0.dtd"
   xmlns:inkscape="http://www.inkscape.org/namespaces/inkscape"
   width="367.29596mm"
   height="365.33914mm"
   viewBox="0 0 367.29596 365.33915"
   version="1.1"
   id="svg1998"
   sodipodi:docname="mystic-plain.svg"
   inkscape:version="1.0.1 (3bc2e813f5, 2020-09-07)">
  <sodipodi:namedview
     pagecolor="#ffffff"
     bordercolor="#666666"
     borderopacity="1"
     objecttolerance="10"
     gridtolerance="10"
     guidetolerance="10"
     inkscape:pageopacity="0"
     inkscape:pageshadow="2"
     inkscape:window-width="1639"
     inkscape:window-height="916"
     id="namedview7"
     showgrid="false"
     showguides="true"
     inkscape:guide-bbox="true"
     fit-margin-top="0"
     fit-margin-left="0"
     fit-margin-right="0"
     fit-margin-bottom="0"
     inkscape:zoom="0.18765237"
     inkscape:cx="-1175.9009"
     inkscape:cy="1868.2848"
     inkscape:window-x="2443"
     inkscape:window-y="234"
     inkscape:window-maximized="0"
     inkscape:current-layer="svg1998">
    <sodipodi:guide
       position="79.759684,0.43859511"
       orientation="1,0"
       id="guide868" />
    <sodipodi:guide
       position="287.13486,251.6816"
       orientation="1,0"
       id="guide870" />
    <sodipodi:guide
       position="-196.40823,69.231326"
       orientation="0,-1"
       id="guide872" />
  </sodipodi:namedview>
  <defs
     id="defs1992" />
  <metadata
     id="metadata1995">
    <rdf:RDF>
      <cc:Work
         rdf:about="">
        <dc:format>image/svg+xml</dc:format>
        <dc:type
           rdf:resource="http://purl.org/dc/dcmitype/StillImage" />
        <dc:title></dc:title>
      </cc:Work>
    </rdf:RDF>
  </metadata>
  <g
     id="layer1"
     transform="translate(67.956055,-66.152129)">
    <path
       style="fill:#000000;stroke-width:0.0846667"
       d="m -67.956023,311.72641 c 0.0699,-0.18216 73.7167764,-99.05779 103.056047,-138.35931 23.020605,-30.83734 48.656307,-65.25163 69.386396,-93.146818 l 10.45464,-14.068153 0.19776,0.182819 c 0.10877,0.100551 0.36262,0.43047 0.56409,0.733153 0.52016,0.781432 1.1102,1.185334 1.7316,1.185334 h 0.34288 v 0.531817 0.531817 l 0.508,0.502699 c 0.46351,0.458671 0.508,0.534447 0.508,0.865183 v 0.362484 h 0.55033 0.55034 v 0.570767 c 0,0.517341 0.0286,0.612354 0.306,1.015071 0.32711,0.47494 0.73328,0.776537 1.16366,0.864054 0.26171,0.05322 0.26641,0.06292 0.29139,0.601267 0.0232,0.499596 0.0522,0.574742 0.33424,0.864227 0.16988,0.174379 0.34896,0.441079 0.39795,0.592667 0.066,0.204062 0.16052,0.296644 0.36426,0.356623 0.25438,0.07489 0.27516,0.108093 0.27516,0.439631 v 0.358623 l 0.35137,0.02604 c 0.50056,0.03709 0.67454,0.299816 0.72699,1.097792 0.0544,0.82722 0.16968,1.002576 0.65926,1.002576 h 0.37905 v 0.338667 0.338667 h 0.33867 0.33866 v 0.480054 c 0,0.475926 0.005,0.484958 0.55034,1.050102 0.31418,0.325438 0.55033,0.64477 0.55033,0.744187 0,0.159685 0.058,0.176183 0.6985,0.198733 l 0.6985,0.02459 0.0257,0.548691 c 0.0172,0.367816 0.073,0.600919 0.1691,0.707128 0.10223,0.112964 0.1521,0.350364 0.17375,0.827143 l 0.0304,0.668705 h 0.49904 0.49903 v 0.545368 0.545369 l 0.51443,0.274191 c 0.76927,0.410014 1.26111,1.074284 1.26309,1.705921 0,0.08242 0.0957,0.300735 0.21215,0.485151 0.11641,0.184416 0.21166,0.393209 0.21166,0.463984 0,0.07297 0.0746,0.128683 0.17229,0.128683 0.0948,0 0.47576,0.100297 0.84667,0.222884 l 0.67438,0.222884 v 0.521933 c 0,0.497361 0.0159,0.537502 0.33866,0.852632 0.22188,0.216656 0.33867,0.405911 0.33867,0.548796 0,0.156039 0.15659,0.373296 0.55033,0.763537 0.48402,0.479716 0.55034,0.583995 0.55034,0.865388 0,0.263501 0.0299,0.319946 0.16933,0.319946 0.1516,0 0.16933,0.05644 0.16933,0.539185 v 0.539185 l 0.34524,0.04631 c 0.52673,0.07065 0.67076,0.249298 0.67076,0.831942 v 0.491042 l 0.3175,0.05563 c 0.78791,0.138055 1.4605,0.772745 1.4605,1.378199 0,0.34652 0.005,0.351842 0.30019,0.351842 0.39008,0 0.71581,0.310212 0.71581,0.681717 0,0.211426 0.11064,0.381781 0.53867,0.829349 0.29626,0.309797 0.56263,0.658517 0.59191,0.774934 0.10194,0.405168 0.19353,0.463888 0.79241,0.507998 l 0.57468,0.0423 0.0259,0.50334 c 0.0197,0.3833 0.0651,0.53082 0.1905,0.61863 0.0905,0.0634 0.16462,0.15349 0.16462,0.20016 0,0.0467 0.2286,0.38517 0.508,0.75221 0.50143,0.6587 0.508,0.67452 0.508,1.22266 0,0.44445 0.0261,0.55534 0.13085,0.55534 0.22715,0 0.51698,0.3742 0.57608,0.74376 0.0529,0.33098 0.0912,0.37272 0.55873,0.60872 0.27606,0.13935 0.75192,0.30079 1.05747,0.35875 l 0.55554,0.10538 v 0.85086 c 0,0.9253 0.10889,1.22719 0.44263,1.22719 0.0985,0 0.24832,0.0627 0.33301,0.13935 0.0847,0.0766 0.33682,0.15691 0.56029,0.17839 l 0.40631,0.039 1.85937,2.59276 c 4.60391,6.4198 8.91916,12.34001 14.72878,20.20679 5.55486,7.52184 7.52633,10.2641 11.2607,15.66334 1.41794,2.05008 4.93126,7.28561 6.12191,9.12283 l 0.86421,1.3335 h 0.50413 0.50413 l 0.09,0.33413 c 0.10464,0.38862 0.43314,0.68187 0.76382,0.68187 0.2042,0 0.23809,0.0395 0.28493,0.33254 0.0592,0.37019 0.32963,0.63775 0.73445,0.72667 0.2409,0.0529 0.25002,0.0724 0.25002,0.53274 0,0.47144 0.007,0.4848 0.51594,0.99839 0.28376,0.2863 0.56091,0.61118 0.61589,0.72194 0.0831,0.16746 0.17449,0.2057 0.5424,0.22698 l 0.44244,0.0256 v 0.67629 c 0,0.50919 0.0418,0.75828 0.16933,1.0082 0.11824,0.23176 0.16934,0.49901 0.16934,0.88563 v 0.5537 h 0.55033 0.55033 v 0.381 c 0,0.31113 0.0281,0.381 0.15316,0.381 0.0842,0 0.2271,0.0539 0.3175,0.11989 0.13992,0.10207 0.17063,0.2562 0.20668,1.03717 l 0.0423,0.91727 0.52917,0.0252 c 0.49048,0.0234 0.52916,0.0396 0.52916,0.22247 0,0.26702 0.15525,0.37703 0.62238,0.44106 0.33528,0.046 0.39362,0.0821 0.39362,0.24375 0,0.27015 0.19701,0.39923 0.68015,0.44566 l 0.42052,0.0404 v 0.37022 0.37023 h 0.33867 0.33866 v 0.52476 0.52477 l 0.50247,0.47007 c 0.45115,0.42204 0.50521,0.50899 0.52917,0.85106 0.0225,0.32088 0.0568,0.38527 0.2172,0.40806 0.1726,0.0245 0.1905,0.0733 0.1905,0.51911 v 0.49207 l 0.3762,0.0947 c 0.52014,0.13097 0.6398,0.3343 0.6398,1.08721 v 0.61616 h 0.55033 0.55033 v 0.53975 c 0,0.5266 0.006,0.54094 0.24309,0.58837 0.18676,0.0374 0.27534,0.12922 0.38225,0.39642 0.14179,0.35438 0.50153,0.59213 0.89595,0.59213 0.14428,0 0.17205,0.0547 0.17205,0.33867 v 0.33866 h 0.71966 0.71967 v 0.72239 c 0,0.85339 0.14272,1.27846 0.45562,1.35699 0.1785,0.0448 0.2169,0.11006 0.23841,0.40517 0.0254,0.34868 0.0288,0.35201 0.38547,0.37782 l 0.35983,0.026 v 0.57087 c 0,0.33111 0.0427,0.61353 0.1016,0.67246 0.0559,0.0559 0.28448,0.1016 0.508,0.1016 h 0.4064 v 0.55033 0.55034 h 0.33867 0.33867 v 0.48928 0.48928 l 0.55033,0.54544 c 0.50661,0.50211 0.55033,0.57422 0.55033,0.90772 v 0.36228 h 0.507 0.50701 l 0.0509,0.31856 c 0.063,0.39387 0.19456,0.58078 0.48713,0.69201 0.17825,0.0678 0.22593,0.14172 0.22593,0.35037 0,0.54603 0.44334,1.09439 0.8848,1.09439 0.0722,0 0.1312,0.0714 0.1312,0.15869 0,0.0873 0.0594,0.3254 0.13202,0.52917 0.0726,0.20376 0.16795,0.5572 0.21189,0.78541 0.10816,0.5618 0.19471,0.6434 0.68246,0.6434 h 0.41297 v 0.50056 0.50055 l 0.33112,0.056 c 0.41269,0.0697 0.60155,0.2721 0.65989,0.70712 0.0331,0.24649 0.13427,0.42483 0.37383,0.65876 0.30951,0.30222 0.32857,0.35035 0.32979,0.83274 8.4e-4,0.28159 0.0293,0.5523 0.0635,0.60156 0.13765,0.19822 0.49633,0.37609 0.75837,0.37609 h 0.2775 v 0.508 0.508 h 1.22766 1.22767 v 0.97069 c 0,0.87304 0.0165,0.97951 0.16377,1.05833 0.0901,0.0482 0.24028,0.0876 0.3338,0.0876 0.1395,0 0.1747,0.0646 0.19606,0.35984 0.0259,0.35808 0.0278,0.35996 0.38587,0.38586 l 0.35983,0.026 v 0.50314 0.50313 h 0.33867 0.33867 v 0.71966 0.71967 h 0.508 0.508 v 0.508 0.508 h 0.25956 c 0.6101,0 0.8411,0.39457 0.8411,1.43662 v 0.68005 h 0.33867 0.33867 v 0.51066 c 0,0.41243 0.0285,0.51948 0.14816,0.55651 0.43831,0.13565 0.70436,0.30723 0.81843,0.5278 0.12813,0.2478 0.64395,0.5217 0.98245,0.5217 0.13912,0 0.16762,0.0576 0.16762,0.33866 0,0.28222 0.0282,0.33867 0.16934,0.33867 0.15605,0 0.16933,0.0565 0.16933,0.71967 v 0.71966 h 0.55033 0.55034 v 0.55034 0.55033 h 0.32554 c 0.46618,0 0.61856,0.2062 0.68456,0.92634 0.0297,0.32414 0.0794,0.61468 0.11033,0.64565 0.031,0.031 0.18206,0.0819 0.33577,0.11315 0.27644,0.0562 0.27973,0.0625 0.30467,0.58285 0.0251,0.52314 0.0266,0.52601 0.28074,0.52601 0.14054,0 0.32521,0.0373 0.41038,0.0829 0.16505,0.0883 0.34201,0.50227 0.34201,0.80003 0,0.10953 0.21602,0.39441 0.55033,0.72576 0.30268,0.29999 0.55033,0.61019 0.55033,0.68933 0,0.0928 0.0955,0.16486 0.26933,0.20303 0.32161,0.0706 1.08534,0.81967 1.08534,1.06446 0,0.26064 0.35159,0.55006 0.74454,0.61289 l 0.35613,0.057 v 0.69505 0.69504 l 0.48485,0.48997 c 0.35122,0.35492 0.50873,0.58894 0.5715,0.84912 l 0.0867,0.35916 0.48169,0.0423 0.4817,0.0423 0.90605,1.31233 c 7.43408,10.76751 13.9591,19.94796 16.7593,23.57967 3.30021,4.28021 6.74933,8.81891 10.84148,14.26634 2.15135,2.86385 4.12542,5.41524 4.38683,5.66977 l 0.47528,0.46278 v 0.53471 c 0,0.3569 0.0352,0.54371 0.10583,0.56177 0.72294,0.18479 0.86986,0.2703 0.96256,0.5603 0.0521,0.16298 0.25171,0.45517 0.44358,0.64929 0.32528,0.32913 0.55195,0.44354 1.13386,0.57238 0.17244,0.0382 0.23284,0.10261 0.23284,0.24835 0,0.10824 0.0762,0.41828 0.16933,0.68898 0.0931,0.2707 0.16948,0.57194 0.16965,0.66943 8.4e-4,0.33489 0.3099,0.71225 0.67297,0.82102 0.32322,0.0969 0.34271,0.12119 0.34271,0.42795 0,0.30651 0.015,0.32527 0.25957,0.32527 0.56034,0 0.8401,0.3998 0.84235,1.20378 0.002,0.57277 0.14537,0.86255 0.44522,0.89734 0.20771,0.0241 0.23086,0.0602 0.23086,0.35983 v 0.33305 l 0.4445,0.001 c 0.58671,0.002 0.84233,0.14051 0.95017,0.51618 0.0478,0.1667 0.30608,0.59352 0.57383,0.94848 0.40689,0.53942 0.48684,0.7019 0.48684,0.98941 0,0.25387 0.0388,0.35589 0.14816,0.38941 0.39222,0.12022 0.86096,0.37974 1.2065,0.668 0.36822,0.30716 0.38243,0.33665 0.42334,0.87905 l 0.0423,0.56122 0.3175,0.0263 0.3175,0.0263 v 0.70851 c 0,0.79564 0.0944,0.97461 0.51405,0.97461 0.1915,0 0.24795,0.0385 0.24795,0.16933 0,0.15052 0.0564,0.16934 0.508,0.16934 h 0.508 v 0.53161 0.53161 l 0.55033,0.54544 c 0.50662,0.50211 0.55034,0.57423 0.55034,0.90772 v 0.36228 h 0.33866 0.33867 v 0.50056 0.50056 l 0.34763,0.0587 c 0.58661,0.0991 0.66837,0.2491 0.66837,1.22615 v 0.84667 h 0.71967 0.71967 v 0.58969 c 0,0.67103 0.0504,0.7287 0.71625,0.81997 0.38069,0.0522 0.38441,0.0558 0.38441,0.37984 0,0.32524 0.002,0.32717 0.33867,0.32717 h 0.33867 v 0.70139 0.70139 l 0.47255,0.46278 c 0.2599,0.25452 0.52935,0.60216 0.59876,0.77252 0.12656,0.31063 0.3582,0.46044 0.79135,0.51181 0.19732,0.0234 0.21338,0.0609 0.23686,0.55353 l 0.0252,0.52842 0.67912,0.51697 c 0.37353,0.28435 0.70231,0.57995 0.73064,0.65692 0.0714,0.19408 0.19431,0.26412 0.46603,0.26564 0.22798,0.001 0.23283,0.0119 0.23283,0.50929 0,0.45155 0.0188,0.508 0.16933,0.508 0.114,0 0.16934,0.0565 0.16934,0.17271 0,0.095 0.0762,0.32207 0.16933,0.50463 0.0931,0.18255 0.16933,0.4202 0.16933,0.52812 0,0.28979 0.23234,0.57254 0.47047,0.57254 0.19593,0 0.20687,0.0263 0.20687,0.49795 v 0.49795 l 0.36917,0.093 c 0.43449,0.1094 0.5419,0.22042 0.68467,0.70762 0.0946,0.32295 0.16392,0.39259 0.63476,0.63795 0.2907,0.15149 0.67739,0.29923 0.8593,0.32832 l 0.33076,0.0529 v 0.57149 c 0,0.6588 0.0476,0.72127 0.61384,0.80557 l 0.40216,0.0599 v 0.49435 0.49435 l 0.52917,0.0252 0.52917,0.0252 0.0246,0.69766 0.0246,0.69766 0.50459,0.34267 0.50459,0.34265 v 0.54718 c 0,0.49073 0.0175,0.54718 0.16933,0.54718 0.15011,0 0.16934,0.0564 0.16934,0.49718 v 0.49718 l 0.32851,0.0525 c 0.5419,0.0866 0.71131,0.28591 0.75485,0.88785 l 0.0377,0.52059 h 0.32849 0.32849 v 0.508 c 0,0.34971 0.033,0.50815 0.10583,0.50848 0.0582,0 0.25175,0.041 0.4301,0.0905 0.258,0.0716 0.35029,0.15372 0.45166,0.4017 0.0701,0.1714 0.34206,0.53072 0.60443,0.79848 l 0.47701,0.48683 H 115.67018 c -153.139011,-2e-5 -183.662367,-0.0188 -183.626203,-0.11305 z M 128.36072,298.64152 v -0.49792 l 2.9845,-0.0456 c 3.16254,-0.0484 3.57394,-0.0921 4.8874,-0.51911 0.3504,-0.11392 1.18955,-0.2887 1.86477,-0.3884 1.72799,-0.25516 4.64794,-0.79189 6.68867,-1.22948 0.95461,-0.20469 2.11666,-0.4328 2.58233,-0.5069 2.56386,-0.40799 6.85569,-1.31753 8.04333,-1.70456 1.39802,-0.4556 4.1396,-1.42699 6.35,-2.24992 2.34155,-0.87174 5.14957,-1.74227 8.29734,-2.57229 0.9779,-0.25785 1.94945,-0.5146 2.159,-0.57056 0.3685,-0.0984 0.38185,-0.11344 0.40703,-0.45917 l 0.026,-0.35746 h 1.43446 1.43447 v -0.55033 c 0,-0.39821 0.0308,-0.55033 0.11128,-0.55033 0.0612,0 0.38287,-0.2286 0.7148,-0.508 0.52066,-0.43827 0.65066,-0.508 0.94704,-0.508 h 0.34354 v -0.5059 -0.50591 l 1.37584,-0.0233 1.37583,-0.0233 0.026,-0.35983 0.026,-0.35983 h 0.50313 0.50313 v -0.508 -0.508 h 0.71967 0.71967 v -0.55034 -0.55033 h 1.05833 c 1.00189,0 1.05833,-0.009 1.05833,-0.16933 0,-0.14255 0.0569,-0.16957 0.35984,-0.17081 0.83472,-0.003 2.10003,-0.42043 2.56116,-0.84411 0.0931,-0.0856 0.26459,-0.16844 0.381,-0.18416 0.18304,-0.0247 0.21519,-0.0773 0.2377,-0.38842 l 0.026,-0.35984 h 0.8418 0.8418 v -0.508 -0.508 h 0.55033 0.55033 v -0.55033 -0.55033 h 0.508 0.508 v -0.33867 -0.33867 h 0.55034 0.55033 v -0.71966 -0.71967 h 0.87614 0.87615 l 0.15271,-0.33867 0.15271,-0.33866 h 0.53748 0.53748 v -0.33463 -0.33463 l 0.52916,-0.0252 0.52917,-0.0252 0.0452,-0.39256 c 0.0697,-0.60633 0.15759,-0.66577 0.98386,-0.66577 0.49573,0 0.72186,-0.0321 0.74457,-0.10584 0.0179,-0.0582 0.0561,-0.21286 0.0849,-0.34367 0.0652,-0.2966 0.6192,-0.90679 1.0186,-1.12188 0.21598,-0.11632 0.49451,-0.45452 0.98851,-1.20028 l 0.68781,-1.03833 h 0.61554 c 0.58821,0 0.63373,-0.0146 1.0253,-0.32871 0.69155,-0.55476 4.27985,-4.23723 4.95999,-5.09016 0.6761,-0.84788 1.32103,-1.41967 2.31954,-2.05648 0.71605,-0.45668 1.13026,-0.85413 1.51199,-1.45089 0.36974,-0.578 0.55058,-1.02378 0.55058,-1.35722 0,-0.25861 0.0242,-0.27905 0.48684,-0.41195 0.64208,-0.18442 1.17707,-0.59358 1.7983,-1.37533 0.50184,-0.63152 0.50886,-0.6478 0.50886,-1.18003 v -0.53968 l 0.3175,-0.0263 0.3175,-0.0263 0.0246,-0.6467 0.0246,-0.64668 0.86444,-0.0344 c 0.49172,-0.0196 0.95196,-0.0826 1.06742,-0.14614 l 0.20299,-0.11173 -0.0501,-1.23917 c -0.0822,-2.03309 -0.41675,-3.51082 -1.70423,-7.52748 -0.38649,-1.20576 -0.3873,-1.21087 -0.3873,-2.43416 v -1.22587 h -0.33867 -0.33867 v -1.39213 -1.39213 l -0.35983,-0.026 -0.35983,-0.026 -0.0232,-1.37085 -0.0232,-1.37084 -0.31543,-0.0262 -0.31543,-0.0262 -0.0229,-1.75684 -0.0229,-1.75683 h -0.67157 -0.67158 l -0.0252,-0.52917 -0.0252,-0.52916 -0.52917,-0.0252 -0.52916,-0.0252 v -0.99313 c 0,-1.15808 -0.0694,-1.32339 -0.59247,-1.41176 -0.41847,-0.0707 -0.41855,-0.071 -0.44528,-1.6087 l -0.0206,-1.18534 -0.35983,-0.026 -0.35983,-0.026 v -0.50313 -0.50313 h -0.50595 -0.50596 l -0.0232,-1.41817 -0.0232,-1.41816 -0.52916,-0.0252 c -0.4598,-0.0219 -0.52917,-0.0469 -0.52917,-0.1905 0,-0.10885 -0.0578,-0.1653 -0.16933,-0.1653 -0.15858,0 -0.16934,-0.0565 -0.16934,-0.889 v -0.889 h -0.34423 c -0.5429,0 -0.67145,-0.10963 -0.67365,-0.57448 -0.001,-0.2653 -0.0574,-0.47018 -0.16745,-0.61085 -0.0911,-0.11642 -0.16641,-0.25812 -0.16745,-0.31489 -0.001,-0.0568 -0.0764,-0.24728 -0.16752,-0.42334 -0.10938,-0.21136 -0.18551,-0.5874 -0.2241,-1.1069 -0.0521,-0.70143 -0.0813,-0.80477 -0.26911,-0.9525 -0.11586,-0.0911 -0.33887,-0.16571 -0.49557,-0.16571 -0.24009,0 -0.28492,-0.0303 -0.28492,-0.19294 0,-0.12509 -0.19355,-0.38479 -0.55033,-0.73839 l -0.55033,-0.54544 v -0.53161 -0.53162 h -0.33867 -0.33867 v -0.508 c 0,-0.50209 -0.003,-0.508 -0.24136,-0.508 -0.13275,0 -0.36135,-0.0418 -0.508,-0.093 -0.20447,-0.0713 -0.26664,-0.14297 -0.26664,-0.3075 0,-0.11801 -0.073,-0.33335 -0.16222,-0.47856 -0.0892,-0.14519 -0.18871,-0.40686 -0.22109,-0.58149 -0.0434,-0.23404 -0.1009,-0.3175 -0.21878,-0.3175 -0.13899,0 -0.15991,-0.0664 -0.15991,-0.508 v -0.508 h -0.33866 c -0.2967,0 -0.33867,-0.0241 -0.33867,-0.19425 0,-0.14551 -0.18056,-0.32797 -0.71967,-0.72726 -0.42734,-0.3165 -0.71966,-0.59338 -0.71966,-0.68163 0,-0.22783 -0.28829,-0.43821 -0.67077,-0.48951 l -0.34523,-0.0463 v -0.51915 c 0,-0.46088 -0.0356,-0.57129 -0.3175,-0.98369 -0.27263,-0.39889 -0.32349,-0.5483 -0.35984,-1.0572 l -0.0423,-0.59267 -0.46776,-0.0503 c -0.5709,-0.0614 -0.78255,-0.16535 -1.24674,-0.61221 -0.35275,-0.33958 -0.35983,-0.35753 -0.35983,-0.91113 v -0.56477 l -0.48684,-0.32729 c -0.26775,-0.18001 -0.62361,-0.47013 -0.79077,-0.64472 -0.1698,-0.17732 -0.42204,-0.34104 -0.5715,-0.37094 -0.26648,-0.0533 -0.26756,-0.0557 -0.26756,-0.58938 v -0.53587 l -0.39184,-0.29919 c -0.21551,-0.16456 -0.60464,-0.39986 -0.86475,-0.52292 -0.2601,-0.12304 -0.66034,-0.35265 -0.88942,-0.51023 -0.22909,-0.15758 -0.51623,-0.3082 -0.63809,-0.33471 -0.40427,-0.0879 -0.44059,-0.11452 -0.53646,-0.39276 -0.31107,-0.90286 -1.24657,-2.33172 -1.98652,-3.03421 -0.84654,-0.80367 -0.91416,-0.8404 -1.54722,-0.8404 h -0.57597 l -0.30487,-0.37206 c -0.16768,-0.20463 -0.50564,-0.69739 -0.75103,-1.09501 -0.24539,-0.39763 -0.59057,-0.8779 -0.76708,-1.06729 -0.30224,-0.32428 -0.34903,-0.34442 -0.80433,-0.34614 -0.46136,-0.002 -0.48921,-0.0143 -0.61042,-0.27517 -0.0835,-0.17968 -0.22105,-0.30373 -0.40149,-0.36206 -0.30078,-0.0972 -0.52295,-0.33637 -0.52715,-0.56744 -0.002,-0.0973 -0.0694,-0.14817 -0.19694,-0.14817 -0.14551,0 -0.32798,-0.18056 -0.72727,-0.71966 -0.52141,-0.70402 -0.54074,-0.71967 -0.88814,-0.71967 -0.31646,0 -0.40318,-0.0487 -0.7964,-0.44683 -0.34713,-0.35148 -0.46369,-0.54117 -0.54631,-0.889 l -0.10504,-0.44217 h -0.86897 c -0.80553,0 -0.86896,-0.0121 -0.86896,-0.16535 0,-0.42862 -0.41145,-0.85065 -0.82934,-0.85065 -0.24244,0 -0.46679,-0.30267 -0.52004,-0.70155 -0.0471,-0.35274 -0.0521,-0.35729 -0.44017,-0.40195 -0.53172,-0.0612 -0.66578,-0.19054 -0.66578,-0.64253 v -0.37064 h -0.508 -0.508 v -0.33866 c 0,-0.33785 -8.5e-4,-0.33867 -0.33382,-0.33867 -0.18361,0 -0.4624,-0.0759 -0.61954,-0.16857 -0.42843,-0.25278 -1.15089,-0.48087 -1.73951,-0.54918 l -0.52446,-0.0609 v -0.33036 -0.33035 h -0.84263 -0.84263 l -0.0252,-0.52917 -0.0252,-0.52916 -0.35983,-0.026 -0.35984,-0.026 v -0.50312 -0.50313 h -1.397 -1.397 v -0.33867 -0.33866 h -0.889 -0.889 v -0.55034 -0.55033 h -0.508 -0.508 v -0.508 -0.508 h -1.2073 c -1.1156,0 -1.21533,-0.0129 -1.31305,-0.16933 -0.0937,-0.15002 -0.19745,-0.16934 -0.90937,-0.16934 h -0.80361 v -0.71966 -0.71967 h -1.0543 -1.05429 l -0.0252,-0.52917 -0.0252,-0.52916 -1.01789,-0.0423 c -0.97284,-0.0405 -1.03614,-0.0544 -1.43034,-0.31596 -0.22684,-0.15048 -0.54984,-0.29592 -0.71777,-0.32321 -0.16794,-0.0273 -0.74909,-0.23508 -1.29146,-0.46178 -2.35944,-0.98621 -5.16954,-1.807 -7.66319,-2.23831 -1.58674,-0.27444 -4.75537,-0.99622 -8.22688,-1.87399 l -2.82153,-0.71342 h -2.82997 -2.82997 v -0.55033 -0.55034 l -2.05317,0.009 -2.05316,0.009 0.77967,0.1137 c 1.05542,0.15391 1.26185,0.21521 3.11499,0.92501 1.69762,0.65023 3.167,1.14443 3.40268,1.14443 0.0776,0 0.23927,0.11772 0.35938,0.2616 0.27829,0.33334 0.64746,0.40722 2.05878,0.41204 l 1.0795,0.004 v 0.33867 0.33867 h 0.889 0.889 v 0.33866 0.33867 h 0.67329 0.6733 l 0.0252,0.52917 0.0252,0.52916 0.762,0.0452 c 0.80863,0.048 1.08177,0.16394 1.75065,0.74295 0.15474,0.13395 0.46719,0.2894 0.69433,0.34545 0.22715,0.056 0.54017,0.19891 0.69562,0.31748 0.255,0.1945 0.945,0.35457 1.57956,0.36643 0.12434,0.002 0.14817,0.0845 0.14817,0.51077 v 0.508 h 0.50458 0.50457 l 0.0246,0.6985 0.0246,0.6985 0.35984,0.026 c 0.28419,0.0206 0.35983,0.0589 0.35983,0.18257 0,0.13976 0.0898,0.15965 0.83798,0.18563 0.96579,0.0335 1.16243,0.14039 1.24846,0.67838 0.0495,0.30957 0.0665,0.32439 0.37122,0.32439 0.28012,0 0.3731,0.0588 0.75693,0.47879 0.24067,0.26333 0.58385,0.69195 0.76262,0.9525 0.45434,0.66216 3.09174,3.24743 3.54593,3.47583 0.29897,0.15036 1.28263,0.41905 1.55736,0.4254 0.0349,8.5e-4 0.0635,0.24344 0.0635,0.53918 0,0.78856 0.11283,1.02961 0.63967,1.36663 0.24825,0.1588 0.60592,0.42837 0.79484,0.59905 0.32746,0.29584 0.34349,0.33357 0.34349,0.80847 v 0.49815 h 0.33867 0.33866 v 0.67334 c 0,0.37035 0.0442,0.7704 0.0983,0.889 0.0856,0.18785 0.15109,0.21566 0.508,0.21566 h 0.40974 v 0.71966 0.71967 h 0.55034 c 0.49388,0 0.55033,0.0174 0.55033,0.16933 0,0.15052 0.0565,0.16934 0.508,0.16934 h 0.508 v 0.889 0.889 h 0.381 0.381 v 0.508 0.508 h 0.50595 0.50595 l 0.0232,1.41816 0.0232,1.41817 0.48684,0.0254 0.48683,0.0254 v 0.67311 c 0,0.66153 0.004,0.67311 0.21167,0.67311 0.20407,0 0.21166,0.0198 0.21166,0.55033 v 0.55033 h 0.508 0.508 v 1.397 1.397 h 0.55034 0.55033 v 0.63837 c 0,0.64869 0.11775,1.00622 0.51906,1.57604 0.13431,0.19072 0.15827,0.38616 0.15827,1.29117 v 1.06642 h 0.508 0.508 v 2.0595 c 0,1.9673 0.009,2.08702 0.20896,2.67388 0.27754,0.81599 0.59827,2.28005 0.76221,3.47929 0.0732,0.53552 0.24485,1.54517 0.38143,2.24367 0.30629,1.56647 0.62662,3.78663 0.81109,5.62162 0.10539,1.04828 0.12881,1.8777 0.0956,3.38667 -0.0936,4.25676 -0.31819,7.41973 -0.55872,7.86915 -0.0476,0.0889 -0.18788,0.49979 -0.3118,0.9131 -0.18866,0.62929 -0.23543,0.99233 -0.28769,2.23312 -0.0582,1.38218 -0.0862,1.56695 -0.41733,2.75167 -0.55509,1.9862 -1.78554,5.59127 -2.543,7.45067 -0.75296,1.84837 -0.90863,2.26225 -0.97128,2.58233 -0.0407,0.20806 -0.37929,0.7617 -0.72934,1.19267 -0.0978,0.12044 -0.19889,0.37559 -0.22456,0.56698 -0.0365,0.27204 -0.086,0.3536 -0.22663,0.37368 -0.17395,0.0248 -0.18074,0.0716 -0.20322,1.4015 l -0.0233,1.37584 h -0.50591 -0.5059 v 0.889 0.889 h -0.50179 -0.5018 l -0.21514,0.46991 c -0.11832,0.25847 -0.29256,0.57867 -0.3872,0.71158 -0.12774,0.17938 -0.17207,0.37462 -0.17207,0.75775 v 0.51609 h -0.508 -0.508 v 0.55033 0.55034 h -0.55033 -0.55034 v 0.36273 c 0,0.32729 -0.0453,0.40745 -0.46374,0.8207 -0.51917,0.51272 -0.89092,1.18704 -0.89092,1.61603 0,0.29871 -0.0259,0.33545 -0.77769,1.10457 -0.37494,0.38357 -0.54856,0.49524 -0.90167,0.57995 -0.42985,0.10312 -0.43731,0.1103 -0.43731,0.42113 0,0.28744 -0.0906,0.41218 -0.99483,1.37033 -0.54716,0.57975 -1.19654,1.30794 -1.44307,1.61819 -0.24653,0.31025 -0.62902,0.6968 -0.84997,0.859 -0.86116,0.63215 -1.60025,1.56874 -1.8733,2.37392 l -0.14598,0.43045 -0.52101,0.0252 -0.521,0.0252 -0.34224,0.50397 -0.34224,0.50397 h -0.54719 c -0.48386,0 -0.54717,0.0189 -0.54717,0.16319 0,0.22236 -0.36013,0.48858 -0.75005,0.55446 -0.27647,0.0467 -0.34759,0.10757 -0.50551,0.43261 -0.10107,0.20806 -0.18377,0.42955 -0.18377,0.49223 0,0.0751 -0.14648,0.12804 -0.42965,0.15525 -0.5956,0.0572 -0.87556,0.282 -0.90872,0.72956 -0.0209,0.28252 -0.0583,0.35137 -0.1905,0.35137 -0.13544,0 -0.16447,0.0598 -0.16447,0.33866 v 0.33867 h -1.22766 -1.22767 v 0.33867 0.33866 h -0.889 -0.889 v 0.71967 0.71967 h -1.05833 -1.05834 v 0.33866 0.33867 h -0.71966 -0.71967 v 0.54127 c 0,0.43669 -0.0286,0.55263 -0.14817,0.60001 -2.2497,0.89171 -5.30529,1.65272 -6.63599,1.65272 -0.38361,0 -0.61625,0.0573 -0.98642,0.24283 -0.26643,0.13356 -0.83205,0.38121 -1.25692,0.55034 -0.73939,0.29431 -0.81661,0.3075 -1.80159,0.3075 -0.75537,0 -1.3043,0.0553 -2.06383,0.2079 -1.48385,0.29816 -2.53563,0.38483 -4.66322,0.38428 -4.26498,-10e-4 -9.51095,-0.78519 -13.31829,-1.99064 l -1.19876,-0.37954 h -1.53174 -1.531739 v -0.508 -0.508 h -1.22363 -1.22362 l -0.0252,-0.52917 -0.0252,-0.52917 -0.86783,-0.0241 -0.86783,-0.0241 v -0.3357 -0.3357 h -0.71967 -0.71967 v -0.71967 -0.71967 h -0.87982 c -0.87388,0 -0.88018,-10e-4 -0.93434,-0.21724 -0.0798,-0.31776 -0.49989,-0.46009 -1.35812,-0.46009 h -0.72238 v -0.33867 -0.33866 h -0.508 -0.508 v -0.53985 -0.53985 l -0.46436,-0.0385 c -0.5445,-0.0452 -0.76547,-0.20971 -0.90444,-0.67358 -0.0909,-0.30346 -0.11879,-0.32488 -0.4226,-0.32488 h -0.32527 v -0.381 -0.381 h -0.53182 -0.53181 l -0.5027,-0.508 -0.5027,-0.508 h -0.52778 -0.52778 l -0.0252,-0.52917 -0.0252,-0.52916 -0.64691,-0.33867 c -0.3558,-0.18627 -0.83621,-0.51615 -1.06759,-0.73308 -0.23739,-0.22257 -0.71997,-0.53612 -1.10762,-0.71966 l -0.68695,-0.32526 -0.002,-0.52112 -0.002,-0.52113 -0.40217,-0.23092 c -0.61736,-0.3545 -1.57566,-1.09055 -2.12005,-1.62836 -0.58628,-0.57919 -1.1713,-1.55468 -1.67573,-2.79421 l -0.36961,-0.90826 -0.340888,-0.026 -0.340885,-0.026 v -0.54546 c 0,-0.54447 -8.47e-4,-0.54547 -0.243637,-0.54547 -0.338294,0 -0.442028,-0.16364 -0.49447,-0.78 -0.05395,-0.63423 -0.22866,-0.87028 -0.699889,-0.94563 -0.275421,-0.044 -0.335111,-0.0913 -0.381449,-0.30231 -0.08892,-0.40491 -0.356463,-0.67533 -0.726685,-0.73453 l -0.332537,-0.0532 V 255.663 c 0,-0.51206 -0.0076,-0.53045 -0.23799,-0.57653 -0.300033,-0.06 -0.438404,-0.35095 -0.442324,-0.93005 l -0.003,-0.44052 -0.56852,-0.381 c -0.409151,-0.27419 -0.615992,-0.47949 -0.737853,-0.73234 -0.09313,-0.19324 -0.236008,-0.42484 -0.3175,-0.51467 -0.08149,-0.0898 -0.148167,-0.20452 -0.148167,-0.25488 0,-0.0504 -0.147887,-0.27866 -0.328633,-0.50732 -0.249953,-0.31622 -0.343721,-0.52581 -0.391643,-0.87544 -0.03466,-0.25282 -0.11496,-0.63113 -0.178452,-0.84068 -0.06349,-0.20955 -0.115849,-0.71437 -0.116357,-1.12183 l -9.57e-4,-0.74087 h -0.550333 -0.550334 v -0.86909 c 0,-0.97356 -0.08588,-1.21526 -0.688119,-1.93666 l -0.327881,-0.39275 v -1.02542 -1.02541 h -0.337049 c -0.371204,0 -0.364888,0.0108 -0.470611,-0.80434 -0.0302,-0.23283 -0.180789,-0.80433 -0.334645,-1.27 -0.360841,-1.09215 -0.435526,-1.46675 -0.562306,-2.82035 l -0.10458,-1.11665 h -0.492404 -0.492405 v -3.99205 -3.99207 l -0.216966,-0.44346 c -0.399102,-0.81574 -0.4646,-1.53553 -0.517805,-5.69058 l -0.04906,-3.83117 h 0.391914 0.391913 v -3.78189 -3.78189 l 0.430217,-1.57328 c 0.236618,-0.8653 0.640021,-2.22097 0.896459,-3.01261 0.25643,-0.79163 0.689873,-2.18175 0.963211,-3.08914 0.273329,-0.90739 0.527151,-1.66002 0.564041,-1.6725 0.03689,-0.0125 0.188823,-0.0969 0.337642,-0.18765 0.459147,-0.27992 0.571457,-0.5412 0.61843,-1.43861 l 0.04233,-0.80876 0.517525,-0.0249 0.517516,-0.0249 0.04656,-0.94876 c 0.0256,-0.52183 0.106629,-1.13927 0.18006,-1.3721 0.07585,-0.24049 0.1339,-0.72355 0.134425,-1.11841 l 9.32e-4,-0.69507 0.6985,-0.0246 0.6985,-0.0246 0.0252,-0.52917 0.0252,-0.52917 h 0.493082 0.493082 l 0.03886,-0.67127 c 0.02557,-0.44167 0.08741,-0.7385 0.180797,-0.86783 0.07806,-0.10811 0.207306,-0.28855 0.287215,-0.40099 0.09576,-0.13474 0.160494,-0.43777 0.189916,-0.889 l 0.04464,-0.68457 0.529166,-0.0252 0.529167,-0.0252 v -0.50406 -0.50396 h 0.508 c 0.453229,0 0.508,-0.0184 0.508,-0.17103 0,-0.0941 0.17145,-0.5124 0.381,-0.92964 0.309271,-0.61579 0.381,-0.84373 0.381,-1.2107 0,-0.42874 0.0142,-0.45832 0.275167,-0.57318 0.202362,-0.0891 0.304397,-0.21072 0.385637,-0.45978 0.19181,-0.58804 0.79722,-1.08983 1.43861,-1.1924 l 0.35592,-0.0569 v -0.51905 -0.51906 l 1.88383,-1.86855 c 1.03611,-1.02771 2.11554,-2.06382 2.39872,-2.30247 0.28319,-0.23864 0.62174,-0.5881 0.75235,-0.77657 0.23539,-0.33966 0.24217,-0.34266 0.77628,-0.34266 0.48589,0 0.53882,-0.017 0.53882,-0.1727 0,-0.25772 0.27684,-0.75054 0.67584,-1.20313 0.35365,-0.40114 0.35594,-0.40217 0.89769,-0.40217 h 0.54314 v -0.508 -0.508 h 0.51221 c 0.32469,0 0.61139,-0.0536 0.78316,-0.14647 0.14902,-0.0806 0.53766,-0.16629 0.86363,-0.1905 l 0.59267,-0.044 0.0246,-0.6985 c 0.0221,-0.62889 0.0411,-0.6985 0.1905,-0.6985 0.14634,0 0.16592,-0.0599 0.16592,-0.508 v -0.508 h 0.46847 c 0.3323,0 0.59032,-0.0617 0.88758,-0.21237 0.52544,-0.26626 1.13598,-0.42659 1.92478,-0.50545 l 0.61383,-0.0614 v -0.49941 -0.4994 h 0.508 0.508 v -0.55034 -0.55033 h 1.22767 1.22767 v -0.33867 -0.33866 h 0.889 0.889 v -0.33867 -0.33867 h 1.08276 c 0.91561,0 1.13404,-0.0261 1.414899,-0.16933 0.18268,-0.0931 0.38626,-0.16933 0.45241,-0.16933 0.0661,0 0.25811,-0.0857 0.4266,-0.1905 0.28191,-0.17532 0.4261,-0.19285 1.80916,-0.21989 l 1.50283,-0.0294 v -0.49977 -0.49978 h 0.87864 c 0.66351,0 0.90353,-0.03 0.98033,-0.12255 0.0559,-0.0674 0.26703,-0.18568 0.4691,-0.26285 0.29893,-0.11416 0.42183,-0.12235 0.65946,-0.0439 0.21434,0.0707 0.40208,0.0718 0.70544,0.004 0.40577,-0.0906 1.07411,-0.42694 1.17598,-0.59177 0.0336,-0.0544 -0.80966,-0.0837 -2.40862,-0.0837 h -2.46033 v 0.5374 0.53742 l -1.00524,0.0505 c -0.55289,0.0278 -1.47681,0.1075 -2.05316,0.17711 -0.57636,0.0696 -1.524179,0.16765 -2.106259,0.21787 -0.58209,0.0502 -1.47744,0.19358 -1.98967,0.31858 -0.8422,0.20552 -1.11524,0.23011 -2.85284,0.2569 l -1.92152,0.0296 -0.0258,0.35545 -0.0258,0.35544 -2.0955,0.0226 -2.0955,0.0226 v 0.33719 0.33719 h -0.889 -0.889 v 0.33866 0.33867 h -2.11667 -2.11667 v 0.55033 0.55034 l -0.61383,0.001 c -1.01869,0.002 -1.96548,0.29121 -2.66135,0.81275 -0.18091,0.13558 -0.38271,0.20199 -0.61383,0.20199 h -0.34432 v 0.33867 0.33867 h -1.397 -1.397 v 0.55033 0.55033 h -0.426052 c -0.615899,0 -0.900582,0.1541 -1.54095,0.83407 l -0.570001,0.60527 h -0.848166 c -0.791718,0 -0.848165,0.0113 -0.848165,0.16933 0,0.16154 -0.05645,0.16933 -1.227667,0.16933 h -1.227666 v 0.508 c 0,0.45156 -0.01881,0.508 -0.169334,0.508 -0.151968,0 -0.169333,0.0564 -0.169333,0.55034 v 0.55033 H 66.724094 65.28476 v 0.33867 0.33866 h -1.016 -1.016 v 0.50776 c 0,0.4631 -0.02653,0.53713 -0.301718,0.84172 -0.353779,0.39159 -0.850934,0.64801 -1.412782,0.72868 -0.400888,0.0576 -0.402166,0.0588 -0.402166,0.38679 v 0.32905 h -1.054153 -1.053465 l -0.02604,0.35984 -0.02603,0.35983 -0.529167,0.0252 -0.529167,0.0252 v 0.33463 0.33463 h -0.889 -0.889 v 0.508 0.508 h -0.677333 -0.677334 v 0.36624 c 0,0.44879 -0.226568,0.68891 -0.719666,0.76269 -0.407823,0.061 -0.719667,0.38101 -0.719667,0.73846 0,0.23437 -0.02024,0.24927 -0.338667,0.24927 -0.318956,0 -0.338666,0.0146 -0.338666,0.25102 0,0.29308 -0.131598,0.38078 -0.693649,0.46229 -0.312589,0.0453 -0.45488,0.12318 -0.6673,0.36512 -0.373287,0.42514 -0.657098,1.07412 -0.722503,1.65207 l -0.05508,0.48684 h -0.37344 c -0.206349,0 -0.521944,0.0758 -0.705358,0.16933 -0.228142,0.11639 -0.499008,0.16933 -0.866326,0.16933 h -0.534416 l -0.693132,0.6985 c -0.724408,0.73002 -0.898313,1.02508 -0.998017,1.69334 l -0.06,0.40216 -0.519549,0.002 c -0.507356,0.002 -0.525077,0.01 -0.7546,0.3341 -0.129277,0.18276 -0.486139,0.55342 -0.79303,0.82369 -0.306891,0.27027 -0.696426,0.64325 -0.865624,0.82885 -0.949274,1.04126 -1.574089,1.65924 -2.254969,2.2303 -0.775302,0.65025 -2.677017,1.93775 -3.694143,2.50101 l -0.561475,0.31094 -0.03506,0.80162 c -0.02775,0.63469 -0.0706,0.84924 -0.205757,1.03026 -0.2879,0.38561 -0.570983,0.54199 -1.075376,0.59404 l -0.481855,0.0497 v 0.55222 c 0,0.87431 -0.366759,1.37983 -1.110903,1.53121 -0.284421,0.0579 -0.286241,0.0613 -0.311302,0.58421 l -0.02521,0.52601 h -0.503961 -0.503962 v 1.04082 1.04083 l -0.275166,0.081 c -0.204394,0.0602 -0.298272,0.15248 -0.36499,0.35891 -0.04941,0.15285 -0.325636,0.51582 -0.613833,0.80662 -0.326543,0.32946 -0.524011,0.59963 -0.524011,0.71692 0,0.17361 -0.03945,0.18822 -0.508,0.18822 h -0.508 v 0.49858 c 0,0.49654 -0.0011,0.49879 -0.278087,0.55075 -0.421065,0.079 -0.638311,0.27419 -0.743704,0.66824 -0.05248,0.19622 -0.164177,0.52822 -0.248209,0.73777 -0.08403,0.20955 -0.196071,0.5427 -0.248979,0.74034 -0.100008,0.37361 -0.398915,0.61432 -0.762813,0.61432 -0.157141,0 -0.173541,0.052 -0.173541,0.55034 0,0.48313 -0.01953,0.55033 -0.159952,0.55033 -0.318592,0 -0.536643,0.28045 -0.581567,0.74798 -0.0233,0.24248 -0.0834,0.46625 -0.13357,0.49725 -0.05017,0.031 -0.340521,0.0778 -0.645228,0.10407 l -0.554016,0.0477 -0.02266,0.71967 c -0.02692,0.85534 -0.145314,1.016 -0.748724,1.016 h -0.371619 v 1.22279 1.2228 l -0.353255,0.026 c -0.308915,0.0228 -0.363212,0.0579 -0.432579,0.28004 -0.326399,1.04511 -1.311512,3.28782 -2.439848,5.55456 -1.419259,2.85117 -2.269414,4.35237 -3.216444,5.67956 l -0.585208,0.82013 v 1.737 1.737 l -0.529167,0.0252 -0.529166,0.0252 -0.02373,1.03221 -0.02373,1.03221 -0.314934,0.0261 -0.314934,0.0261 -0.02288,1.75684 -0.02289,1.75683 H 14.99036 14.653411 v 1.75936 1.75937 l -0.688806,2.24113 c -0.378843,1.23262 -0.738607,2.49122 -0.799477,2.79687 -0.119759,0.60136 -0.287432,2.33006 -0.288844,2.97797 -8.46e-4,0.37399 0.01797,0.4089 0.278534,0.51777 0.393446,0.1644 1.122325,1.01248 1.429701,1.66353 0.142904,0.30268 0.369265,0.65296 0.503025,0.77839 0.230938,0.21656 0.2432,0.26442 0.2432,0.94924 v 0.72117 l 0.345167,0.093 c 0.189843,0.0511 0.589342,0.26011 0.887778,0.46443 0.377356,0.25835 0.697701,0.40199 1.051836,0.47166 l 0.509219,0.10019 6.8e-5,0.30648 c 7.6e-5,0.33468 0.359799,1.16257 0.750341,1.72685 0.400228,0.57829 0.845448,0.97068 1.572591,1.386 1.098355,0.62734 1.522289,1.0019 2.32139,2.05099 0.772287,1.01389 1.775985,2.49542 2.190115,3.23277 l 0.235162,0.41871 0.848995,8e-5 c 0.949571,0 1.195967,0.097 1.240968,0.48785 0.02045,0.17758 0.152459,0.31619 0.56355,0.59174 0.295266,0.19791 0.606238,0.35983 0.691057,0.35983 0.115562,0 0.169258,0.0902 0.214249,0.35984 0.04737,0.28389 0.147507,0.44055 0.474506,0.74234 0.264922,0.24449 0.445948,0.49653 0.501718,0.6985 l 0.08725,0.31599 h 0.504021 c 0.426542,0 0.50402,0.0231 0.50402,0.15049 0,0.0828 0.05931,0.23517 0.131801,0.33867 0.119253,0.17026 0.20287,0.18817 0.87818,0.18817 h 0.746379 l 0.05557,0.34756 c 0.06861,0.42904 0.22788,0.75066 0.655997,1.32461 l 0.331555,0.4445 h 0.54759 0.54759 v 0.33867 c 0,0.28523 0.02745,0.33866 0.173982,0.33866 0.09568,0 0.398399,0.1524 0.672685,0.33867 0.392811,0.26675 0.576902,0.33867 0.866936,0.33867 0.363838,0 0.374574,0.009 0.901243,0.71966 l 0.53301,0.71967 h 0.542739 0.542739 v 0.33867 0.33866 h 0.508 0.508 v 0.55034 0.55033 h 0.550333 0.550333 v 0.508 0.508 h 0.672465 0.672465 l 0.02603,0.35983 0.02604,0.35984 1.037167,0.0238 1.037167,0.0238 v 0.49285 0.49284 l 0.685749,0.0529 c 0.377164,0.0291 0.802123,0.11094 0.944346,0.18189 0.142224,0.071 0.460469,0.129 0.707204,0.129 h 0.448623 l 0.02521,0.52916 0.0252,0.52917 1.248833,0.0234 1.248834,0.0234 v 0.50573 0.50574 h 0.338666 0.338667 v 0.381 0.381 h 1.397 1.397 v 0.508 0.508 h 0.719667 0.719666 v 0.50567 0.50568 l 1.206501,0.0235 1.2065,0.0235 0.0252,0.52916 0.0252,0.52917 h 0.884961 0.884962 v 0.33606 0.33606 l 1.037167,0.0238 1.037166,0.0238 0.02603,0.35983 0.02604,0.35983 h 0.92042 c 0.91396,0 1.105848,0.0543 1.201132,0.34021 0.05739,0.17216 0.711573,0.32973 1.384292,0.33341 l 0.679247,0.004 0.164236,0.30497 c 0.40706,0.75587 1.143373,1.13437 2.206769,1.13437 h 0.461501 v 0.508 0.508 h 1.735667 1.735666 v 0.33866 0.33867 h 1.778001 1.777997 v 0.55033 0.55034 h 0.889 0.889 v 0.508 0.508 h 2.45533 c 2.39889,0 2.45534,0.004 2.45534,0.16933 0,0.16155 0.0564,0.16933 1.22767,0.16933 h 1.22766 v 0.55034 0.55033 h 2.62467 2.62467 v 0.49688 0.49689 l 3.2385,0.0472 c 3.36187,0.049 4.30873,0.12758 5.99016,0.49684 0.44239,0.0971 1.318689,0.20224 1.947339,0.23352 1.13439,0.0565 1.15192,0.0604 2.32833,0.52996 l 1.18533,0.47308 12.04384,0.01 12.04383,0.01 v -0.49791 z"
       id="path2575" />
  </g>
  <path
     sodipodi:type="star"
     style="fill:#000000;stroke:#000000;stroke-width:0.062054"
     id="path833"
     sodipodi:sides="4"
     sodipodi:cx="183.84727"
     sodipodi:cy="316.34009"
     sodipodi:r1="48.937283"
     sodipodi:r2="24.468645"
     sodipodi:arg1="1.5816655"
     sodipodi:arg2="2.3670636"
     inkscape:flatsided="false"
     inkscape:rounded="0"
     inkscape:randomized="0"
     d="m 183.31538,365.27448 -16.95708,-31.82152 -31.44542,-17.64477 31.82153,-16.95708 17.64476,-31.44541 16.95708,31.82152 31.44542,17.64477 -31.82153,16.95707 z" />
  <path
     sodipodi:type="star"
     style="fill:#000000;stroke:#000000;stroke-width:0.0443772"
     id="path833-1"
     sodipodi:sides="4"
     sodipodi:cx="82.750671"
     sodipodi:cy="297.32721"
     sodipodi:r1="34.996933"
     sodipodi:r2="17.498468"
     sodipodi:arg1="1.5816655"
     sodipodi:arg2="2.3670636"
     inkscape:flatsided="false"
     inkscape:rounded="0"
     inkscape:randomized="0"
     d="m 82.370291,332.32208 -12.126658,-22.7568 -22.487827,-12.61845 22.756795,-12.12666 12.618451,-22.48783 12.126658,22.7568 22.48783,12.61845 -22.756798,12.12666 z" />
  <path
     sodipodi:type="star"
     style="fill:#000000;stroke:#000000;stroke-width:0.0443772"
     id="path833-1-5"
     sodipodi:sides="4"
     sodipodi:cx="286.75446"
     sodipodi:cy="296.32642"
     sodipodi:r1="34.996929"
     sodipodi:r2="17.498466"
     sodipodi:arg1="1.5816655"
     sodipodi:arg2="2.3670636"
     inkscape:flatsided="false"
     inkscape:rounded="0"
     inkscape:randomized="0"
     d="m 286.37408,331.32128 -12.12666,-22.75679 -22.48783,-12.61845 22.7568,-12.12666 12.61845,-22.48783 12.12665,22.7568 22.48783,12.61845 -22.75679,12.12665 z" />
</svg>
