<?xml version="1.0" encoding="UTF-8" standalone="no"?>
<svg
   xmlns:dc="http://purl.org/dc/elements/1.1/"
   xmlns:cc="http://creativecommons.org/ns#"
   xmlns:rdf="http://www.w3.org/1999/02/22-rdf-syntax-ns#"
   xmlns:svg="http://www.w3.org/2000/svg"
   xmlns="http://www.w3.org/2000/svg"
   width="95.645561mm"
   height="97.352623mm"
   viewBox="0 0 95.645561 97.352623"
   version="1.1"
   id="svg1437">
  <defs
     id="defs1431" />
  <metadata
     id="metadata1434">
    <rdf:RDF>
      <cc:Work
         rdf:about="">
        <dc:format>image/svg+xml</dc:format>
        <dc:type
           rdf:resource="http://purl.org/dc/dcmitype/StillImage" />
        <dc:title></dc:title>
      </cc:Work>
    </rdf:RDF>
  </metadata>
  <g
     id="layer1"
     transform="translate(-93.919737,-158.08369)">
    <path
       style="fill:#000000;stroke-width:0.0846667"
       d="m 124.04359,255.05312 c -0.20684,-0.21076 -0.51958,-0.48264 -0.69496,-0.60418 -0.211,-0.14622 -0.31889,-0.28635 -0.31889,-0.41416 0,-0.13921 -0.0887,-0.23654 -0.3175,-0.34832 -0.26015,-0.12712 -0.32242,-0.20657 -0.34474,-0.43983 -0.0187,-0.19593 -0.0781,-0.29799 -0.1905,-0.32737 -0.10363,-0.0271 -0.16326,-0.1164 -0.16326,-0.24448 0,-0.12293 -0.0496,-0.2018 -0.127,-0.2018 -0.0836,0 -0.127,-0.0837 -0.127,-0.24494 0,-0.13962 -0.0546,-0.26589 -0.127,-0.29367 -0.0699,-0.0268 -0.127,-0.12614 -0.127,-0.22073 0,-0.0946 -0.0381,-0.17199 -0.0847,-0.17199 -0.0466,0 -0.0847,-0.12432 -0.0847,-0.27626 0,-0.20527 -0.0489,-0.29773 -0.1905,-0.35983 -0.21534,-0.0945 -0.55045,-0.71016 -0.77485,-1.4236 -0.083,-0.264 -0.18556,-0.50137 -0.22782,-0.52749 -0.0423,-0.0261 -0.0768,-0.12144 -0.0768,-0.21182 0,-0.0904 -0.0571,-0.16434 -0.127,-0.16434 -0.0699,0 -0.127,-0.0731 -0.127,-0.16247 0,-0.17399 -0.25458,-0.70797 -0.35984,-0.75474 -0.0349,-0.0155 -0.0635,-0.13663 -0.0635,-0.26913 0,-0.13249 -0.0571,-0.29804 -0.127,-0.36789 -0.0713,-0.0713 -0.127,-0.2782 -0.127,-0.47172 0,-0.23705 -0.0366,-0.34471 -0.11712,-0.34471 -0.0644,0 -0.1422,-0.0667 -0.17285,-0.14817 -0.0306,-0.0815 -0.13029,-0.28152 -0.22141,-0.4445 -0.0911,-0.16298 -0.16574,-0.45381 -0.16582,-0.64629 -8e-5,-0.27869 -0.0346,-0.35897 -0.16946,-0.39424 -0.13748,-0.036 -0.16934,-0.11549 -0.16934,-0.42284 0,-0.23321 -0.0488,-0.41903 -0.127,-0.48396 -0.0699,-0.058 -0.127,-0.23409 -0.127,-0.39137 0,-0.19774 -0.0392,-0.28597 -0.127,-0.28597 -0.0699,0 -0.127,-0.0739 -0.127,-0.16433 0,-0.0904 -0.0381,-0.18789 -0.0847,-0.21667 -0.0466,-0.0288 -0.0847,-0.22152 -0.0847,-0.42833 0,-0.27778 -0.0332,-0.376 -0.127,-0.376 -0.0988,0 -0.127,-0.11289 -0.127,-0.508 0,-0.39511 -0.0282,-0.508 -0.127,-0.508 -0.0917,0 -0.127,-0.0941 -0.127,-0.33867 0,-0.28222 -0.0282,-0.33866 -0.16933,-0.33866 -0.15121,0 -0.1694,-0.0566 -0.16994,-0.52917 -3.4e-4,-0.29104 -0.0246,-0.78326 -0.0539,-1.09383 -0.0428,-0.45311 -0.0845,-0.5728 -0.21106,-0.6059 -0.13598,-0.0356 -0.15773,-0.12786 -0.15773,-0.66935 0,-0.4454 -0.0608,-0.80679 -0.20896,-1.24246 -0.44863,-1.31904 -0.63281,-2.42043 -0.69269,-4.14241 l -0.0564,-1.62288 h 0.21145 c 0.2505,0 0.33684,0.16053 0.58464,1.08695 0.0954,0.35679 0.2505,0.82016 0.34459,1.02971 0.0941,0.20955 0.18865,0.6096 0.21014,0.889 0.0215,0.2794 0.0925,0.6223 0.15781,0.762 0.0653,0.1397 0.15969,0.41432 0.20974,0.61026 0.1502,0.58815 0.27984,0.54534 0.21543,-0.0711 -0.0553,-0.52967 -0.0807,-0.97717 -0.17882,-3.15241 -0.0442,-0.97949 -0.0655,-1.09356 -0.21135,-1.13171 -0.15742,-0.0412 -0.16222,-0.18326 -0.16222,-4.80634 0,-4.69271 0.003,-4.76458 0.16934,-4.8082 0.16167,-0.0423 0.16933,-0.11548 0.16933,-1.61854 0,-1.3429 0.0187,-1.57426 0.127,-1.57426 0.10725,0 0.127,-0.19755 0.127,-1.27 0,-1.04765 0.0213,-1.27 0.12166,-1.27 0.0999,0 0.12779,-0.2687 0.156,-1.50283 0.0189,-0.82656 0.0767,-1.76954 0.12838,-2.0955 0.0517,-0.32597 0.13195,-0.99272 0.17828,-1.48167 0.0802,-0.84672 0.14996,-1.26644 0.52295,-3.14849 0.0894,-0.45109 0.19923,-1.42264 0.24407,-2.159 0.0448,-0.73637 0.13972,-1.52934 0.21085,-1.76218 0.0711,-0.23283 0.12972,-0.67865 0.13023,-0.9907 5.1e-4,-0.31205 0.0581,-0.78678 0.12791,-1.05495 0.0699,-0.26818 0.127,-0.68113 0.127,-0.91768 0,-0.23655 0.0571,-0.6495 0.127,-0.91768 0.0699,-0.26817 0.127,-0.65717 0.127,-0.86445 0,-0.20728 0.0381,-0.37687 0.0847,-0.37687 0.0502,0 0.0847,-0.31044 0.0847,-0.762 0,-0.62089 0.0235,-0.762 0.127,-0.762 0.104,0 0.127,-0.1461 0.127,-0.80688 0,-0.66131 0.0367,-0.89426 0.20352,-1.29117 0.11193,-0.26636 0.25054,-0.72393 0.30801,-1.01683 0.0712,-0.36259 0.16082,-0.572 0.28099,-0.65617 0.21808,-0.15275 0.47748,-0.16079 0.47748,-0.0148 0,0.15102 1.32231,0.31704 2.51403,0.31563 0.88399,-0.001 0.95656,0.0115 1.0795,0.18706 0.1496,0.21358 0.1751,0.66599 0.0449,0.79621 -0.0478,0.0478 -0.11026,0.28402 -0.13879,0.52493 -0.0285,0.24091 -0.0847,0.43802 -0.12475,0.43802 -0.0401,0 -0.0729,0.40005 -0.0729,0.889 0,0.73378 -0.0222,0.889 -0.127,0.889 -0.10442,0 -0.127,0.15052 -0.127,0.84667 v 0.84666 h -0.21167 -0.21167 v 1.27 c 0,1.07245 -0.0197,1.27 -0.127,1.27 -0.10986,0 -0.127,0.31986 -0.127,2.37067 0,1.67129 -0.0275,2.37067 -0.0934,2.37067 -0.0665,0 -0.0774,0.40752 -0.0379,1.41816 0.0305,0.78 0.0838,2.56117 0.11834,3.95817 0.0396,1.5983 0.10069,2.64966 0.1649,2.83578 0.0642,0.18618 0.10202,0.83712 0.10202,1.75683 v 1.46106 h 0.21167 0.21167 v 1.016 c 0,0.84666 0.0212,1.016 0.127,1.016 0.10866,0 0.127,0.24472 0.127,1.69448 0,0.93196 0.0356,1.76064 0.0791,1.8415 0.0938,0.17449 0.34545,1.87295 0.34476,2.32718 -2.6e-4,0.17463 -0.0399,0.3175 -0.088,0.3175 -0.0481,0 -0.27545,-0.0952 -0.50519,-0.21166 -0.22973,-0.11642 -0.43802,-0.21167 -0.46285,-0.21167 -0.10252,0 -0.0341,0.61073 0.12017,1.07196 0.30336,0.90721 0.57508,1.64399 0.62453,1.69345 0.12919,0.12918 0.49872,-0.0798 0.60938,-0.34467 0.0649,-0.15541 0.19577,-0.30289 0.29075,-0.32773 0.12686,-0.0332 0.17269,-0.11466 0.17269,-0.30708 0,-0.17638 0.0415,-0.26193 0.127,-0.26193 0.0699,0 0.127,-0.0572 0.127,-0.127 0,-0.0699 0.0572,-0.127 0.127,-0.127 0.0887,0 0.127,-0.0894 0.127,-0.29633 0,-0.18137 0.0413,-0.29634 0.10633,-0.29634 0.0585,0 0.15693,-0.1143 0.21877,-0.254 0.0618,-0.1397 0.14916,-0.254 0.19406,-0.254 0.12515,0 0.49115,-0.44791 0.49417,-0.60477 0.001,-0.0765 0.0598,-0.16104 0.12967,-0.18784 0.0699,-0.0268 0.127,-0.11113 0.127,-0.18738 0,-0.0762 0.0953,-0.21356 0.21167,-0.30513 0.11641,-0.0916 0.21166,-0.23942 0.21166,-0.32855 0,-0.10518 0.10401,-0.20551 0.29634,-0.28587 0.16298,-0.0681 0.29718,-0.17338 0.29821,-0.23397 0.001,-0.0606 0.0764,-0.2054 0.16745,-0.32182 0.0911,-0.11642 0.16642,-0.27928 0.16745,-0.36193 0.001,-0.085 0.10296,-0.18869 0.23457,-0.23872 0.30556,-0.11618 0.52922,-0.3239 0.52972,-0.49197 5.1e-4,-0.15892 0.48856,-0.71213 0.69981,-0.7932 0.086,-0.033 0.14645,-0.14557 0.14645,-0.27262 0,-0.15294 0.0621,-0.24002 0.21167,-0.29689 0.11642,-0.0443 0.21167,-0.13977 0.21167,-0.21223 0,-0.0725 0.0571,-0.15368 0.127,-0.18049 0.0699,-0.0268 0.127,-0.11495 0.127,-0.19589 0,-0.17214 0.21814,-0.38826 0.49542,-0.49084 0.13568,-0.0502 0.27097,-0.25255 0.44163,-0.66062 0.28244,-0.67532 0.60099,-1.00559 1.09937,-1.13979 l 0.34971,-0.0942 0.47937,0.49218 c 0.26365,0.2707 0.60631,0.60325 0.76147,0.739 0.15516,0.13574 0.33987,0.33497 0.41047,0.44272 0.0918,0.14003 0.24063,0.21097 0.52196,0.24873 0.33472,0.0449 0.41259,0.0927 0.5206,0.31928 0.0768,0.16108 0.20233,0.27715 0.3175,0.29351 0.10477,0.0149 0.1905,0.0754 0.1905,0.13457 0,0.14085 0.36569,0.30404 0.68131,0.30404 0.13751,0 0.25002,0.0364 0.25002,0.0808 0,0.0444 0.0952,0.17606 0.21167,0.29248 0.11641,0.11642 0.21166,0.26556 0.21166,0.33144 0,0.072 0.12224,0.1396 0.30684,0.16956 0.35605,0.0578 0.6245,0.26991 0.6245,0.49349 0,0.0954 0.0608,0.15621 0.15621,0.15621 0.0859,0 0.22559,0.0767 0.31038,0.17035 0.15077,0.16661 0.14663,0.17681 -0.18813,0.46335 -0.18827,0.16115 -0.42339,0.46549 -0.52248,0.67632 -0.0991,0.21082 -0.23714,0.38331 -0.30675,0.38331 -0.0741,0 -0.12754,0.0789 -0.12892,0.1905 -0.001,0.10478 -0.11559,0.30163 -0.254,0.43745 -0.1384,0.13581 -0.25229,0.28821 -0.25308,0.33866 -7.6e-4,0.0505 -0.17224,0.27382 -0.381,0.49637 -0.20876,0.22256 -0.37957,0.47973 -0.37957,0.5715 0,0.0918 -0.0323,0.16685 -0.0718,0.16685 -0.0395,0 -0.1393,0.14967 -0.22179,0.33259 -0.0938,0.20795 -0.24137,0.37044 -0.39386,0.4336 -0.18885,0.0782 -0.24388,0.15601 -0.24388,0.34475 0,0.20354 -0.0349,0.24373 -0.21167,0.24373 -0.12663,0 -0.21166,0.0484 -0.21166,0.1205 0,0.0663 -0.0952,0.23371 -0.21167,0.37206 -0.11642,0.13835 -0.21167,0.30485 -0.21167,0.36999 0,0.0651 -0.12269,0.15489 -0.27265,0.19944 -0.22644,0.0673 -0.291,0.14506 -0.38083,0.45881 -0.0772,0.26981 -0.24132,0.50574 -0.57401,0.82541 -0.25621,0.24619 -0.46584,0.48695 -0.46584,0.53503 0,0.0481 -0.0571,0.10934 -0.127,0.13614 -0.0699,0.0268 -0.127,0.10181 -0.127,0.16668 0,0.13846 -0.24859,0.40393 -0.45097,0.48159 -0.0779,0.0299 -0.1417,0.13177 -0.1417,0.22636 0,0.0946 -0.0524,0.17199 -0.11641,0.17199 -0.064,0 -0.13867,0.11124 -0.16586,0.24719 -0.0293,0.14674 -0.11966,0.26948 -0.22225,0.30204 -0.13373,0.0425 -0.17281,0.12706 -0.17281,0.37422 0,0.25463 -0.041,0.33807 -0.20247,0.41162 -0.19881,0.0906 -0.47486,0.52791 -0.47486,0.75227 0,0.0627 -0.0528,0.11399 -0.11736,0.11399 -0.0645,0 -0.18116,0.13448 -0.25916,0.29884 -0.078,0.16437 -0.21568,0.34498 -0.30598,0.40137 -0.0966,0.0603 -0.16417,0.19662 -0.16417,0.33116 0,0.12575 -0.0381,0.25219 -0.0847,0.28097 -0.0466,0.0288 -0.0847,0.12628 -0.0847,0.21666 0,0.0904 -0.0571,0.16434 -0.127,0.16434 -0.0699,0 -0.127,0.0572 -0.127,0.127 0,0.0699 -0.0572,0.127 -0.127,0.127 -0.0887,0 -0.127,0.0894 -0.127,0.29633 0,0.20696 -0.0383,0.29633 -0.127,0.29633 -0.0913,0 -0.127,0.0933 -0.127,0.33162 0,0.18238 -0.0286,0.34431 -0.0635,0.35983 -0.11697,0.052 -0.35984,0.58996 -0.35984,0.79708 0,0.14836 -0.0467,0.20481 -0.16933,0.20481 -0.13591,0 -0.16933,0.0564 -0.16933,0.28596 0,0.15729 -0.0572,0.3334 -0.127,0.39137 -0.0699,0.058 -0.127,0.17694 -0.127,0.26437 0,0.0874 -0.0381,0.15896 -0.0847,0.15896 -0.0466,0 -0.0847,0.12083 -0.0847,0.2685 0,0.14768 -0.0512,0.32865 -0.11386,0.40217 -0.15859,0.18617 -0.39414,0.8167 -0.39414,1.05507 0,0.10907 -0.11631,0.47977 -0.25847,0.82379 -0.14216,0.34401 -0.38839,1.07174 -0.54718,1.61718 -0.55743,1.91481 -0.74362,3.36759 -0.85647,6.68296 l -0.0566,1.66334 -0.24129,-0.0841 c -0.13272,-0.0463 -0.2413,-0.13478 -0.2413,-0.19669 0,-0.0619 -0.0953,-0.1875 -0.21167,-0.27907 -0.11641,-0.0916 -0.21166,-0.20832 -0.21166,-0.25942 0,-0.0511 -0.0762,-0.14052 -0.16934,-0.19869 -0.0931,-0.0582 -0.16933,-0.19183 -0.16933,-0.29704 0,-0.10679 -0.0519,-0.19131 -0.11758,-0.19131 -0.0673,0 -0.14128,-0.12637 -0.17297,-0.2953 -0.0305,-0.16242 -0.12743,-0.33386 -0.21547,-0.38097 -0.088,-0.0471 -0.17212,-0.19013 -0.18685,-0.31781 -0.0177,-0.15313 -0.0844,-0.24269 -0.19613,-0.26314 -0.26948,-0.0493 -0.37805,-0.18006 -0.47748,-0.57494 -0.0877,-0.34817 -0.2519,-0.47428 -0.36962,-0.2838 -0.029,0.047 0.004,0.38033 0.0731,0.74083 0.0692,0.3605 0.14769,0.89777 0.17443,1.19393 0.0267,0.29615 0.1224,0.86765 0.21257,1.27 0.0902,0.40234 0.18603,0.86774 0.21304,1.0342 0.027,0.16646 0.11674,0.37601 0.19939,0.46567 0.16196,0.17566 0.33585,0.90748 0.44109,1.85633 0.17265,1.55652 0.18912,1.82033 0.11365,1.82033 -0.0436,0 -0.24843,-0.17244 -0.45527,-0.38319 z m 64.1143,-18.40815 c -0.19883,-0.0323 -0.40648,-0.10378 -0.46143,-0.15874 -0.0549,-0.0549 -0.2593,-0.0999 -0.45411,-0.0999 -0.28299,0 -0.3631,-0.034 -0.39847,-0.16933 -0.0344,-0.13164 -0.1155,-0.16933 -0.36416,-0.16933 -0.46183,0 -1.30465,-0.25334 -1.30465,-0.39216 0,-0.0787 -0.10856,-0.11584 -0.33866,-0.11584 -0.18627,0 -0.33867,-0.0381 -0.33867,-0.0847 0,-0.0498 -0.29633,-0.0847 -0.71967,-0.0847 -0.58326,0 -0.71966,-0.0241 -0.71966,-0.127 0,-0.0911 -0.093,-0.127 -0.3288,-0.127 -0.25078,0 -0.33868,-0.0378 -0.37048,-0.15943 -0.0287,-0.10962 -0.1442,-0.17409 -0.36971,-0.20632 -0.57096,-0.0816 -1.37036,-0.26683 -1.436,-0.33275 -0.0348,-0.0349 -0.17019,-0.0635 -0.30092,-0.0635 -0.13073,0 -0.51491,-0.10988 -0.85373,-0.24418 -0.33881,-0.13429 -0.86368,-0.30951 -1.16636,-0.38935 -0.30269,-0.0799 -0.60749,-0.16744 -0.67734,-0.19465 -0.21222,-0.0827 -1.12059,-0.28174 -1.50283,-0.32937 -0.28129,-0.035 -0.35983,-0.0799 -0.35983,-0.20564 0,-0.13116 -0.0624,-0.16081 -0.33867,-0.16081 -0.24459,0 -0.33867,-0.0353 -0.33867,-0.127 0,-0.10151 -0.12644,-0.127 -0.63,-0.127 -0.3465,0 -0.65355,-0.0381 -0.68233,-0.0847 -0.0288,-0.0466 -0.12628,-0.0847 -0.21666,-0.0847 -0.0904,0 -0.16434,-0.0572 -0.16434,-0.127 0,-0.0917 -0.0941,-0.127 -0.33867,-0.127 -0.24459,0 -0.33866,-0.0353 -0.33866,-0.127 0,-0.0988 -0.11289,-0.127 -0.508,-0.127 -0.39511,0 -0.508,-0.0282 -0.508,-0.127 0,-0.0917 -0.0941,-0.127 -0.33867,-0.127 -0.18627,0 -0.33867,-0.0381 -0.33867,-0.0847 0,-0.0466 -0.1524,-0.0847 -0.33866,-0.0847 -0.23045,0 -0.33867,-0.0371 -0.33867,-0.11609 0,-0.0751 -0.14652,-0.13553 -0.4144,-0.17107 -0.22793,-0.0302 -0.46119,-0.11134 -0.51837,-0.18024 -0.0572,-0.0689 -0.20828,-0.12527 -0.33578,-0.12527 -0.1275,0 -0.37218,-0.0952 -0.54373,-0.21167 -0.17155,-0.11641 -0.42816,-0.21166 -0.57025,-0.21166 -0.14209,0 -0.369,-0.0572 -0.50424,-0.127 -0.13524,-0.0699 -0.35655,-0.18415 -0.49179,-0.254 -0.13525,-0.0699 -0.36504,-0.127 -0.51066,-0.127 -0.15724,0 -0.28455,-0.0516 -0.31349,-0.127 -0.0278,-0.0724 -0.15406,-0.127 -0.29368,-0.127 -0.13472,0 -0.24494,-0.0381 -0.24494,-0.0847 0,-0.0466 -0.14833,-0.0847 -0.32961,-0.0847 -0.21488,0 -0.34657,-0.0442 -0.37834,-0.127 -0.0268,-0.0699 -0.10118,-0.127 -0.16527,-0.127 -0.0641,0 -0.1855,-0.0762 -0.26978,-0.16933 -0.10263,-0.1134 -0.26077,-0.16933 -0.47879,-0.16933 -0.23293,0 -0.32555,-0.0361 -0.32555,-0.127 0,-0.079 -0.08,-0.127 -0.21166,-0.127 -0.11642,0 -0.21167,-0.0381 -0.21167,-0.0847 0,-0.0466 -0.14512,-0.0847 -0.32248,-0.0847 -0.17737,0 -0.39645,-0.0559 -0.48684,-0.1243 -0.0904,-0.0684 -0.23102,-0.12552 -0.31251,-0.127 -0.0815,-10e-4 -0.14817,-0.0598 -0.14817,-0.1297 0,-0.0917 -0.0941,-0.127 -0.33867,-0.127 -0.24459,0 -0.33866,-0.0353 -0.33866,-0.127 0,-0.0913 -0.0933,-0.127 -0.33161,-0.127 -0.18239,0 -0.34431,-0.0286 -0.35984,-0.0635 -0.0475,-0.10681 -0.85794,-0.36069 -1.15005,-0.36025 -0.21886,3.4e-4 -0.27517,-0.0342 -0.27517,-0.16891 0,-0.14111 -0.0564,-0.16934 -0.33867,-0.16934 -0.24459,0 -0.33866,-0.0353 -0.33866,-0.127 0,-0.0887 -0.0894,-0.127 -0.29634,-0.127 -0.16298,0 -0.29633,-0.0381 -0.29633,-0.0847 0,-0.0466 -0.1524,-0.0847 -0.33867,-0.0847 -0.24459,0 -0.33866,-0.0353 -0.33866,-0.127 0,-0.0847 -0.0847,-0.127 -0.254,-0.127 -0.16934,0 -0.254,-0.0423 -0.254,-0.127 0,-0.0941 -0.0988,-0.127 -0.381,-0.127 -0.28222,0 -0.381,-0.0329 -0.381,-0.127 0,-0.0699 -0.0739,-0.127 -0.16434,-0.127 -0.0904,0 -0.18788,-0.0381 -0.21666,-0.0847 -0.0288,-0.0466 -0.16438,-0.0847 -0.30133,-0.0847 -0.20916,0 -0.24901,-0.0339 -0.24901,-0.21167 0,-0.1905 -0.0339,-0.21167 -0.33866,-0.21167 -0.2446,0 -0.33867,-0.0353 -0.33867,-0.127 0,-0.0988 -0.11289,-0.127 -0.508,-0.127 -0.45155,0 -0.508,-0.0188 -0.508,-0.16933 0,-0.1218 -0.0564,-0.16933 -0.20108,-0.16933 -0.4148,0 -0.7157,-0.10456 -0.75716,-0.26309 -0.0297,-0.11365 -0.11806,-0.16025 -0.30383,-0.16025 -0.17638,0 -0.26193,-0.0415 -0.26193,-0.127 0,-0.0917 -0.0941,-0.127 -0.33867,-0.127 -0.24459,0 -0.33866,-0.0353 -0.33866,-0.127 0,-0.0887 -0.0894,-0.127 -0.29634,-0.127 -0.16298,0 -0.29633,-0.0381 -0.29633,-0.0847 0,-0.0466 -0.10963,-0.0847 -0.24363,-0.0847 -0.134,0 -0.29107,-0.0572 -0.34904,-0.127 -0.058,-0.0699 -0.19598,-0.127 -0.3067,-0.127 -0.12248,0 -0.2013,-0.0497 -0.2013,-0.127 0,-0.0855 -0.0855,-0.127 -0.26192,-0.127 -0.18632,0 -0.2741,-0.0465 -0.30409,-0.16121 -0.0351,-0.13434 -0.15276,-0.17099 -0.70586,-0.21996 -0.43392,-0.0384 -0.67886,-0.0982 -0.70747,-0.17278 -0.0241,-0.0627 -0.17911,-0.13943 -0.34454,-0.17047 -0.17312,-0.0325 -0.30078,-0.10633 -0.30078,-0.174 0,-0.0647 -0.0715,-0.11758 -0.15897,-0.11758 -0.0874,0 -0.2064,-0.0572 -0.26437,-0.127 -0.0643,-0.0775 -0.24987,-0.127 -0.47603,-0.127 -0.20385,0 -0.37063,-0.0381 -0.37063,-0.0847 0,-0.0466 -0.0952,-0.0847 -0.21167,-0.0847 -0.1317,0 -0.21167,-0.048 -0.21167,-0.127 0,-0.0879 -0.0883,-0.127 -0.28645,-0.127 -0.21526,0 -0.29747,-0.0421 -0.33074,-0.16934 -0.0244,-0.0931 -0.0969,-0.16933 -0.16131,-0.16933 -0.0644,0 -0.26649,-0.0762 -0.44916,-0.16933 -0.18268,-0.0931 -0.41933,-0.16934 -0.5259,-0.16934 -0.13732,0 -0.19377,-0.0493 -0.19377,-0.16933 0,-0.13591 -0.0564,-0.16933 -0.28597,-0.16933 -0.15728,0 -0.33339,-0.0572 -0.39136,-0.127 -0.058,-0.0699 -0.15789,-0.127 -0.22204,-0.127 -0.0641,0 -0.11663,-0.0572 -0.11663,-0.127 0,-0.0884 -0.089,-0.127 -0.29333,-0.127 -0.16133,0 -0.46394,-0.0952 -0.67246,-0.21167 -0.20852,-0.11642 -0.43403,-0.21167 -0.50113,-0.21167 -0.0671,0 -0.14192,-0.0762 -0.16628,-0.16933 -0.0311,-0.11906 -0.11576,-0.1695 -0.28504,-0.16989 -0.13242,-3.1e-4 -0.35506,-0.0763 -0.49476,-0.16878 -0.1397,-0.0925 -0.33382,-0.16846 -0.43138,-0.16877 -0.0976,-3.1e-4 -0.24633,-0.0768 -0.33062,-0.16989 -0.0843,-0.0931 -0.20449,-0.16934 -0.26712,-0.16934 -0.0626,0 -0.11388,-0.0572 -0.11388,-0.127 0,-0.0887 -0.0894,-0.127 -0.29633,-0.127 -0.20697,0 -0.29634,-0.0383 -0.29634,-0.127 0,-0.079 -0.08,-0.127 -0.21166,-0.127 -0.11642,0 -0.21167,-0.0381 -0.21167,-0.0847 0,-0.0466 -0.0572,-0.0847 -0.127,-0.0847 -0.0698,0 -0.127,-0.0571 -0.127,-0.127 0,-0.0917 -0.0941,-0.127 -0.33867,-0.127 -0.24459,0 -0.33866,-0.0353 -0.33866,-0.127 0,-0.0887 -0.0894,-0.127 -0.29634,-0.127 -0.23306,0 -0.29633,-0.0338 -0.29633,-0.1584 0,-0.13117 -0.0894,-0.16851 -0.52011,-0.21724 -0.51574,-0.0583 -0.82434,-0.25667 -0.83174,-0.53453 -0.002,-0.0582 -0.0981,-0.10583 -0.21448,-0.10583 -0.13171,0 -0.21167,-0.048 -0.21167,-0.127 0,-0.0887 -0.0894,-0.127 -0.29633,-0.127 -0.2362,0 -0.29634,-0.0331 -0.29634,-0.16324 0,-0.13404 -0.0819,-0.17348 -0.45809,-0.22048 -0.34986,-0.0437 -0.46802,-0.0952 -0.50008,-0.21776 -0.0243,-0.0931 -0.11642,-0.16052 -0.21923,-0.16052 -0.0975,0 -0.17726,-0.0354 -0.17726,-0.0787 0,-0.0433 -0.18098,-0.16712 -0.40217,-0.27516 -0.22119,-0.10804 -0.41487,-0.22502 -0.43039,-0.25994 -0.0155,-0.0349 -0.0775,-0.0635 -0.1378,-0.0635 -0.0603,0 -0.15701,-0.0572 -0.21498,-0.127 -0.058,-0.0699 -0.16931,-0.127 -0.24743,-0.127 -0.0781,0 -0.18827,-0.0462 -0.24478,-0.10275 -0.0565,-0.0565 -0.26415,-0.16221 -0.46143,-0.2349 -0.25486,-0.0939 -0.36652,-0.1867 -0.38574,-0.32058 -0.0195,-0.1357 -0.0846,-0.18844 -0.23284,-0.18844 -0.12647,0 -0.20578,-0.0489 -0.20578,-0.127 0,-0.0699 -0.0527,-0.127 -0.11712,-0.127 -0.0644,0 -0.13705,-0.0762 -0.16141,-0.16933 -0.0322,-0.1233 -0.11548,-0.16934 -0.30621,-0.16934 -0.16861,0 -0.26192,-0.0424 -0.26192,-0.11905 0,-0.0794 -0.14792,-0.1394 -0.4441,-0.18013 -0.28687,-0.0395 -0.4834,-0.11721 -0.55513,-0.21962 -0.0611,-0.0872 -0.181,-0.15853 -0.26652,-0.15853 -0.0855,0 -0.1774,-0.0572 -0.2042,-0.127 -0.0268,-0.0699 -0.11767,-0.127 -0.20191,-0.127 -0.0843,0 -0.21933,-0.0773 -0.30018,-0.17169 -0.0808,-0.0944 -0.26077,-0.19444 -0.39982,-0.22225 -0.13904,-0.0278 -0.25281,-0.0889 -0.25281,-0.13581 0,-0.0469 -0.12886,-0.20678 -0.28635,-0.35532 -0.29583,-0.27901 -0.5327,-0.67075 -0.64741,-1.07074 -0.0536,-0.18703 -0.0358,-0.23791 0.0952,-0.27218 0.0887,-0.0232 0.1612,-0.11464 0.1612,-0.20323 0,-0.0886 0.0559,-0.23504 0.12431,-0.32543 0.0684,-0.0904 0.12551,-0.23102 0.127,-0.31252 0.004,-0.22466 0.42602,-0.20369 0.42602,0.0212 0,0.1317 0.0565,0.16933 0.254,0.16933 0.16933,0 0.254,0.0423 0.254,0.127 0,0.079 0.08,0.127 0.21167,0.127 0.1317,0 0.21166,0.048 0.21166,0.127 0,0.0887 0.0894,0.127 0.29634,0.127 0.16298,0 0.29633,0.0381 0.29633,0.0847 0,0.0466 0.1524,0.0847 0.33867,0.0847 0.24459,0 0.33866,0.0353 0.33866,0.127 0,0.0917 0.0941,0.127 0.33867,0.127 0.24459,0 0.33867,0.0353 0.33867,0.127 0,0.0887 0.0894,0.127 0.29633,0.127 0.23231,0 0.29633,0.034 0.29633,0.15727 0,0.12902 0.0875,0.16656 0.48684,0.20898 0.26776,0.0284 0.63776,0.12911 0.82223,0.22372 0.18447,0.0946 0.40355,0.17203 0.48684,0.17203 0.0833,0 0.15143,0.0572 0.15143,0.127 0,0.0917 0.0941,0.127 0.33866,0.127 0.2446,0 0.33867,0.0353 0.33867,0.127 0,0.079 0.08,0.127 0.21167,0.127 0.11641,0 0.21166,0.0381 0.21166,0.0847 0,0.0466 0.15111,0.0847 0.3358,0.0847 0.38618,0 0.9342,0.2327 0.9342,0.39668 0,0.0782 0.13563,0.11132 0.4558,0.11132 0.37772,0 0.46304,0.0277 0.49815,0.16201 0.0328,0.1253 0.15014,0.17548 0.51788,0.22142 0.37365,0.0467 0.47551,0.0911 0.47551,0.20748 0,0.11121 0.0944,0.16101 0.37915,0.20004 0.424,0.0581 0.72151,0.21168 0.72151,0.37242 0,0.0587 0.0667,0.10784 0.14817,0.10932 0.0815,0.001 0.22212,0.0586 0.31252,0.127 0.0904,0.0684 0.23683,0.12431 0.32542,0.12431 0.0899,0 0.18066,0.0749 0.20536,0.16933 0.0348,0.13296 0.11549,0.16934 0.37573,0.16934 0.21652,0 0.34835,0.044 0.38019,0.127 0.0268,0.0698 0.1399,0.127 0.25134,0.127 0.12365,0 0.20261,0.0495 0.20261,0.127 0,0.0841 0.0841,0.127 0.249,0.127 0.13695,0 0.27255,0.0381 0.30133,0.0847 0.0288,0.0466 0.27868,0.0847 0.55533,0.0847 0.37682,0 0.503,0.03 0.503,0.11959 0,0.15788 0.89657,0.49481 3.52962,1.32642 1.39805,0.44155 2.36334,0.69881 2.79542,0.745 0.36298,0.0388 1.02191,0.17392 1.4643,0.30027 1.63337,0.46651 1.91358,0.54344 2.30838,0.63377 0.43362,0.0992 0.90895,0.12237 0.90895,0.0443 0,-0.0264 -0.0998,-0.17879 -0.22172,-0.33866 l -0.22171,-0.29069 0.28521,10e-4 c 0.15687,5.9e-4 0.49477,0.0573 0.75089,0.12599 0.25611,0.0688 0.62759,0.12545 0.8255,0.126 0.26296,7.6e-4 0.35983,0.0352 0.35983,0.128 0,0.0917 0.0941,0.127 0.33867,0.127 0.18626,0 0.33866,0.0343 0.33866,0.0761 0,0.0419 0.16193,0.0949 0.35984,0.11775 0.19791,0.0229 0.79798,0.19485 1.3335,0.38216 0.53551,0.18731 1.19761,0.36628 1.47132,0.3977 l 0.49765,0.0571 -0.0581,-0.30979 c -0.032,-0.17038 -0.079,-0.36423 -0.10454,-0.43078 -0.0576,-0.15019 0.37972,-0.16563 0.81891,-0.0289 0.16268,0.0506 0.75298,0.1214 1.31178,0.15724 0.81547,0.0523 1.11959,0.10965 1.54084,0.29054 0.40498,0.1739 0.77722,0.24825 1.62984,0.32552 0.97006,0.0879 1.10498,0.11873 1.10498,0.25238 0,0.12962 0.0755,0.15224 0.508,0.15224 0.39512,0 0.508,0.0282 0.508,0.127 0,0.0917 0.0941,0.127 0.33867,0.127 0.23326,0 0.33867,0.0368 0.33867,0.1181 0,0.12743 0.30707,0.19081 1.32594,0.27367 0.48981,0.0398 0.61401,0.0788 0.6465,0.20312 0.0759,0.29012 1.49889,0.4947 1.49889,0.21549 0,-0.13458 -0.18824,-0.3459 -0.41734,-0.46851 -0.11227,-0.0601 -0.16255,-0.22545 -0.19935,-0.65561 -0.0372,-0.43459 -0.12308,-0.71388 -0.35126,-1.14208 -0.16613,-0.31175 -0.30326,-0.6356 -0.30474,-0.71967 -0.001,-0.0841 -0.0586,-0.2268 -0.127,-0.3172 -0.0684,-0.0904 -0.12431,-0.23327 -0.12431,-0.3175 0,-0.0842 -0.0381,-0.15315 -0.0847,-0.15315 -0.0466,0 -0.0847,-0.1143 -0.0847,-0.254 0,-0.16933 -0.0423,-0.254 -0.127,-0.254 -0.0919,0 -0.127,-0.0944 -0.127,-0.34132 0,-0.2253 -0.0432,-0.35789 -0.127,-0.39006 -0.0699,-0.0268 -0.127,-0.1034 -0.127,-0.17022 0,-0.0668 -0.072,-0.19873 -0.15993,-0.29314 -0.17123,-0.18379 -0.26341,-0.52094 -0.26341,-0.96342 0,-0.15089 -0.0762,-0.37121 -0.16933,-0.48961 -0.0931,-0.1184 -0.16933,-0.27594 -0.16933,-0.35008 0,-0.0742 -0.0572,-0.13482 -0.127,-0.13482 -0.0917,0 -0.127,-0.0941 -0.127,-0.33866 0,-0.2446 -0.0353,-0.33867 -0.127,-0.33867 -0.0917,0 -0.127,-0.0941 -0.127,-0.33867 0,-0.18626 -0.0381,-0.33866 -0.0847,-0.33866 -0.0466,0 -0.0847,-0.13335 -0.0847,-0.29634 0,-0.20696 -0.0383,-0.29633 -0.127,-0.29633 -0.0705,0 -0.127,-0.0753 -0.127,-0.16933 0,-0.0941 -0.0564,-0.16934 -0.127,-0.16934 -0.0887,0 -0.127,-0.0894 -0.127,-0.29633 0,-0.23297 -0.0338,-0.29633 -0.15825,-0.29633 -0.16977,0 -0.26233,-0.33376 -0.26415,-0.9525 -7.6e-4,-0.26075 -0.0312,-0.3175 -0.17026,-0.3175 -0.13794,0 -0.16934,-0.0565 -0.16934,-0.30444 0,-0.33723 -0.23015,-0.79623 -0.39925,-0.79623 -0.0697,0 -0.10875,-0.11692 -0.10875,-0.32566 0,-0.31829 -0.18594,-0.80762 -0.34402,-0.90532 -0.0436,-0.027 -0.0793,-0.16106 -0.0793,-0.29802 0,-0.13695 -0.0397,-0.249 -0.0882,-0.249 -0.13153,0 -0.3912,-0.27161 -0.4533,-0.47415 -0.0431,-0.14055 0.0133,-0.22485 0.26921,-0.40217 0.17806,-0.12339 0.36899,-0.22435 0.4243,-0.22435 0.0553,0 0.14815,-0.0762 0.20632,-0.16933 0.0582,-0.0931 0.15373,-0.16933 0.21238,-0.16933 0.0587,0 0.10663,-0.0571 0.10663,-0.127 0,-0.0699 0.0703,-0.127 0.15621,-0.127 0.0859,0 0.22431,-0.0752 0.30753,-0.1672 0.19185,-0.212 0.80239,-0.51014 1.04466,-0.51014 0.15452,0 0.18494,-0.0482 0.18494,-0.29307 0,-0.27082 0.026,-0.30007 0.34253,-0.3853 0.23247,-0.0626 0.39209,-0.17374 0.49678,-0.3459 l 0.15427,-0.25366 0.28637,0.23595 c 0.15751,0.12977 0.33415,0.30013 0.39254,0.37857 0.29863,0.40123 1.1003,1.31372 1.24851,1.42111 0.41555,0.30109 1.22766,1.14527 1.22766,1.27614 0,0.0807 0.21473,0.29116 0.48684,0.47721 0.34428,0.23539 0.49423,0.3953 0.51209,0.54607 0.0151,0.12759 0.1219,0.2703 0.2659,0.35536 0.13235,0.0782 0.36308,0.33296 0.51273,0.56617 0.14965,0.23321 0.30708,0.42402 0.34983,0.42402 0.17018,0 0.84084,0.71529 0.9036,0.96374 0.0461,0.18246 0.15047,0.30131 0.33817,0.38504 0.19272,0.086 0.27151,0.1781 0.27151,0.3175 0,0.10801 0.0503,0.19639 0.1117,0.19639 0.0622,0 0.16275,0.18752 0.22697,0.42333 0.0966,0.35481 0.1474,0.42333 0.31373,0.42333 0.13378,0 0.22468,0.069 0.27893,0.21167 0.0443,0.11642 0.1149,0.21167 0.15697,0.21167 0.0421,0 0.12444,0.11575 0.18304,0.25723 0.0586,0.14148 0.17753,0.29522 0.26427,0.34165 0.0868,0.0464 0.15772,0.14022 0.15772,0.20843 0,0.0682 0.0572,0.12402 0.127,0.12402 0.0699,0 0.127,0.0671 0.127,0.14903 0,0.082 0.0953,0.25176 0.21167,0.37731 0.11642,0.12555 0.21167,0.28242 0.21167,0.3486 0,0.0662 0.0572,0.16776 0.127,0.22573 0.0699,0.058 0.127,0.16762 0.127,0.24367 0,0.076 0.13034,0.24695 0.28964,0.37978 0.23191,0.19336 0.301,0.32406 0.34661,0.65569 0.0455,0.33103 0.0894,0.41419 0.21836,0.41419 0.0888,0 0.16139,0.0572 0.16139,0.127 0,0.0699 0.0572,0.127 0.127,0.127 0.0705,0 0.127,0.0753 0.127,0.16933 0,0.0941 0.0564,0.16934 0.127,0.16934 0.0699,0 0.127,0.0513 0.127,0.11399 0,0.24995 0.29079,0.67661 0.52016,0.76318 0.13301,0.0502 0.24184,0.15447 0.24184,0.23169 0,0.0772 0.0522,0.18373 0.11602,0.23669 0.0638,0.053 0.13624,0.24708 0.16096,0.43137 0.0466,0.34745 0.36374,0.83488 0.54852,0.84306 0.0582,0.003 0.10583,0.063 0.10583,0.13434 0,0.0713 0.0571,0.15159 0.127,0.17839 0.0699,0.0268 0.127,0.13591 0.127,0.24246 0,0.10655 0.0946,0.28344 0.2102,0.39311 0.11561,0.10966 0.21086,0.28511 0.21167,0.38988 10e-4,0.13357 0.0521,0.1905 0.1708,0.1905 0.0941,0 0.16933,0.0565 0.16933,0.127 0,0.0699 0.0408,0.127 0.0907,0.127 0.15914,0 0.33262,0.235 0.33262,0.45056 0,0.11477 0.0572,0.23059 0.127,0.2574 0.0699,0.0268 0.127,0.12613 0.127,0.22072 0,0.0964 0.0558,0.17199 0.127,0.17199 0.0871,0 0.127,0.0873 0.127,0.27752 0,0.17007 0.0637,0.33207 0.16458,0.41843 0.0905,0.0775 0.19122,0.286 0.22377,0.46332 0.0685,0.37283 0.32434,0.66654 0.65242,0.74889 0.17948,0.0451 0.22923,0.10792 0.22923,0.28972 0,0.34219 0.16844,0.76545 0.30462,0.76545 0.0792,0 0.11872,0.0986 0.11872,0.29634 0,0.20696 0.0383,0.29633 0.127,0.29633 0.0705,0 0.127,0.0753 0.127,0.16933 0,0.0931 0.0476,0.16963 0.10583,0.17 0.15916,9.9e-4 0.3175,0.41021 0.3175,0.82055 0,0.29609 0.0289,0.36412 0.15458,0.36412 0.21092,0 0.52275,0.34889 0.52275,0.58488 0,0.11788 0.0621,0.20922 0.15969,0.23473 0.1053,0.0275 0.1778,0.14739 0.21289,0.35191 0.0531,0.30943 0.38653,0.77581 0.55469,0.77581 0.0488,0 0.0887,0.12422 0.0887,0.27604 0,0.17711 0.0759,0.35783 0.21167,0.5043 0.12941,0.13957 0.21167,0.32841 0.21167,0.48597 0,0.17262 0.0419,0.25769 0.127,0.25769 0.0699,0 0.127,0.0572 0.127,0.127 0,0.0698 0.0571,0.127 0.127,0.127 0.079,0 0.127,0.08 0.127,0.21167 0,0.15522 0.0452,0.21167 0.16933,0.21167 0.13647,0 0.16933,0.0564 0.16933,0.29082 0,0.39013 0.13594,0.72518 0.29424,0.72518 0.087,0 0.1291,0.0828 0.1291,0.254 0,0.16933 0.0423,0.254 0.127,0.254 0.0775,0 0.127,0.079 0.127,0.20261 0,0.11143 0.0572,0.22453 0.127,0.25134 0.0699,0.0268 0.127,0.12301 0.127,0.2138 0,0.27699 0.0947,0.43291 0.26306,0.43291 0.11231,0 0.16027,0.0602 0.16027,0.2013 0,0.11072 0.0572,0.24873 0.127,0.3067 0.0699,0.058 0.127,0.18051 0.127,0.2723 0,0.0957 0.0722,0.18578 0.16933,0.21117 0.10791,0.0282 0.16934,0.11549 0.16934,0.24056 0,0.30537 0.15176,0.63064 0.29423,0.63064 0.0914,0 0.1291,0.0876 0.1291,0.29971 0,0.31648 0.23018,0.83803 0.56255,1.27462 0.47131,0.61909 0.0482,0.83807 -1.2204,0.63166 z m -42.69148,-21.26161 c -0.79192,-0.14627 -0.88014,-0.19547 -0.98724,-0.55051 -0.15105,-0.50073 -0.13345,-0.74843 0.0889,-1.25121 0.22043,-0.49843 0.76231,-1.15599 0.95262,-1.15599 0.0656,0 0.15405,-0.0915 0.19659,-0.20344 0.0425,-0.1119 0.1178,-0.22845 0.16724,-0.259 0.0494,-0.0306 0.0899,-0.12238 0.0899,-0.20405 0,-0.18678 0.42706,-0.60351 0.61846,-0.60351 0.0789,0 0.14354,-0.0605 0.14354,-0.13455 0,-0.074 0.16474,-0.29467 0.36609,-0.49036 0.20135,-0.19569 0.4202,-0.47804 0.48633,-0.62745 0.0755,-0.17058 0.18113,-0.27164 0.28389,-0.27164 0.21188,0 0.73347,-0.48124 4.17836,-3.85516 2.85258,-2.7938 4.46425,-4.24258 6.34513,-5.70386 0.73786,-0.57324 1.03829,-0.86284 1.153,-1.11144 0.13491,-0.29235 0.19151,-0.33621 0.43393,-0.33621 0.22505,0 0.30214,-0.0482 0.39997,-0.25023 0.15093,-0.31163 0.70981,-0.76466 0.94877,-0.76907 0.11157,-0.002 0.2834,-0.14541 0.45671,-0.381 0.15282,-0.20774 0.34332,-0.37818 0.42333,-0.37877 0.13884,-0.001 0.79016,-0.67565 1.04117,-1.07843 0.0653,-0.10477 0.16398,-0.1905 0.2193,-0.1905 0.17789,0 0.36668,-0.25922 0.36668,-0.50346 0,-0.1963 0.0442,-0.24621 0.2554,-0.28845 0.26908,-0.0538 0.42194,-0.30569 0.42194,-0.69527 0,-0.12868 0.0487,-0.20615 0.12965,-0.20615 0.0713,0 0.15159,-0.0572 0.1784,-0.127 0.0268,-0.0699 0.0974,-0.127 0.1568,-0.127 0.0594,0 0.12873,-0.079 0.15399,-0.17562 0.0253,-0.0966 0.12495,-0.19628 0.22154,-0.22154 0.0966,-0.0253 0.17562,-0.11361 0.17562,-0.19633 0,-0.0827 0.0572,-0.17233 0.127,-0.19913 0.0699,-0.0268 0.127,-0.12613 0.127,-0.22073 0,-0.0964 0.0558,-0.17199 0.127,-0.17199 0.0699,0 0.127,-0.0572 0.127,-0.127 0,-0.0699 0.0531,-0.127 0.11794,-0.127 0.12369,0 0.22072,-0.17599 0.22072,-0.40032 0,-0.0729 0.13335,-0.33338 0.29634,-0.57893 0.49129,-0.74016 0.54233,-0.71408 -1.397,-0.71408 -1.07245,0 -1.69334,0.031 -1.69334,0.0847 0,0.11423 -2.5964,0.11423 -2.667,0 -0.0288,-0.0466 -0.12627,-0.0847 -0.21666,-0.0847 -0.0904,0 -0.16434,-0.0572 -0.16434,-0.127 0,-0.0729 -0.0763,-0.127 -0.17908,-0.127 -0.20519,0 -0.69125,-0.49499 -0.84095,-0.8564 -0.0608,-0.14666 -0.16474,-0.24427 -0.26024,-0.24427 -0.0875,0 -0.15906,-0.0541 -0.15906,-0.12026 0,-0.0867 0.15966,-0.13542 0.5715,-0.17455 0.71747,-0.0682 1.58455,-0.2522 1.99383,-0.4232 0.18329,-0.0766 0.50732,-0.12314 0.77817,-0.11181 0.27609,0.0115 0.50575,-0.0222 0.5669,-0.0834 0.0806,-0.0806 0.0571,-0.1028 -0.10919,-0.1028 -0.19616,0 -0.83837,-0.53746 -0.74742,-0.62551 0.24325,-0.23548 10.897,-1.90324 12.22854,-1.91427 0.43095,-0.004 0.59531,-0.1031 0.51058,-0.30917 -0.0354,-0.0862 -0.0931,-0.27623 -0.12826,-0.42231 l -0.0638,-0.2656 0.51809,-0.13263 c 0.28495,-0.0729 0.64192,-0.15648 0.79326,-0.18563 0.15134,-0.0291 0.27516,-0.10217 0.27516,-0.16226 0,-0.0647 0.14661,-0.12836 0.35984,-0.15613 0.57974,-0.0755 1.36398,-0.24199 1.52285,-0.32327 0.0809,-0.0414 0.34542,-0.0752 0.58792,-0.0752 0.31141,0 0.69096,-0.0974 1.29232,-0.33154 0.46827,-0.18235 1.32766,-0.47347 1.90974,-0.64694 0.58208,-0.17347 1.17839,-0.36717 1.32513,-0.43046 0.14674,-0.0633 0.39926,-0.11506 0.56116,-0.11506 0.1619,0 0.43115,-0.0571 0.59832,-0.127 0.16718,-0.0699 0.40042,-0.127 0.51834,-0.127 0.11791,0 0.21438,-0.0381 0.21438,-0.0847 0,-0.0466 0.18098,-0.086 0.40217,-0.0877 0.22119,-0.002 0.49742,-0.0575 0.61383,-0.124 0.11642,-0.0666 0.43727,-0.12235 0.71301,-0.124 0.32346,-0.002 0.55118,-0.0481 0.64182,-0.13015 0.21132,-0.19124 1.30732,-0.55054 1.67041,-0.54761 0.24594,0.002 0.28702,0.0213 0.17916,0.0843 -0.077,0.0449 -0.2781,0.27399 -0.44695,0.50902 -0.16885,0.23503 -0.36609,0.45 -0.43831,0.47771 -0.0722,0.0277 -0.40449,0.31152 -0.73838,0.63067 -0.3339,0.31916 -0.67194,0.58062 -0.75119,0.58102 -0.0793,4.2e-4 -0.26558,0.18171 -0.41405,0.4029 -0.34494,0.51388 -1.01002,1.2065 -1.15853,1.2065 -0.0629,0 -0.41497,0.28635 -0.78238,0.63632 -0.43094,0.41052 -0.76189,0.65511 -0.93259,0.68925 -0.1725,0.0345 -0.29134,0.12326 -0.34144,0.25501 -0.0938,0.24681 -0.82732,1.04409 -0.96054,1.04409 -0.19426,0 -0.7174,0.51862 -0.89665,0.8889 -0.11619,0.24001 -0.24033,0.3811 -0.33531,0.3811 -0.0829,0 -0.29863,0.15237 -0.47928,0.33859 -0.18065,0.18623 -0.39302,0.33863 -0.47193,0.33867 -0.0789,4e-5 -0.30751,0.19055 -0.508,0.42336 -0.20049,0.23282 -0.40263,0.42356 -0.4492,0.42387 -0.0466,3.4e-4 -0.15048,0.11622 -0.23091,0.25756 -0.0804,0.14134 -0.27094,0.30977 -0.42333,0.37429 -0.18531,0.0784 -0.3441,0.24555 -0.47936,0.50448 -0.14632,0.28009 -0.25347,0.38718 -0.38741,0.38718 -0.10183,0 -0.27462,0.0952 -0.38399,0.21167 -0.10937,0.11641 -0.22923,0.21166 -0.26636,0.21166 -0.0794,0 -0.48744,0.36014 -1.1751,1.03717 -0.27197,0.26776 -0.53515,0.48683 -0.58485,0.48683 -0.0497,0 -0.0904,0.0381 -0.0904,0.0847 0,0.0466 -0.1343,0.0847 -0.29845,0.0847 -0.26387,0 -0.30433,0.0294 -0.34925,0.254 -0.0333,0.16627 -0.10204,0.254 -0.19918,0.254 -0.0816,0 -0.19391,0.0549 -0.24957,0.12191 -0.0556,0.0671 -0.18413,0.13373 -0.28553,0.14817 -0.10139,0.0144 -0.22129,0.11042 -0.26644,0.2133 -0.0452,0.10287 -0.15945,0.19812 -0.254,0.21166 -0.11085,0.0159 -0.20068,0.12236 -0.25292,0.29979 -0.0511,0.17352 -0.13524,0.27517 -0.22784,0.27517 -0.0808,0 -0.17037,0.0381 -0.19915,0.0847 -0.0288,0.0466 -0.12805,0.0847 -0.2206,0.0847 -0.0983,0 -0.22823,0.10536 -0.3125,0.25347 -0.10367,0.18218 -0.20801,0.25361 -0.37102,0.254 -0.12473,2.5e-4 -0.27713,0.0507 -0.33867,0.11192 -0.0615,0.0613 -0.30238,0.24313 -0.53521,0.40414 -0.23283,0.16101 -0.59146,0.45378 -0.79695,0.65061 -0.20549,0.19682 -0.44136,0.35786 -0.52417,0.35786 -0.0828,0 -0.1741,0.0381 -0.20288,0.0847 -0.0288,0.0466 -0.12628,0.0847 -0.21666,0.0847 -0.0904,0 -0.16434,0.0572 -0.16434,0.127 0,0.0699 -0.052,0.127 -0.11549,0.127 -0.0635,0 -0.22109,0.1524 -0.35018,0.33867 -0.1317,0.19005 -0.30395,0.33867 -0.39251,0.33867 -0.0868,0 -0.23402,0.0762 -0.32715,0.16933 -0.0931,0.0931 -0.20744,0.16933 -0.254,0.16933 -0.0466,0 -0.0847,0.0571 -0.0847,0.127 0,0.079 -0.08,0.127 -0.21167,0.127 -0.12315,0 -0.21166,0.0487 -0.21166,0.11642 0,0.064 -0.11311,0.13904 -0.25136,0.16669 -0.13824,0.0276 -0.32874,0.12766 -0.42333,0.22225 -0.0946,0.0946 -0.25888,0.17198 -0.36508,0.17198 -0.13706,0 -0.2211,0.0742 -0.28954,0.25548 -0.0619,0.16394 -0.19988,0.2987 -0.38514,0.37611 -0.15878,0.0663 -0.33796,0.17998 -0.39816,0.25251 -0.0602,0.0726 -0.181,0.1319 -0.26843,0.1319 -0.0874,0 -0.15896,0.0571 -0.15896,0.127 0,0.0699 -0.0338,0.127 -0.075,0.127 -0.0413,0 -0.1383,0.13335 -0.21564,0.29633 -0.12574,0.26498 -0.17604,0.29633 -0.47532,0.29633 -0.24106,0 -0.33469,0.0355 -0.33469,0.127 0,0.0699 -0.0381,0.127 -0.0847,0.127 -0.0973,0 -0.4223,0.30722 -0.42541,0.40217 -0.002,0.0567 -0.24724,0.19967 -0.82276,0.47927 -0.10441,0.0507 -0.19014,0.15891 -0.1905,0.2404 -4.2e-4,0.10142 -0.0674,0.14816 -0.21233,0.14816 -0.1317,0 -0.21166,0.048 -0.21166,0.127 0,0.0699 -0.0531,0.127 -0.11812,0.127 -0.065,0 -0.20783,0.0946 -0.3175,0.21021 -0.10966,0.11561 -0.23039,0.21086 -0.26828,0.21166 -0.0379,8.5e-4 -0.17125,0.10185 -0.29634,0.22454 -0.12508,0.12269 -0.43698,0.28508 -0.6931,0.36087 -0.37975,0.11237 -0.48909,0.18803 -0.59266,0.41009 -0.0852,0.18273 -0.18753,0.2729 -0.31099,0.27413 -0.1811,0.002 -0.70501,0.44844 -0.70501,0.60102 0,0.043 -0.0715,0.0781 -0.15897,0.0781 -0.0874,0 -0.2064,0.0572 -0.26437,0.127 -0.058,0.0698 -0.15344,0.127 -0.21215,0.127 -0.0587,0 -0.12624,0.0745 -0.15004,0.16548 -0.0245,0.0937 -0.14819,0.19098 -0.28504,0.22424 -0.33798,0.0822 -0.87677,0.52341 -0.87677,0.71806 0,0.10447 -0.0589,0.16222 -0.16535,0.16222 -0.20925,0 -0.59665,0.17374 -0.59665,0.26759 0,0.10996 -0.30308,0.38704 -0.48732,0.44552 -0.091,0.0289 -0.2757,0.16772 -0.41053,0.30857 -0.13483,0.14085 -0.33087,0.2915 -0.43565,0.33477 -0.10477,0.0433 -0.1905,0.13679 -0.1905,0.20779 0,0.0813 -0.0784,0.12909 -0.21166,0.12909 -0.13171,0 -0.21167,0.048 -0.21167,0.127 0,0.0699 -0.0571,0.127 -0.127,0.127 -0.0699,0 -0.127,0.0381 -0.127,0.0847 0,0.0466 -0.0734,0.0847 -0.16319,0.0847 -0.0898,0 -0.24515,0.10477 -0.34534,0.23283 -0.10018,0.12806 -0.26447,0.25351 -0.3651,0.27878 -0.10062,0.0253 -0.29764,0.20391 -0.43783,0.39699 -0.14018,0.19308 -0.31898,0.35338 -0.39733,0.35622 -0.0784,0.003 -0.16744,0.0839 -0.19797,0.18007 -0.0759,0.23908 -0.54024,0.75644 -0.67894,0.75644 -0.062,0 -0.39489,0.28575 -0.73964,0.635 -0.34475,0.34925 -0.68055,0.63547 -0.74624,0.63605 -0.0657,5.9e-4 -0.2115,0.14345 -0.32404,0.3175 -0.52825,0.81697 -1.43359,1.62201 -1.97766,1.75857 -0.12307,0.0309 -0.2681,0.10957 -0.32228,0.17485 -0.10724,0.12922 -0.49364,0.13926 -1.09377,0.0284 z m -12.73516,-5.76074 c -0.27545,-0.0402 -0.7807,-0.14983 -1.12278,-0.24368 -0.36635,-0.1005 -0.88253,-0.17063 -1.25601,-0.17063 -0.57761,0 -0.63405,-0.0151 -0.63405,-0.16933 0,-0.0931 -0.0528,-0.16933 -0.11732,-0.16933 -0.0645,0 -0.22646,-0.0569 -0.35984,-0.12648 -0.13338,-0.0696 -0.33776,-0.12687 -0.45418,-0.12736 -0.11641,-5e-4 -0.3991,-0.096 -0.62818,-0.21218 -0.22908,-0.11623 -0.46721,-0.21132 -0.52917,-0.21132 -0.0619,0 -0.11265,-0.0571 -0.11265,-0.127 0,-0.079 -0.08,-0.127 -0.21166,-0.127 -0.12585,0 -0.21167,-0.0485 -0.21167,-0.11955 0,-0.0741 -0.13271,-0.14198 -0.349,-0.17852 -0.24039,-0.0406 -0.36202,-0.1088 -0.39087,-0.21911 -0.0262,-0.10022 -0.11692,-0.16015 -0.24239,-0.16015 -0.24657,0 -1.14271,-0.81419 -1.48597,-1.35008 -0.14044,-0.21924 -0.2411,-0.49321 -0.2411,-0.65616 0,-0.17615 -0.0416,-0.27976 -0.11246,-0.27976 -0.14133,0 -0.31109,-0.71008 -0.31024,-1.29763 8.7e-4,-0.59166 0.15111,-1.48378 0.30055,-1.78454 0.0672,-0.13522 0.12215,-0.39239 0.12215,-0.5715 0,-0.17912 0.0381,-0.32566 0.0847,-0.32566 0.0466,0 0.0847,-0.0715 0.0847,-0.15897 0,-0.0874 0.0572,-0.2064 0.127,-0.26437 0.0698,-0.058 0.127,-0.21503 0.127,-0.34903 0,-0.18719 0.0392,-0.24363 0.16933,-0.24363 0.10946,0 0.16934,-0.0564 0.16934,-0.15963 0,-0.16467 1.03442,-1.19504 1.19974,-1.19504 0.0511,0 0.2804,-0.1905 0.50959,-0.42333 0.22919,-0.23284 0.47175,-0.42334 0.53902,-0.42334 0.0673,0 0.12231,-0.0381 0.12231,-0.0847 0,-0.0466 0.0572,-0.0847 0.127,-0.0847 0.0698,0 0.127,-0.0572 0.127,-0.127 0,-0.085 0.085,-0.127 0.25666,-0.127 0.15004,0 0.2769,-0.0528 0.30539,-0.127 0.0268,-0.0699 0.10047,-0.127 0.1637,-0.127 0.0632,0 0.15574,-0.0762 0.20559,-0.16933 0.0593,-0.11088 0.17727,-0.16934 0.34164,-0.16934 0.16669,0 0.25102,-0.0427 0.25102,-0.127 0,-0.0873 0.0876,-0.127 0.28043,-0.127 0.15424,0 0.44952,-0.0823 0.65617,-0.18277 0.20666,-0.10053 0.55671,-0.20063 0.7779,-0.22244 0.26521,-0.0262 0.40217,-0.0792 0.40217,-0.15589 0,-0.0808 0.11289,-0.11623 0.37063,-0.11623 0.22617,0 0.41172,-0.0495 0.47604,-0.127 0.058,-0.0699 0.23408,-0.127 0.39136,-0.127 0.15729,0 0.28597,-0.0381 0.28597,-0.0847 0,-0.0502 0.31045,-0.0847 0.762,-0.0847 0.4191,0 0.762,0.0191 0.762,0.0423 0,0.0233 -0.0667,0.1116 -0.14817,0.19626 -0.92073,0.95655 -1.12183,1.21756 -1.12183,1.45602 0,0.15474 -0.044,0.25272 -0.11341,0.25272 -0.0624,0 -0.15681,0.0952 -0.20985,0.21167 -0.053,0.11641 -0.13536,0.21166 -0.18292,0.21166 -0.0476,0 -0.0865,0.0572 -0.0865,0.127 0,0.0699 -0.0571,0.127 -0.127,0.127 -0.0851,0 -0.127,0.0851 -0.127,0.2577 0,0.15756 -0.0823,0.3464 -0.21166,0.48597 -0.13582,0.14647 -0.21167,0.32718 -0.21167,0.5043 0,0.18892 -0.0401,0.27603 -0.127,0.27603 -0.079,0 -0.127,0.08 -0.127,0.21167 0,0.11887 -0.049,0.21167 -0.11176,0.21167 -0.0788,0 -0.14139,0.25618 -0.21214,0.86783 -0.12365,1.06887 -0.13272,2.77283 -0.0148,2.77283 0.0466,0 0.0847,0.1524 0.0847,0.33867 0,0.24459 0.0353,0.33867 0.127,0.33867 0.079,0 0.127,0.08 0.127,0.21166 0,0.13171 0.048,0.21167 0.127,0.21167 0.0845,0 0.127,0.0845 0.127,0.25272 0,0.19057 0.1176,0.37798 0.47815,0.762 0.26298,0.2801 0.54657,0.50928 0.6302,0.50928 0.0836,0 0.20699,0.0784 0.27413,0.1743 0.20376,0.2909 0.66836,0.5877 0.91997,0.5877 0.15471,0 0.23755,0.0443 0.23755,0.127 0,0.079 0.08,0.127 0.21167,0.127 0.13505,0 0.21166,0.0477 0.21166,0.13168 0,0.11844 0.24327,0.25178 1.12428,0.61625 0.1294,0.0535 0.31288,0.22887 0.40774,0.38964 0.18545,0.31432 0.42553,0.42591 1.18577,0.55116 1.05566,0.17392 1.26443,0.46589 0.39371,0.55062 -2.21313,0.21535 -4.2938,0.26369 -5.26332,0.12229 z m 10.40682,-0.13219 c -1.30216,-0.20247 -2.70239,-0.73868 -5.01584,-1.92078 -0.10441,-0.0533 -0.19013,-0.14463 -0.1905,-0.20284 -3.3e-4,-0.0582 -0.0959,-0.10583 -0.21232,-0.10583 -0.15522,0 -0.21167,-0.0451 -0.21167,-0.16933 0,-0.0931 -0.0545,-0.16934 -0.12113,-0.16934 -0.24688,0 -0.78703,-0.40133 -1.50809,-1.12052 -0.44227,-0.44113 -0.74145,-0.80838 -0.74145,-0.91017 0,-0.0952 -0.0561,-0.17064 -0.127,-0.17064 -0.0699,0 -0.127,-0.0677 -0.127,-0.15049 0,-0.0828 -0.0533,-0.22662 -0.11848,-0.31966 -0.17102,-0.24416 -0.33511,-1.71344 -0.28359,-2.53924 0.049,-0.78506 0.38066,-1.98594 0.54851,-1.98594 0.0592,0 0.10756,-0.0953 0.10756,-0.21167 0,-0.1317 0.048,-0.21167 0.127,-0.21167 0.0792,0 0.127,-0.0801 0.127,-0.21281 0,-0.11705 0.0353,-0.27898 0.0785,-0.35984 0.0432,-0.0809 0.0991,-0.21369 0.12434,-0.29518 0.0252,-0.0815 0.12326,-0.14817 0.21785,-0.14817 0.13466,0 0.17199,-0.0551 0.17199,-0.254 0,-0.16933 0.0423,-0.254 0.127,-0.254 0.0699,0 0.127,-0.0381 0.127,-0.0847 0,-0.0466 0.0564,-0.0847 0.12539,-0.0847 0.069,0 0.15028,-0.10477 0.1807,-0.23283 0.0304,-0.12806 0.11257,-0.29875 0.18253,-0.3793 0.11837,-0.13628 0.13782,-0.12669 0.27969,0.13802 0.0857,0.15991 0.13129,0.36552 0.10409,0.46953 -0.0266,0.10177 -0.007,0.26826 0.0439,0.36998 0.0508,0.10171 0.1088,0.54688 0.12897,0.98927 0.0422,0.92634 0.18628,1.47684 0.45755,1.74872 0.10478,0.105 0.1905,0.24572 0.1905,0.3127 0,0.067 0.0603,0.14492 0.13393,0.17319 0.34726,0.13325 0.41303,0.0599 0.69507,-0.77484 0.42746,-1.26518 0.47453,-1.37511 0.58872,-1.37511 0.0768,0 0.10628,-0.19736 0.10628,-0.71261 0,-0.39888 0.0372,-0.72503 0.0845,-0.74083 0.056,-0.0187 0.0568,-0.3134 0.002,-0.87489 -0.0453,-0.46567 -0.0833,-1.23719 -0.0845,-1.7145 -0.002,-0.71399 -0.0247,-0.86783 -0.12919,-0.86783 -0.0699,0 -0.127,-0.0649 -0.127,-0.14414 0,-0.0793 -0.11317,-0.26091 -0.2515,-0.40362 -0.13833,-0.14272 -0.26216,-0.35409 -0.27517,-0.4697 -0.0217,-0.19272 0.001,-0.20787 0.27267,-0.18211 0.16299,0.0155 0.39159,0.11587 0.508,0.22316 0.25106,0.23138 0.69987,0.46841 0.88692,0.46841 0.0804,0 0.15348,0.10082 0.18412,0.254 0.0384,0.19201 0.0973,0.254 0.24151,0.254 0.1049,0 0.23815,0.0572 0.29612,0.127 0.058,0.0699 0.15124,0.127 0.20728,0.127 0.056,0 0.19135,0.0952 0.30072,0.21166 0.10937,0.11642 0.26787,0.21167 0.35223,0.21167 0.0857,0 0.25459,0.15296 0.38293,0.3469 0.29579,0.44695 0.77255,0.9231 0.92431,0.9231 0.0652,0 0.11853,0.0583 0.11853,0.12966 0,0.0713 0.0631,0.15388 0.14029,0.18349 0.32456,0.12454 0.883,0.76686 0.93264,1.0727 0.0337,0.20755 0.0948,0.30748 0.18807,0.30748 0.15082,0 0.16002,0.0138 0.62177,0.93504 0.44967,0.8971 0.55171,1.47528 0.3735,2.11626 -0.0794,0.28579 -0.1396,0.81278 -0.1396,1.22309 0,0.42419 -0.0348,0.72095 -0.0847,0.72095 -0.047,0 -0.0847,0.22578 -0.0847,0.508 0,0.39511 -0.0282,0.508 -0.127,0.508 -0.0863,0 -0.12786,0.0882 -0.12969,0.27516 -0.001,0.15135 -0.0586,0.34913 -0.127,0.43952 -0.0731,0.0966 -0.12431,0.34969 -0.12431,0.61383 0,0.39304 -0.0213,0.44949 -0.16933,0.44949 -0.15952,0 -0.16933,0.0564 -0.16933,0.97366 0,0.91723 0.01,0.97367 0.16933,0.97367 0.12418,0 0.16933,0.0564 0.16933,0.21167 0,0.1317 0.048,0.21166 0.127,0.21166 0.0911,0 0.127,0.093 0.127,0.3288 0,0.2513 0.0378,0.33866 0.16015,0.37067 0.11086,0.029 0.17859,0.15103 0.22007,0.39658 0.033,0.19508 0.0339,0.38071 0.002,0.41249 -0.067,0.067 -1.9108,0.10213 -2.28737,0.0436 z m 2.99645,-2.97423 c 0.15775,-0.29475 1.03444,-1.20255 1.16134,-1.20255 0.0733,0 0.11788,-0.0917 0.11788,-0.24214 0,-0.16501 0.0713,-0.29312 0.22387,-0.40217 0.12312,-0.088 0.40928,-0.32118 0.6359,-0.51815 0.22662,-0.19697 0.51641,-0.41243 0.64397,-0.47879 0.38637,-0.20101 0.86632,-0.86947 0.86745,-1.20815 2.5e-4,-0.0859 0.0513,-0.25364 0.11344,-0.37264 0.20354,-0.39003 0.56337,-1.51558 0.56337,-1.76223 0,-0.13279 -0.0242,-0.4182 -0.0538,-0.63425 -0.0422,-0.30757 -0.0881,-0.39282 -0.21167,-0.39282 -0.12419,0 -0.15782,-0.0637 -0.15782,-0.29899 0,-0.18766 -0.0473,-0.31713 -0.127,-0.34772 -0.0699,-0.0268 -0.127,-0.12086 -0.127,-0.20901 0,-0.0881 -0.0299,-0.16028 -0.0664,-0.16028 -0.0365,0 -0.13394,-0.1143 -0.21646,-0.254 -0.0825,-0.1397 -0.22184,-0.254 -0.30959,-0.254 -0.0877,0 -0.1831,-0.0381 -0.21188,-0.0847 -0.0288,-0.0466 -0.14532,-0.0847 -0.25899,-0.0847 -0.11367,0 -0.20667,-0.0377 -0.20667,-0.0837 0,-0.18389 -0.30298,-0.4243 -0.53475,-0.4243 -0.1719,0 -0.25608,-0.0496 -0.28739,-0.16933 -0.0243,-0.0931 -0.097,-0.16934 -0.1614,-0.16934 -0.0644,0 -0.11713,-0.0572 -0.11713,-0.127 0,-0.0997 -0.11704,-0.127 -0.54534,-0.127 -0.29993,0 -0.56639,-0.0341 -0.59213,-0.0757 -0.0546,-0.0884 -0.6325,-0.18779 -1.07678,-0.18519 -0.46053,0.003 -0.56473,-0.17686 -0.31525,-0.5432 0.18672,-0.27418 0.23309,-0.29544 0.64567,-0.29597 0.33841,-4.3e-4 0.4445,-0.0309 0.4445,-0.12758 0,-0.0904 0.0916,-0.12693 0.3175,-0.12675 0.26828,2.6e-4 1.23943,-0.10245 2.86985,-0.30339 0.34497,-0.0425 0.34947,-0.0474 0.26132,-0.28091 -0.0493,-0.13071 -0.0677,-0.29508 -0.0407,-0.36527 0.0758,-0.19763 0.72913,-0.32068 1.70253,-0.32068 0.7834,0 0.98884,0.0338 1.76167,0.29026 0.48117,0.15964 1.05583,0.31636 1.27702,0.34828 0.22378,0.0323 0.40217,0.10302 0.40217,0.15948 0,0.11192 0.44951,0.47198 0.58924,0.47198 0.0485,0 0.0881,0.0571 0.0881,0.127 0,0.0699 0.0397,0.127 0.0881,0.127 0.16889,0 0.58924,0.37162 0.58924,0.52094 0,0.0827 0.0709,0.1884 0.15765,0.23481 0.30252,0.1619 0.44127,2.43672 0.21598,3.54108 -0.0393,0.19265 -0.10374,0.27517 -0.21488,0.27517 -0.13098,0 -0.15875,0.0647 -0.15875,0.36958 0,0.2503 -0.0601,0.44841 -0.18625,0.61383 -0.36225,0.47509 -1.19994,1.34574 -1.35247,1.40569 -0.085,0.0334 -0.15462,0.1001 -0.15462,0.14817 0,0.0481 -0.11357,0.0874 -0.25238,0.0874 -0.19702,0 -0.26378,0.0454 -0.3043,0.20681 -0.0361,0.14401 -0.12019,0.21472 -0.27678,0.23284 -0.17091,0.0198 -0.24431,0.0921 -0.30588,0.30119 -0.0511,0.17352 -0.13524,0.27516 -0.22783,0.27516 -0.0808,0 -0.17038,0.0381 -0.19916,0.0847 -0.0288,0.0466 -0.12628,0.0847 -0.21666,0.0847 -0.0904,0 -0.16434,0.0381 -0.16434,0.0847 0,0.0466 -0.0762,0.16087 -0.16933,0.254 -0.0931,0.0931 -0.20744,0.16934 -0.254,0.16934 -0.0466,0 -0.0847,0.0572 -0.0847,0.127 0,0.079 -0.08,0.127 -0.21167,0.127 -0.11641,0 -0.21166,0.0381 -0.21166,0.0847 0,0.0466 -0.0715,0.0847 -0.15897,0.0847 -0.0874,0 -0.2064,0.0571 -0.26437,0.127 -0.058,0.0699 -0.17693,0.127 -0.26436,0.127 -0.0874,0 -0.15897,0.0505 -0.15897,0.11224 0,0.15102 -0.31884,0.42978 -0.65617,0.5737 -0.15134,0.0646 -0.27516,0.16525 -0.27516,0.22373 0,0.0605 -0.10426,0.10633 -0.24208,0.10633 -0.13314,0 -0.53429,0.13501 -0.89144,0.30002 -0.56015,0.25881 -0.76674,0.30718 -1.50374,0.35208 -0.85043,0.0518 -0.85394,0.0512 -0.75863,-0.12688 z m -29.73332,-2.1581 c -0.12992,-0.1031 -0.38218,-0.31128 -0.5606,-0.46262 -0.17841,-0.15134 -0.38236,-0.27517 -0.45323,-0.27517 -0.0709,0 -0.15078,-0.0571 -0.17758,-0.127 -0.0285,-0.0742 -0.15536,-0.127 -0.30539,-0.127 -0.19395,0 -0.25666,-0.0386 -0.25666,-0.15778 0,-0.1828 -0.39189,-0.60422 -0.56188,-0.60422 -0.0635,0 -0.11545,-0.0572 -0.11545,-0.127 0,-0.0712 -0.0756,-0.127 -0.17199,-0.127 -0.0946,0 -0.19392,-0.0571 -0.22073,-0.127 -0.0268,-0.0699 -0.11619,-0.127 -0.19864,-0.127 -0.0825,0 -0.19544,-0.0549 -0.25109,-0.12191 -0.0556,-0.0671 -0.18287,-0.13373 -0.2827,-0.14817 -0.0998,-0.0144 -0.23995,-0.13889 -0.31135,-0.27657 -0.1836,-0.35398 -0.43065,-0.54792 -0.70214,-0.5512 -0.17511,-0.002 -0.29176,-0.0868 -0.46567,-0.33827 -0.12761,-0.1845 -0.27965,-0.3369 -0.33786,-0.33866 -0.0582,-0.002 -0.10583,-0.0794 -0.10583,-0.17255 0,-0.12265 -0.0564,-0.16933 -0.20474,-0.16933 -0.28923,0 -0.47259,-0.0838 -0.47259,-0.21611 0,-0.0623 -0.10478,-0.16319 -0.23284,-0.22415 -0.12806,-0.061 -0.27044,-0.19638 -0.31641,-0.30095 -0.0504,-0.11461 -0.158,-0.19013 -0.27095,-0.19013 -0.11845,0 -0.30453,-0.14015 -0.50585,-0.381 -0.17516,-0.20955 -0.34923,-0.381 -0.38682,-0.381 -0.15117,0 -1.00958,-0.90414 -1.14081,-1.20159 -0.0997,-0.22604 -0.41158,-0.53316 -1.07745,-1.06109 -0.5154,-0.40864 -1.29907,-1.10556 -1.74148,-1.54871 -0.44242,-0.44315 -0.94727,-0.9144 -1.12189,-1.04722 -0.17463,-0.13281 -0.3175,-0.31445 -0.3175,-0.40362 0,-0.0947 -0.12001,-0.23295 -0.28868,-0.33247 -0.16804,-0.0991 -0.34401,-0.30141 -0.42106,-0.48398 -0.18073,-0.42821 -0.30973,-0.57226 -0.57063,-0.63719 -0.154,-0.0383 -0.23662,-0.12694 -0.26966,-0.2892 -0.0262,-0.12866 -0.2025,-0.39438 -0.3918,-0.59049 -0.1893,-0.19611 -0.34417,-0.41669 -0.34417,-0.49018 0,-0.0735 -0.1524,-0.28301 -0.33867,-0.46559 -0.24802,-0.24311 -0.33867,-0.40084 -0.33867,-0.58931 0,-0.2438 -0.0178,-0.25736 -0.338664,-0.25736 -0.3048,0 -0.338667,-0.0212 -0.338667,-0.21166 0,-0.11642 -0.0381,-0.21167 -0.08467,-0.21167 -0.04657,0 -0.08467,-0.0762 -0.08467,-0.16933 0,-0.0941 -0.05644,-0.16934 -0.127,-0.16934 -0.08467,0 -0.127,-0.0847 -0.127,-0.254 0,-0.1397 -0.03993,-0.254 -0.08873,-0.254 -0.154223,0 -0.496503,-0.45488 -0.551583,-0.73304 -0.03233,-0.16324 -0.11579,-0.2838 -0.214317,-0.30957 -0.100413,-0.0263 -0.161717,-0.11716 -0.162285,-0.24063 -5.25e-4,-0.11371 -0.139425,-0.34321 -0.325367,-0.53759 -0.202528,-0.21171 -0.346847,-0.45853 -0.384044,-0.6568 -0.03754,-0.20013 -0.136437,-0.368 -0.2673,-0.45374 -0.15279,-0.10012 -0.20771,-0.21188 -0.20771,-0.4227 0,-0.22958 -0.03349,-0.28659 -0.168332,-0.28659 -0.130296,0 -0.180305,-0.0749 -0.221313,-0.33132 -0.03609,-0.22567 -0.103894,-0.34463 -0.212667,-0.37307 -0.09799,-0.0256 -0.160728,-0.11842 -0.16238,-0.24019 -0.0015,-0.10913 -0.05863,-0.27238 -0.127,-0.36277 -0.06837,-0.0904 -0.124308,-0.32852 -0.124308,-0.52917 0,-0.26784 -0.03376,-0.36482 -0.127,-0.36482 -0.07902,0 -0.127,-0.08 -0.127,-0.21166 0,-0.11642 -0.0381,-0.21167 -0.08467,-0.21167 -0.04657,0 -0.08467,-0.13335 -0.08467,-0.29633 0,-0.20696 -0.0383,-0.29634 -0.127,-0.29634 -0.07902,0 -0.127,-0.08 -0.127,-0.21166 0,-0.13171 -0.04798,-0.21167 -0.127,-0.21167 -0.09172,0 -0.127,-0.0941 -0.127,-0.33867 0,-0.27719 -0.02943,-0.33866 -0.162109,-0.33866 -0.138431,0 -0.167556,-0.0773 -0.199401,-0.52917 -0.02051,-0.29104 -0.172713,-0.93874 -0.338227,-1.43933 l -0.300919,-0.91017 h 0.447636 c 0.294609,0 0.483667,0.0434 0.553036,0.127 0.05797,0.0699 0.195985,0.127 0.3067,0.127 0.114946,0 0.2013,0.0502 0.2013,0.11713 0,0.0644 0.07645,0.13711 0.169894,0.16155 0.106292,0.0278 0.189494,0.14243 0.22225,0.30621 0.04351,0.21756 0.09227,0.26178 0.288676,0.26178 0.181149,0 0.262568,0.0593 0.348752,0.254 0.07575,0.17114 0.173171,0.254 0.298628,0.254 0.102409,0 0.237949,0.0739 0.3012,0.16419 0.07586,0.1083 0.262339,0.18373 0.54786,0.22161 0.323519,0.0429 0.443386,0.0977 0.474539,0.21681 0.02293,0.0877 0.102398,0.15939 0.176608,0.15939 0.07421,0 0.134926,0.0572 0.134926,0.127 0,0.079 0.07996,0.127 0.211667,0.127 0.131704,0 0.211667,0.048 0.211667,0.127 0,0.0847 0.08467,0.127 0.254,0.127 0.1397,0 0.254,0.0381 0.254,0.0847 0,0.0466 0.1905,0.0847 0.423333,0.0847 0.309331,0 0.423331,0.0324 0.423331,0.12027 0,0.0661 0.11387,0.14528 0.25303,0.17585 0.13917,0.0306 0.27477,0.0907 0.30133,0.13373 0.0266,0.043 0.12582,0.0781 0.22057,0.0781 0.0978,0 0.19037,0.0693 0.21417,0.16025 0.0454,0.17358 0.34618,0.26308 0.88415,0.26308 0.23755,0 0.32809,0.0356 0.32809,0.12909 0,0.16618 0.29993,0.27731 1.07266,0.39744 0.40911,0.0636 0.62067,0.13461 0.62067,0.20832 0,0.074 0.11451,0.11182 0.33867,0.11182 0.18626,0 0.33866,0.0381 0.33866,0.0847 0,0.0466 0.18526,0.0847 0.41169,0.0847 0.26438,0 0.63274,0.0912 1.02945,0.25474 0.9862,0.40667 3.32852,1.14442 4.5702,1.43943 1.67471,0.39791 3.10082,0.81069 4.10837,1.18914 0.62375,0.23429 1.02258,0.33402 1.3358,0.33402 0.27703,0 0.7207,0.0956 1.16869,0.25184 0.39718,0.13852 1.22223,0.36461 1.83344,0.50242 0.61122,0.13782 1.18719,0.29119 1.27994,0.34083 0.0927,0.0496 0.56165,0.0907 1.04202,0.0913 0.50756,5.9e-4 1.06845,0.054 1.33907,0.12754 0.92743,0.25202 2.0237,0.38584 3.76766,0.45988 1.74015,0.0739 2.83251,0.22846 3.89467,0.55113 0.28633,0.087 0.7864,0.1289 1.54517,0.12953 0.69083,5.9e-4 1.12183,0.0334 1.12183,0.0856 0,0.0494 0.28222,0.0847 0.67733,0.0847 0.54563,0 0.67734,0.0247 0.67734,0.127 0,0.10805 0.22107,0.127 1.48166,0.127 1.2606,0 1.48167,0.0189 1.48167,0.127 0,0.10239 0.13232,0.127 0.6829,0.127 0.37559,0 0.76612,0.0446 0.86783,0.0992 0.10172,0.0546 0.56594,0.1107 1.0316,0.12474 0.46567,0.014 1.89442,0.0599 3.175,0.10179 1.28059,0.0419 2.57003,0.0811 2.86543,0.0869 0.46101,0.009 0.54337,0.0347 0.58138,0.18001 0.0355,0.13561 0.11548,0.16933 0.40181,0.16933 0.30097,0 0.37308,0.0341 0.45579,0.21565 0.0541,0.11861 0.0983,0.26805 0.0983,0.3321 0,0.0641 0.13432,0.16078 0.29848,0.21496 0.39132,0.12915 0.80219,0.4802 0.80219,0.68539 0,0.0931 0.11771,0.23464 0.27431,0.32988 0.15823,0.0962 0.31338,0.2838 0.36664,0.44325 0.0671,0.20101 0.17133,0.30401 0.38186,0.37749 0.15923,0.0556 0.24035,0.10321 0.18026,0.10584 -0.0601,0.003 -0.22239,0.0884 -0.36065,0.19063 l -0.25138,0.18586 -5.10381,-0.0237 c -3.63623,-0.0169 -5.30326,0.005 -5.79744,0.0777 -0.81796,0.1196 -1.09665,0.0696 -1.20536,-0.21634 l -0.0796,-0.2093 -1.5896,-9e-5 c -0.87428,-1.1e-4 -2.98977,-0.0253 -4.7011,-0.0561 -2.51376,-0.0452 -3.1115,-0.0777 -3.1115,-0.1692 0,-0.0833 -0.1512,-0.11351 -0.5715,-0.11419 -0.31432,-5e-4 -0.762,-0.0598 -0.99483,-0.13168 -0.23315,-0.072 -0.97734,-0.16012 -1.65651,-0.19608 -0.67825,-0.0359 -1.27476,-0.091 -1.32559,-0.12242 -0.0508,-0.0314 -0.47491,-0.0964 -0.9424,-0.14435 -0.46748,-0.048 -1.03302,-0.14665 -1.25674,-0.21928 -0.22372,-0.0726 -0.69251,-0.16305 -1.04176,-0.20094 -0.88713,-0.0962 -2.0485,-0.42846 -2.77072,-0.79259 -0.51206,-0.25816 -0.6993,-0.30841 -1.14934,-0.30841 -0.35541,0 -0.75067,-0.0732 -1.16628,-0.21586 -0.34576,-0.11872 -1.25731,-0.38775 -2.02566,-0.59784 -0.76835,-0.21009 -1.46367,-0.40127 -1.54516,-0.42485 -0.11146,-0.0322 -0.14817,0.007 -0.14817,0.15758 0,0.27356 0.15211,0.40364 0.47202,0.40364 0.50923,0 0.79798,0.0957 0.79798,0.26458 0,0.13892 0.0687,0.15875 0.5496,0.15875 0.49687,0 0.58655,0.0282 0.93468,0.29394 0.21179,0.16166 0.5455,0.33645 0.74157,0.3884 0.19606,0.052 0.51943,0.16734 0.71858,0.2564 0.19915,0.0891 0.45633,0.16193 0.5715,0.16193 0.11517,0 0.2094,0.0478 0.2094,0.10611 0,0.0584 0.25718,0.19551 0.5715,0.30476 0.60194,0.20922 0.78317,0.3155 0.78317,0.45926 0,0.11908 -2.73447,0.021 -3.89467,-0.13962 -0.48895,-0.0677 -1.29857,-0.14915 -1.79916,-0.18096 -0.77644,-0.0494 -0.91017,-0.0393 -0.91017,0.0685 0,0.14713 0.48209,0.59038 0.84781,0.7795 0.13907,0.0719 0.25286,0.16444 0.25286,0.2056 0,0.0412 -0.26501,0.11954 -0.5889,0.17417 -0.51513,0.0869 -0.70436,0.0772 -1.51064,-0.077 -0.50695,-0.097 -1.0611,-0.17635 -1.23143,-0.17635 -0.24659,0 -0.3097,-0.0324 -0.3097,-0.15906 0,-0.17278 -0.26492,-0.30716 -0.78317,-0.39725 -0.29569,-0.0514 -0.3175,-0.0409 -0.3175,0.15277 0,0.24768 0.18034,0.42343 0.62147,0.60564 0.18313,0.0756 0.3446,0.20875 0.3697,0.30477 0.0246,0.0942 0.11544,0.17046 0.2029,0.17046 0.10282,0 0.20466,0.1109 0.2905,0.31635 0.14588,0.34914 0.43991,0.69965 0.5869,0.69965 0.052,0 0.26447,0.17338 0.47207,0.38529 0.4193,0.42798 1.08318,0.88471 1.28598,0.88471 0.0724,0 0.15607,0.0635 0.18586,0.14113 0.0298,0.0776 0.29103,0.43736 0.58055,0.79941 0.36924,0.46174 0.58353,0.65975 0.71773,0.6632 0.10524,0.003 0.25747,0.0822 0.33831,0.17659 0.0808,0.0944 0.29002,0.19453 0.46484,0.22249 0.17482,0.028 0.31786,0.0987 0.31786,0.15713 0,0.0585 0.0735,0.12553 0.16339,0.14903 0.0899,0.0235 0.26886,0.18987 0.39778,0.36971 0.28978,0.40425 1.1296,1.11902 1.73235,1.47442 0.24878,0.14668 0.63848,0.43407 0.86601,0.63863 0.22752,0.20457 0.51458,0.42233 0.63791,0.48392 0.12332,0.0616 0.21336,0.16107 0.20009,0.22107 -0.0133,0.06 0.0208,0.16329 0.0758,0.22953 0.13597,0.16383 0.0474,1.21992 -0.21724,2.59077 -0.33465,1.73347 -0.34424,1.75883 -0.6632,1.75526 -0.14955,-0.002 -0.3782,-0.0874 -0.50811,-0.1905 z m 41.63498,-9.04034 c -0.0306,-0.0494 -0.15055,-0.12601 -0.26666,-0.17015 -0.11611,-0.0442 -0.25411,-0.1942 -0.30667,-0.33345 -0.0526,-0.13925 -0.15605,-0.25318 -0.22998,-0.25318 -0.0739,0 -0.32721,-0.20002 -0.56286,-0.4445 -0.30421,-0.31562 -0.54217,-0.4779 -0.82069,-0.55968 -0.21573,-0.0633 -0.39225,-0.16405 -0.39225,-0.22377 0,-0.0597 -0.0572,-0.13053 -0.127,-0.15733 -0.0699,-0.0268 -0.127,-0.10708 -0.127,-0.1784 0,-0.0713 -0.0566,-0.12965 -0.12587,-0.12965 -0.17616,0 -0.79835,-0.44323 -0.80225,-0.5715 -0.002,-0.0582 -0.0747,-0.10584 -0.16218,-0.10584 -0.0874,0 -0.20639,-0.0572 -0.26436,-0.127 -0.058,-0.0699 -0.14885,-0.127 -0.20196,-0.127 -0.0531,0 -0.13417,-0.0857 -0.18013,-0.1905 -0.0608,-0.13848 -0.17605,-0.20206 -0.42225,-0.23283 -0.29456,-0.0368 -0.34921,-0.0782 -0.41967,-0.3175 -0.0667,-0.22638 -0.12341,-0.27517 -0.32016,-0.27517 -0.13447,0 -0.26048,-0.0556 -0.28788,-0.127 -0.0274,-0.0713 -0.15337,-0.127 -0.28753,-0.127 -0.15388,0 -0.29801,-0.0753 -0.4053,-0.21166 -0.1015,-0.12904 -0.25263,-0.21167 -0.38714,-0.21167 -0.13155,0 -0.22065,-0.0473 -0.22065,-0.11726 0,-0.11141 -0.26505,-0.32771 -0.635,-0.51821 -0.0931,-0.048 -0.20694,-0.17225 -0.25291,-0.2762 -0.046,-0.10395 -0.13169,-0.189 -0.1905,-0.189 -0.0588,0 -0.10692,-0.0572 -0.10692,-0.127 0,-0.0775 -0.079,-0.127 -0.20261,-0.127 -0.11144,0 -0.22394,-0.0556 -0.25002,-0.12354 -0.0261,-0.0679 -0.17303,-0.15552 -0.32656,-0.1946 -0.16021,-0.0408 -0.31476,-0.15047 -0.36272,-0.25745 -0.0647,-0.14426 -0.15561,-0.18641 -0.40217,-0.18641 -0.22675,0 -0.31859,-0.0366 -0.31859,-0.127 0,-0.0699 -0.0507,-0.127 -0.11269,-0.127 -0.062,0 -0.16367,-0.0952 -0.22598,-0.21166 -0.0623,-0.11642 -0.16399,-0.21167 -0.22597,-0.21167 -0.062,0 -0.11269,-0.0572 -0.11269,-0.127 0,-0.0783 -0.0795,-0.127 -0.20738,-0.127 -0.19001,0 -0.72256,-0.45179 -0.72356,-0.61383 -2.6e-4,-0.0349 -0.096,-0.0635 -0.21289,-0.0635 -0.11687,0 -0.27774,-0.0762 -0.35748,-0.16934 -0.0797,-0.0931 -0.21272,-0.16933 -0.29551,-0.16933 -0.0923,0 -0.15052,-0.0633 -0.15052,-0.16357 0,-0.16047 -0.40197,-0.51376 -0.58457,-0.51376 -0.051,0 -0.0928,-0.0572 -0.0928,-0.127 0,-0.0781 -0.0794,-0.127 -0.20619,-0.127 -0.15761,0 -0.23069,-0.0678 -0.31023,-0.28774 -0.0856,-0.23675 -0.15784,-0.29638 -0.40764,-0.33653 -0.17426,-0.028 -0.349,-0.12184 -0.41016,-0.22026 -0.0592,-0.0953 -0.19722,-0.17147 -0.31077,-0.17147 -0.15807,0 -0.21683,-0.0574 -0.26001,-0.254 -0.0487,-0.22185 -0.0924,-0.254 -0.34539,-0.254 -0.15929,0 -0.28961,-0.0381 -0.28961,-0.0847 0,-0.0466 -0.0953,-0.0847 -0.21167,-0.0847 -0.1317,0 -0.21166,-0.048 -0.21166,-0.127 0,-0.0699 -0.0512,-0.127 -0.11388,-0.127 -0.14586,0 -0.39412,-0.27255 -0.39412,-0.43268 0,-0.073 -0.15772,-0.16959 -0.38804,-0.2376 -0.21343,-0.063 -0.408,-0.16658 -0.4324,-0.23015 -0.0244,-0.0636 -0.0784,-0.11557 -0.11995,-0.11557 -0.14605,0 -0.0734,0.27579 0.14191,0.53871 0.76931,0.93945 0.89074,1.21739 0.48766,1.11622 -0.12438,-0.0312 -0.32002,-0.1306 -0.43475,-0.22085 -0.11473,-0.0902 -0.29904,-0.16408 -0.40958,-0.16408 -0.11054,0 -0.35877,-0.1143 -0.55162,-0.254 -0.19285,-0.1397 -0.41668,-0.254 -0.49739,-0.254 -0.0807,0 -0.16501,-0.0698 -0.18731,-0.15507 -0.0258,-0.0985 -0.18389,-0.1952 -0.43321,-0.265 -0.21596,-0.0605 -0.39266,-0.14824 -0.39266,-0.19506 0,-0.0468 -0.0953,-0.17339 -0.21166,-0.28129 -0.11642,-0.10789 -0.21167,-0.23608 -0.21167,-0.28487 0,-0.0488 -0.0787,-0.0887 -0.1749,-0.0887 -0.24628,0 -0.50243,-0.1526 -0.50243,-0.29931 0,-0.0737 -0.0807,-0.12402 -0.19904,-0.12402 -0.36684,0 -0.73123,-0.17795 -0.78248,-0.38213 -0.0281,-0.11187 -0.13478,-0.21736 -0.24882,-0.24598 -0.10981,-0.0276 -0.36013,-0.24041 -0.55625,-0.473 -0.29816,-0.35361 -0.40345,-0.42289 -0.64264,-0.42289 -0.26925,0 -0.2803,0.0112 -0.18807,0.1905 0.0539,0.10477 0.18394,0.28575 0.289,0.40216 0.16501,0.18286 0.19879,0.34129 0.2482,1.16417 0.0315,0.52387 0.0266,0.95155 -0.0109,0.95039 -0.0374,-0.001 -0.3919,-0.26774 -0.78772,-0.59242 -0.39582,-0.32467 -0.76595,-0.59043 -0.82252,-0.59056 -0.0566,-1.3e-4 -0.14364,-0.0764 -0.19348,-0.16958 -0.0498,-0.0931 -0.14282,-0.16933 -0.20661,-0.16933 -0.0638,0 -0.60668,-0.46673 -1.2064,-1.03717 -0.59974,-0.57044 -1.19096,-1.08966 -1.31385,-1.15381 -0.36918,-0.19275 -0.64274,-0.0642 -0.83931,0.39437 -0.0942,0.21968 -0.2581,0.51376 -0.3643,0.65351 -0.31871,0.41939 -0.4722,0.77846 -0.4722,1.10466 0,0.17559 -0.0749,0.41388 -0.17384,0.55277 -0.29892,0.4198 -0.68089,1.34913 -0.73205,1.78106 -0.0318,0.26865 -0.0895,0.41394 -0.16423,0.41394 -0.0882,0 -0.11521,0.17039 -0.11521,0.7276 0,0.65638 -0.0166,0.73192 -0.16933,0.77187 -0.0931,0.0244 -0.16934,0.10131 -0.16934,0.17102 0,0.0994 -0.0594,0.11322 -0.27516,0.0642 -0.15134,-0.0344 -0.48472,-0.0599 -0.74084,-0.0567 -0.29894,0.004 -0.64755,-0.065 -0.97366,-0.19204 -0.30982,-0.12072 -0.80123,-0.22128 -1.25963,-0.25776 -1.14563,-0.0912 -1.38497,-0.18442 -1.57702,-0.61433 -0.1327,-0.29706 -0.13931,-0.35983 -0.0379,-0.35983 0.0922,0 0.12286,-0.11391 0.12286,-0.45579 0,-0.37169 0.0288,-0.46332 0.15608,-0.49661 0.12253,-0.032 0.16803,-0.15514 0.21167,-0.57263 0.0306,-0.29249 0.0556,-0.71228 0.0556,-0.93285 0,-0.32983 0.0301,-0.4089 0.16934,-0.44532 0.13454,-0.0352 0.16933,-0.11548 0.16933,-0.39087 0,-0.25164 0.0348,-0.3466 0.127,-0.3466 0.0907,0 0.127,-0.0923 0.127,-0.32248 0,-0.17737 0.0549,-0.39644 0.12188,-0.48683 0.067,-0.0904 0.16957,-0.49773 0.22786,-0.90519 0.0715,-0.49996 0.14201,-0.74083 0.21679,-0.74083 0.0826,0 0.1108,-0.18315 0.1108,-0.71967 0,-0.7112 0.002,-0.71966 0.21167,-0.71966 0.1905,0 0.21167,-0.0339 0.21167,-0.33867 0,-0.24459 0.0353,-0.33867 0.127,-0.33867 0.10091,0 0.127,-0.12296 0.127,-0.59871 0,-0.41453 0.0384,-0.6371 0.12476,-0.72348 0.0686,-0.0686 0.16365,-0.28497 0.21117,-0.48078 0.0475,-0.19582 0.13033,-0.47033 0.18402,-0.61003 0.0537,-0.1397 0.13681,-0.58737 0.18471,-0.99483 0.0605,-0.51453 0.12135,-0.74083 0.19922,-0.74083 0.0764,0 0.11212,-0.12125 0.11212,-0.381 0,-0.20955 0.0381,-0.381 0.0847,-0.381 0.0466,0 0.0847,-0.1524 0.0847,-0.33867 0,-0.24459 0.0353,-0.33867 0.127,-0.33867 0.0843,0 0.127,-0.0843 0.127,-0.25104 0,-0.13807 0.0532,-0.4143 0.11821,-0.61383 0.065,-0.19954 0.14448,-0.51388 0.17659,-0.69853 0.0321,-0.18466 0.10813,-0.43231 0.16893,-0.55034 0.0608,-0.11802 0.34335,-1.22424 0.62787,-2.45826 0.28453,-1.23401 0.57572,-2.34699 0.64709,-2.47329 0.0714,-0.12629 0.16485,-0.46919 0.20773,-0.762 0.0429,-0.2928 0.12644,-0.71335 0.18569,-0.93454 0.10335,-0.38583 0.12017,-0.40217 0.41408,-0.40217 h 0.30636 l 0.0507,-1.12207 c 0.0608,-1.34413 0.17848,-1.78803 0.48363,-1.8237 0.19944,-0.0233 0.23639,0.0415 0.62795,1.10067 0.22882,0.61899 0.70497,1.69293 1.0581,2.38654 0.8228,1.61614 0.84766,1.6599 0.943,1.6599 0.044,0 0.08,0.0952 0.08,0.21166 0,0.13171 0.048,0.21167 0.127,0.21167 0.0847,0 0.127,0.0847 0.127,0.254 0,0.1397 0.0381,0.254 0.0847,0.254 0.0466,0 0.0847,0.0667 0.0847,0.14817 4e-5,0.0815 0.13339,0.29796 0.29633,0.48104 0.22874,0.257 0.29627,0.40658 0.29627,0.65617 0,0.23092 0.0363,0.32329 0.127,0.32329 0.0699,0 0.127,0.0571 0.127,0.127 0,0.0699 0.0571,0.127 0.127,0.127 0.0699,0 0.127,0.0572 0.127,0.127 0,0.0699 0.0381,0.127 0.0847,0.127 0.0466,0 0.0847,0.0774 0.0847,0.17199 0,0.0946 0.0572,0.19392 0.127,0.22072 0.0699,0.0268 0.127,0.10181 0.127,0.16668 0,0.0649 0.0571,0.11794 0.127,0.11794 0.0855,0 0.127,0.0855 0.127,0.26193 0,0.18544 0.0466,0.27412 0.15969,0.30368 0.1053,0.0275 0.17781,0.14739 0.21289,0.35191 0.0531,0.30943 0.38653,0.77581 0.5547,0.77581 0.0488,0 0.0887,0.0715 0.0887,0.15897 0,0.0874 0.0597,0.20848 0.13259,0.269 0.0729,0.0605 0.1882,0.21758 0.25617,0.34903 0.068,0.13145 0.18978,0.239 0.27067,0.239 0.0809,0 0.1847,0.0857 0.23066,0.1905 0.046,0.10478 0.16931,0.22811 0.27408,0.27408 0.10478,0.046 0.1905,0.15325 0.1905,0.2384 0,0.26036 0.13783,0.43437 0.58602,0.73985 0.23631,0.16106 0.42973,0.33473 0.42982,0.38592 8e-5,0.0512 0.25734,0.3425 0.57166,0.64733 0.31433,0.30483 0.67875,0.71062 0.80982,0.90175 0.15943,0.23246 0.30109,0.34751 0.4279,0.34751 0.10709,0 0.3165,0.13248 0.48134,0.30453 0.16047,0.1675 0.3775,0.338 0.48227,0.37891 0.11035,0.0431 0.1905,0.1465 0.1905,0.24579 0,0.11397 0.0558,0.17143 0.16636,0.17143 0.0915,0 0.20713,0.0762 0.25698,0.16934 0.0498,0.0931 0.14269,0.16933 0.20633,0.16933 0.13239,0 0.48068,0.5085 0.41789,0.61011 -0.0228,0.037 -0.2679,0.0672 -0.54455,0.0672 -0.37778,0 -0.50301,0.0299 -0.50301,0.12007 0,0.23348 0.10474,0.38793 0.26306,0.38793 0.0881,0 0.23648,0.0762 0.32961,0.16933 0.0931,0.0931 0.22576,0.16933 0.29472,0.16933 0.069,0 0.14929,0.0952 0.17851,0.21167 0.0316,0.126 0.11375,0.21167 0.20292,0.21167 0.0824,0 0.19721,0.0572 0.25518,0.127 0.058,0.0699 0.17207,0.127 0.25355,0.127 0.10737,0 0.16305,0.0932 0.2023,0.33866 0.0369,0.23085 0.0971,0.33867 0.18914,0.33867 0.0742,0 0.2099,0.0952 0.30147,0.21167 0.0916,0.11641 0.24113,0.21166 0.33235,0.21166 0.0912,0 0.18777,0.0572 0.21458,0.127 0.0268,0.0699 0.0887,0.127 0.13751,0.127 0.0488,0 0.21367,0.0952 0.3663,0.21167 0.15263,0.11642 0.30862,0.21193 0.34666,0.21225 0.038,3.4e-4 0.15978,0.13366 0.27056,0.29633 0.11078,0.16266 0.26606,0.29576 0.34507,0.29576 0.079,0 0.23315,0.0952 0.34251,0.21166 0.10937,0.11642 0.24936,0.21167 0.3111,0.21167 0.0617,0 0.11224,0.0572 0.11224,0.127 0,0.0699 0.0571,0.127 0.127,0.127 0.0699,0 0.127,0.0572 0.127,0.127 0,0.0699 0.0698,0.127 0.15502,0.127 0.0853,0 0.20179,0.0857 0.25894,0.1905 0.0572,0.10477 0.25777,0.28575 0.44582,0.40217 0.18806,0.11641 0.39404,0.31194 0.45775,0.43451 0.077,0.14826 0.21086,0.24068 0.39976,0.27612 0.35873,0.0673 0.95505,0.50125 1.09695,0.79826 0.0602,0.12611 0.19252,0.23878 0.29798,0.25382 0.10799,0.0154 0.57815,0.42545 1.09211,0.9525 0.50299,0.51579 0.9715,0.92545 1.05841,0.92545 0.0858,0 0.15592,0.0305 0.15592,0.0678 0,0.1428 0.86746,1.0329 1.00663,1.0329 0.0805,0 0.71251,0.5941 1.4044,1.32022 0.69189,0.72612 1.41353,1.41651 1.60364,1.53421 0.47617,0.29479 0.81133,0.62123 0.81133,0.79022 0,0.0779 0.093,0.21144 0.20658,0.29676 0.11361,0.0853 0.22795,0.24032 0.25408,0.34444 0.0261,0.10412 0.53905,0.65431 1.13981,1.22265 0.60077,0.56834 1.14057,1.12353 1.19956,1.23376 0.059,0.11022 0.16749,0.20202 0.24111,0.20399 0.13594,0.004 0.51432,0.518 0.51552,0.70079 7.7e-4,0.1153 0.38436,0.31163 0.60889,0.31163 0.11266,0 0.15245,0.0657 0.15245,0.25182 0,0.19932 -0.0574,0.28064 -0.27516,0.39002 -0.15134,0.076 -0.46567,0.32136 -0.6985,0.54522 -0.51342,0.49365 -1.36013,0.77143 -1.52723,0.50105 z"
       id="path2014" />
  </g>
</svg>
