<?xml version="1.0" encoding="UTF-8" standalone="no"?>
<svg
   xmlns:dc="http://purl.org/dc/elements/1.1/"
   xmlns:cc="http://creativecommons.org/ns#"
   xmlns:rdf="http://www.w3.org/1999/02/22-rdf-syntax-ns#"
   xmlns:svg="http://www.w3.org/2000/svg"
   xmlns="http://www.w3.org/2000/svg"
   width="62.478779mm"
   height="89.163116mm"
   viewBox="0 0 62.478779 89.163116"
   version="1.1"
   id="svg838">
  <defs
     id="defs832" />
  <metadata
     id="metadata835">
    <rdf:RDF>
      <cc:Work
         rdf:about="">
        <dc:format>image/svg+xml</dc:format>
        <dc:type
           rdf:resource="http://purl.org/dc/dcmitype/StillImage" />
        <dc:title></dc:title>
      </cc:Work>
    </rdf:RDF>
  </metadata>
  <g
     id="layer1"
     transform="translate(-71.53908,-90.00309)">
    <path
       style="fill:#000000;stroke-width:0.0846667"
       d="m 94.51219,179.04775 c -0.636033,-0.13578 -1.556809,-0.18121 -4.0005,-0.19734 -1.3125,-0.009 -1.545166,-0.0293 -1.545166,-0.13722 0,-0.10482 -0.155222,-0.127 -0.889,-0.127 -0.733778,0 -0.889,-0.0222 -0.889,-0.127 0,-0.10744 -0.202683,-0.127 -1.316143,-0.127 -1.256558,0 -1.378259,-0.0155 -2.688167,-0.3434 -0.754613,-0.18886 -1.614161,-0.41746 -1.910109,-0.508 -0.295946,-0.0905 -0.676946,-0.16425 -0.846666,-0.16382 -0.583558,0.001 -2.213582,-0.34876 -2.213582,-0.47562 0,-0.0864 -0.124307,-0.11782 -0.465666,-0.11782 -0.34935,0 -0.465667,-0.0305 -0.465667,-0.1222 0,-0.1743 -0.335229,-0.3858 -0.611505,-0.3858 -0.129339,0 -0.235161,-0.0389 -0.235161,-0.0864 0,-0.0475 -0.17145,-0.20727 -0.381,-0.35497 -0.268029,-0.18892 -0.381,-0.32778 -0.381,-0.46832 0,-0.14585 -0.06856,-0.22368 -0.254,-0.28832 -0.2383,-0.0831 -0.254,-0.11575 -0.254,-0.52875 0,-0.39798 0.03079,-0.47027 0.321069,-0.75372 0.176589,-0.17243 0.367089,-0.31351 0.423334,-0.31351 0.05624,0 0.102263,-0.0353 0.102263,-0.0784 0,-0.0431 0.214981,-0.18362 0.477736,-0.31218 0.262754,-0.12855 0.494879,-0.29929 0.515833,-0.37942 0.02935,-0.11224 0.172345,-0.15917 0.622931,-0.20442 0.416547,-0.0418 0.584833,-0.0928 0.584833,-0.17713 0,-0.0789 0.09893,-0.11841 0.296334,-0.11841 0.206963,0 0.296333,-0.0383 0.296333,-0.127 0,-0.0938 0.09822,-0.127 0.376003,-0.127 0.206802,0 0.399551,-0.0381 0.42833,-0.0847 0.02878,-0.0466 0.198402,-0.0847 0.376939,-0.0847 0.210439,0 0.341752,-0.0447 0.373346,-0.127 0.03805,-0.0992 0.207096,-0.127 0.771059,-0.127 0.665878,0 0.722323,-0.0132 0.722323,-0.16933 0,-0.15033 0.05644,-0.16933 0.503003,-0.16933 0.276652,0 0.52655,-0.0381 0.55533,-0.0847 0.02878,-0.0466 0.312702,-0.0847 0.630939,-0.0847 0.436217,0 0.590605,-0.0312 0.627346,-0.127 0.03772,-0.0983 0.202393,-0.127 0.728725,-0.127 0.514475,0 0.67999,-0.0278 0.67999,-0.11432 0,-0.12317 0.979532,-0.22434 2.172007,-0.22434 0.468302,0 0.621993,-0.0285 0.621993,-0.11527 0,-0.0915 0.335911,-0.12564 1.629834,-0.1656 1.047313,-0.0323 1.826528,-0.0988 2.180166,-0.18596 0.302683,-0.0746 0.636058,-0.15691 0.740833,-0.18293 0.104775,-0.026 0.1905,-0.10002 0.1905,-0.16445 0,-0.0737 0.09418,-0.11713 0.254,-0.11713 0.14647,0 0.254227,-0.0448 0.254536,-0.10583 5.08e-4,-0.0983 0.157929,-0.21462 0.801278,-0.59202 0.336637,-0.19748 1.550192,-1.40256 1.702372,-1.69048 0.0667,-0.12614 0.16084,-0.51425 0.20927,-0.86248 0.0879,-0.6318 0.0874,-0.63441 -0.21203,-1.22905 -0.16505,-0.32775 -0.30009,-0.61591 -0.30009,-0.64036 0,-0.0244 1.20259,-0.0444 2.67241,-0.0444 h 2.672424 l -0.1663,0.3175 c -0.0915,0.17462 -0.21135,0.64135 -0.26641,1.03716 -0.0551,0.39582 -0.12076,0.82445 -0.14603,0.9525 -0.0333,0.16905 -0.0119,0.23284 0.0783,0.23284 0.0711,0 0.16671,0.14196 0.22373,0.33226 0.0787,0.26266 0.15078,0.34352 0.34414,0.38599 0.17332,0.0381 0.26116,0.12011 0.30144,0.28157 0.0786,0.31479 0.4281,0.75447 0.65745,0.82697 0.1048,0.0331 0.31084,0.15183 0.45785,0.26377 0.14701,0.11194 0.40419,0.22574 0.5715,0.2529 0.177,0.0287 0.3042,0.0978 0.3042,0.16528 0,0.0638 0.0572,0.11592 0.127,0.11592 0.0699,0 0.127,0.0511 0.127,0.11345 0,0.11347 0.30005,0.23187 1.016,0.40091 0.20955,0.0495 1.09538,0.11138 1.9685,0.13757 1.26389,0.0379 1.5875,0.0712 1.5875,0.16351 0,0.0859 0.13897,0.1159 0.53695,0.1159 0.29532,0 1.05732,0.0249 1.69333,0.0555 0.88473,0.0424 1.15639,0.0822 1.15639,0.16933 0,0.0838 0.15105,0.11485 0.5715,0.11756 0.31433,0.002 0.74295,0.0421 0.9525,0.0891 0.20955,0.0469 0.58173,0.10722 0.82706,0.13393 0.24534,0.0267 0.46666,0.0819 0.49183,0.12262 0.0252,0.0407 0.26407,0.074 0.53087,0.074 0.31795,0 0.59955,0.0583 0.81724,0.16933 0.18268,0.0931 0.40148,0.16933 0.48623,0.16933 0.0847,0 0.17602,0.0571 0.20282,0.127 0.0301,0.0784 0.15876,0.127 0.33601,0.127 0.158,0 0.28727,0.0381 0.28727,0.0847 0,0.0466 0.20955,0.0847 0.46567,0.0847 0.35748,0 0.46567,0.0295 0.46567,0.127 0,0.0887 0.0894,0.127 0.29633,0.127 0.19455,0 0.29633,0.0399 0.29633,0.11606 0,0.0819 0.17837,0.13363 0.60678,0.17585 0.50295,0.0496 0.63467,0.0952 0.76982,0.26707 0.0897,0.11401 0.28915,0.25997 0.44327,0.32437 0.15412,0.0644 0.36732,0.23488 0.47377,0.37886 0.10645,0.14399 0.23689,0.26179 0.28986,0.26179 0.053,0 0.17916,0.0882 0.28041,0.19595 0.23384,0.24891 0.23948,0.67561 0.0148,1.11638 -0.0931,0.18268 -0.16933,0.37977 -0.16933,0.43797 0,0.0582 -0.16193,0.14721 -0.35984,0.19778 -0.47484,0.12134 -0.91016,0.3509 -0.91016,0.47996 0,0.0637 -0.19537,0.12566 -0.508,0.16102 -0.46188,0.0523 -0.508,0.0757 -0.508,0.25821 0,0.14866 -0.047,0.20073 -0.18117,0.20073 -0.0996,0 -0.22988,0.0667 -0.28942,0.14816 -0.0871,0.11916 -0.26709,0.15391 -0.9195,0.17751 -0.62593,0.0226 -0.81125,0.0565 -0.81125,0.14816 0,0.0654 -0.0762,0.11883 -0.16933,0.11883 -0.0941,0 -0.16933,0.0565 -0.16933,0.127 0,0.10293 -0.13641,0.127 -0.71967,0.127 -0.42333,0 -0.71967,0.0349 -0.71967,0.0847 0,0.0466 -0.1524,0.0847 -0.33866,0.0847 -0.2446,0 -0.33867,0.0353 -0.33867,0.127 0,0.0963 -0.10748,0.1279 -0.4445,0.13071 -0.24447,0.002 -0.5969,0.0596 -0.78317,0.1278 -0.22994,0.0842 -0.87548,0.1417 -2.01083,0.17898 -1.31531,0.0432 -1.67217,0.0791 -1.67217,0.16853 0,0.085 -0.16017,0.11364 -0.635,0.11364 -0.508,0 -0.635,0.0254 -0.635,0.127 0,0.10854 -0.26155,0.12871 -1.79916,0.13872 -2.85718,0.0186 -3.53161,0.0513 -4.27797,0.20763 -0.63895,0.1338 -0.84145,0.13692 -2.294654,0.0354 -0.87663,-0.0613 -1.97097,-0.0873 -2.43187,-0.0579 -2.113721,0.13498 -2.451608,0.13617 -3.039346,0.0107 z M 82.828191,164.11646 c -0.186267,-0.0329 -0.433917,-0.11183 -0.550334,-0.17533 -0.357701,-0.19512 -1.193828,-1.04227 -1.370827,-1.38891 -0.234294,-0.45884 -0.277199,-1.0979 -0.11154,-1.66136 0.0753,-0.25611 0.159444,-0.56091 0.186988,-0.67733 0.02754,-0.11642 0.101673,-0.24214 0.16473,-0.27938 0.06306,-0.0372 0.114649,-0.11888 0.114649,-0.18144 0,-0.0625 0.0542,-0.13453 0.120434,-0.15995 0.06624,-0.0254 0.132913,-0.13391 0.148166,-0.24109 0.01631,-0.11461 0.127376,-0.2425 0.269625,-0.31048 l 0.241891,-0.11558 -0.268284,-0.24504 c -0.147555,-0.13477 -0.313916,-0.24504 -0.369691,-0.24504 -0.05577,0 -0.15144,-0.0801 -0.212588,-0.17803 -0.07752,-0.12413 -0.172116,-0.16638 -0.312458,-0.13955 -0.224073,0.0428 -0.294428,-0.065 -0.294428,-0.45135 0,-0.16317 0.04312,-0.24707 0.127,-0.24707 0.07902,0 0.127,-0.08 0.127,-0.21167 0,-0.11641 0.0381,-0.21166 0.08467,-0.21166 0.04657,0 0.08467,-0.1143 0.08467,-0.254 0,-0.16934 0.04233,-0.254 0.127,-0.254 0.06985,0 0.127,-0.0721 0.127,-0.16028 0,-0.0881 0.05147,-0.18003 0.114382,-0.20417 0.06801,-0.0261 0.134176,-0.23569 0.163207,-0.51698 0.02685,-0.2602 0.108734,-0.53299 0.181952,-0.60621 0.07322,-0.0732 0.133126,-0.21954 0.133126,-0.32516 0,-0.12266 0.07645,-0.22686 0.211667,-0.28847 0.167448,-0.0763 0.211666,-0.15872 0.211666,-0.39459 0,-0.20857 0.03816,-0.29814 0.127,-0.29814 0.08182,0 0.127412,-0.0828 0.128156,-0.23284 0.0018,-0.36254 0.09202,-0.61383 0.220386,-0.61383 0.06849,0 0.117125,-0.0879 0.117125,-0.21167 0,-0.11914 0.04897,-0.21166 0.112039,-0.21166 0.06544,0 0.212015,-0.30088 0.35243,-0.72345 0.192324,-0.57878 0.267268,-0.71246 0.374795,-0.66855 0.07392,0.0302 0.411155,0.0873 0.749408,0.1268 0.338252,0.0395 0.699155,0.13084 0.802006,0.20288 0.102849,0.072 0.292822,0.13098 0.422161,0.13098 0.152587,0 0.235161,0.0446 0.235161,0.127 0,0.0699 0.05715,0.127 0.127,0.127 0.06985,0 0.127,0.0381 0.127,0.0847 0,0.0466 0.20955,0.0847 0.465667,0.0847 0.357481,0 0.465666,0.0295 0.465666,0.127 0,0.0887 0.08937,0.127 0.296334,0.127 0.206962,0 0.296333,0.0383 0.296333,0.127 0,0.0934 0.09737,0.127 0.368366,0.127 0.44602,0 0.871322,0.13755 0.934522,0.30225 0.02881,0.0751 0.166551,0.12108 0.362532,0.12108 0.173838,0 0.641758,0.0735 1.039825,0.16323 0.398065,0.0898 1.079546,0.20198 1.514402,0.24935 0.486345,0.053 0.919116,0.15308 1.12444,0.2601 0.282506,0.14725 0.489501,0.17399 1.347186,0.17399 0.557367,0 1.013393,0.0335 1.013393,0.0744 0,0.041 0.466729,0.0991 1.037169,0.12931 0.57044,0.0302 1.39912,0.0828 1.8415,0.11685 0.44238,0.0341 1.18533,0.0325 1.651,-0.004 0.465674,-0.0361 1.313394,-0.0886 1.883834,-0.11684 0.57045,-0.0282 1.03717,-0.0848 1.03717,-0.12573 0,-0.041 0.4953,-0.0744 1.10067,-0.0744 0.92192,0 1.10066,-0.0206 1.10066,-0.127 0,-0.1023 0.13171,-0.127 0.67734,-0.127 0.54563,0 0.67733,-0.0247 0.67733,-0.127 0,-0.0974 0.10778,-0.127 0.46203,-0.127 0.57914,0 2.46113,-0.4777 3.65617,-0.92803 0.49911,-0.18808 0.95779,-0.34196 1.0193,-0.34196 0.0615,0 0.11183,-0.0381 0.11183,-0.0847 0,-0.0466 0.0953,-0.0847 0.21167,-0.0847 0.1317,0 0.21167,-0.048 0.21167,-0.127 0,-0.0705 0.0753,-0.127 0.16933,-0.127 0.0941,0 0.16933,-0.0564 0.16933,-0.127 0,-0.091 0.0929,-0.127 0.32809,-0.127 0.4993,0 0.85725,-0.0928 0.85725,-0.22225 0,-0.064 0.0762,-0.11641 0.16933,-0.11641 0.0931,0 0.16972,-0.0476 0.17019,-0.10584 5.1e-4,-0.0582 0.15288,-0.16968 0.33867,-0.24771 0.18579,-0.078 0.33781,-0.19691 0.33781,-0.26416 0,-0.073 0.15653,-0.16611 0.38871,-0.23112 0.21378,-0.0599 0.40836,-0.16006 0.43239,-0.22267 0.024,-0.0626 0.14924,-0.11384 0.27825,-0.11384 0.12902,0 0.28201,-0.0572 0.33998,-0.127 0.058,-0.0699 0.15789,-0.127 0.22203,-0.127 0.0641,0 0.11664,-0.0571 0.11664,-0.127 0,-0.0699 0.038,-0.127 0.0844,-0.127 0.0464,0 0.23203,-0.13335 0.41243,-0.29633 0.1804,-0.16298 0.38362,-0.29633 0.4516,-0.29633 0.068,0 0.17277,-0.0919 0.23287,-0.20418 0.066,-0.12336 0.21411,-0.22392 0.37414,-0.25405 0.27154,-0.0511 1.2835,-0.99396 1.48471,-1.38327 0.0541,-0.10478 0.17661,-0.1905 0.27214,-0.1905 0.0988,0 0.36823,-0.19926 0.62504,-0.46231 0.24824,-0.25426 0.54974,-0.48699 0.67,-0.51717 0.15203,-0.0382 0.21865,-0.11152 0.21865,-0.24076 0,-0.10223 0.13335,-0.31513 0.29633,-0.4731 0.16298,-0.15797 0.29633,-0.35088 0.29633,-0.42869 0,-0.0778 0.1524,-0.24233 0.33867,-0.36559 0.18627,-0.12327 0.33867,-0.27482 0.33867,-0.3368 0,-0.062 0.0762,-0.18163 0.16933,-0.26592 0.0931,-0.0843 0.16933,-0.22051 0.16933,-0.30273 0,-0.0973 0.0888,-0.16897 0.254,-0.20527 0.16627,-0.0365 0.254,-0.10787 0.254,-0.20658 0,-0.0829 0.0952,-0.29115 0.21167,-0.4627 0.11642,-0.17155 0.21167,-0.37093 0.21167,-0.44307 0,-0.0721 0.0762,-0.15109 0.16933,-0.17545 0.12724,-0.0333 0.16933,-0.11549 0.16933,-0.33074 0,-0.21985 0.0356,-0.28646 0.15304,-0.28646 0.098,0 0.2085,-0.12571 0.30721,-0.34944 0.0848,-0.19219 0.22139,-0.36701 0.30355,-0.38849 0.1525,-0.0399 0.2522,-0.35481 0.2522,-0.79665 0,-0.15993 0.0436,-0.24342 0.127,-0.24342 0.0699,0 0.127,-0.0571 0.127,-0.127 0,-0.0699 0.0572,-0.127 0.127,-0.127 0.0732,0 0.127,-0.0765 0.127,-0.18067 0,-0.31712 0.19215,-0.83533 0.30974,-0.83533 0.0625,0 0.1136,-0.0736 0.1136,-0.16362 0,-0.09 0.0762,-0.18782 0.16933,-0.21738 0.12601,-0.04 0.16933,-0.1281 0.16933,-0.34437 0,-0.15984 0.0381,-0.29063 0.0847,-0.29063 0.0466,0 0.0847,-0.0528 0.0847,-0.11732 0,-0.0645 0.0569,-0.22645 0.12648,-0.35983 0.0696,-0.13338 0.12671,-0.32416 0.127,-0.42396 2.5e-4,-0.0998 0.0529,-0.20154 0.11693,-0.22611 0.073,-0.028 0.13865,-0.25226 0.17608,-0.60173 0.0425,-0.39684 0.0942,-0.55705 0.17991,-0.55705 0.081,0 0.12026,-0.0968 0.12026,-0.29633 0,-0.19105 0.0403,-0.29633 0.11331,-0.29633 0.0799,0 0.14514,-0.24974 0.22121,-0.84667 0.0782,-0.61373 0.14021,-0.84667 0.22536,-0.84667 0.0879,0 0.11746,-0.13612 0.11746,-0.54127 0,-0.40303 0.0324,-0.55372 0.127,-0.59001 0.0817,-0.0314 0.12724,-0.1629 0.12768,-0.36889 3.4e-4,-0.17609 0.0553,-0.73926 0.12213,-1.25149 0.30186,-2.31473 0.35625,-5.0557 0.12549,-6.32299 -0.0451,-0.24769 -0.11681,-0.86945 -0.15935,-1.38168 -0.0425,-0.51223 -0.17873,-1.40758 -0.30263,-1.98967 -0.12391,-0.58208 -0.25695,-1.32503 -0.29566,-1.651 -0.0709,-0.5967 -0.66057,-2.68028 -1.05575,-3.73018 -0.1171,-0.3111 -0.21291,-0.69446 -0.21291,-0.8519 0,-0.15744 -0.0381,-0.28625 -0.0847,-0.28625 -0.0466,0 -0.0847,-0.0952 -0.0847,-0.21167 0,-0.15522 -0.0452,-0.21166 -0.16933,-0.21166 -0.13708,0 -0.16933,-0.0564 -0.16933,-0.29634 0,-0.19133 -0.0402,-0.29633 -0.11353,-0.29633 -0.0685,0 -0.15483,-0.18456 -0.21774,-0.46567 -0.0668,-0.29844 -0.14763,-0.46566 -0.22514,-0.46566 -0.0818,0 -0.12093,-0.096 -0.12093,-0.29634 0,-0.19817 -0.0394,-0.29633 -0.11905,-0.29633 -0.0791,0 -0.13912,-0.14589 -0.17878,-0.43425 -0.0513,-0.37318 -0.0931,-0.44687 -0.29724,-0.52391 -0.20111,-0.0759 -0.25452,-0.16629 -0.34844,-0.58967 -0.0838,-0.37748 -0.16846,-0.54098 -0.34571,-0.66719 -0.1464,-0.10425 -0.23478,-0.24468 -0.23478,-0.37308 0,-0.11325 -0.0762,-0.2821 -0.16933,-0.37524 -0.0931,-0.0931 -0.16933,-0.20743 -0.16933,-0.254 0,-0.0466 -0.0381,-0.0847 -0.0847,-0.0847 -0.0466,0 -0.0847,-0.0952 -0.0847,-0.21166 0,-0.13171 -0.048,-0.21167 -0.127,-0.21167 -0.0699,0 -0.127,-0.0568 -0.127,-0.12628 0,-0.0694 -0.0762,-0.17387 -0.16933,-0.23204 -0.0931,-0.0582 -0.16933,-0.18707 -0.16933,-0.28646 0,-0.12901 -0.0666,-0.19453 -0.23284,-0.22898 -0.20614,-0.0427 -0.4445,-0.35507 -0.4445,-0.58245 0,-0.0921 -0.32028,-0.40646 -0.41415,-0.40646 -0.0415,0 -0.0992,-0.0944 -0.12816,-0.20985 -0.0295,-0.11759 -0.24757,-0.35497 -0.49601,-0.53995 -0.52883,-0.39375 -0.78507,-0.66643 -0.86056,-0.91578 -0.0306,-0.10115 -0.20645,-0.32013 -0.39073,-0.48661 -0.18428,-0.16649 -0.33505,-0.35519 -0.33505,-0.41934 0,-0.0642 -0.10796,-0.13823 -0.2399,-0.16461 -0.16079,-0.0322 -0.3596,-0.20315 -0.60296,-0.51859 -0.22274,-0.2887 -0.42749,-0.4706 -0.52975,-0.4706 -0.0917,0 -0.26697,-0.1143 -0.38955,-0.254 -0.12259,-0.1397 -0.26224,-0.254 -0.31034,-0.254 -0.0481,0 -0.19604,-0.13023 -0.32875,-0.2894 -0.13271,-0.15917 -0.33142,-0.31202 -0.44158,-0.33967 -0.11016,-0.0276 -0.24083,-0.12601 -0.29037,-0.2186 -0.0495,-0.0926 -0.1459,-0.16833 -0.21411,-0.16833 -0.0682,0 -0.12403,-0.0553 -0.12403,-0.1228 0,-0.0873 -0.14703,-0.13943 -0.508,-0.18027 -0.48179,-0.0545 -0.508,-0.0693 -0.508,-0.28694 0,-0.24021 -0.26021,-0.42599 -0.59665,-0.42599 -0.0909,0 -0.16535,-0.0571 -0.16535,-0.127 0,-0.0699 -0.0434,-0.127 -0.0965,-0.127 -0.0531,0 -0.14013,-0.0597 -0.19347,-0.13262 -0.0533,-0.0729 -0.25553,-0.15388 -0.44932,-0.17987 -0.27627,-0.037 -0.3579,-0.0861 -0.37803,-0.22722 -0.016,-0.11196 -0.0977,-0.19018 -0.21618,-0.20701 -0.10477,-0.0149 -0.1905,-0.0802 -0.1905,-0.14525 0,-0.0779 -0.14431,-0.13734 -0.42333,-0.17436 -0.27088,-0.0359 -0.42333,-0.0973 -0.42333,-0.17029 0,-0.16988 -0.33163,-0.34865 -0.762,-0.41078 -0.71612,-0.10338 -0.84667,-0.14413 -0.84667,-0.26433 0,-0.0772 -0.091,-0.12027 -0.254,-0.12027 -0.16029,0 -0.254,-0.0434 -0.254,-0.11758 0,-0.0667 -0.1246,-0.14095 -0.28783,-0.17157 -0.1583,-0.0297 -0.33441,-0.11014 -0.39136,-0.17876 -0.057,-0.0686 -0.19532,-0.12476 -0.3075,-0.12476 -0.11218,0 -0.22589,-0.0571 -0.25269,-0.127 -0.0301,-0.0784 -0.15876,-0.127 -0.33601,-0.127 -0.158,0 -0.28728,-0.0381 -0.28728,-0.0847 0,-0.0466 -0.0762,-0.0847 -0.16933,-0.0847 -0.0931,0 -0.16933,-0.01 -0.16933,-0.0215 0,-0.0622 0.42167,-1.17182 0.50325,-1.32426 0.0525,-0.098 0.15118,-0.1782 0.21939,-0.1782 0.0869,0 0.12402,-0.0952 0.12402,-0.31806 0,-0.40338 0.1343,-0.87743 0.27362,-0.96586 0.14774,-0.0938 0.55227,-0.0882 0.61199,0.008 0.0269,0.0436 0.25793,0.19237 0.51338,0.33073 0.54309,0.29415 0.52158,0.32131 0.56806,-0.71732 0.025,-0.55758 0.0504,-0.62966 0.33333,-0.94279 0.16847,-0.18648 0.35502,-0.47376 0.41456,-0.6384 0.0871,-0.24099 0.16405,-0.30983 0.39444,-0.35305 0.1574,-0.0295 0.30731,-0.10874 0.33313,-0.17602 0.0258,-0.0673 0.13622,-0.12233 0.24535,-0.12233 0.10912,0 0.23294,-0.0617 0.27516,-0.13716 0.0591,-0.10568 0.27881,-0.15147 0.95671,-0.19942 0.48397,-0.0342 0.89264,-0.0297 0.90816,0.0102 0.0155,0.0398 0.0759,0.0724 0.13406,0.0724 0.0582,0 0.21696,0.11531 0.35278,0.25624 0.13582,0.14094 0.37077,0.31044 0.52211,0.37668 0.15464,0.0677 0.27516,0.18321 0.27516,0.26376 0,0.0788 0.1143,0.25255 0.254,0.38605 0.1397,0.13351 0.25458,0.29003 0.25528,0.34784 6.8e-4,0.0578 0.0562,0.25749 0.12328,0.44376 0.0671,0.18627 0.12365,0.60537 0.12566,0.93133 0.003,0.48199 -0.0418,0.68882 -0.23993,1.10755 -0.2414,0.51026 -0.42644,0.70536 -0.93328,0.98401 -0.14429,0.0793 -0.26234,0.18151 -0.26234,0.22707 0,0.14228 0.47724,0.4309 1.06502,0.6441 0.31032,0.11255 0.62927,0.26351 0.70877,0.33546 0.0795,0.072 0.20822,0.13081 0.28604,0.13081 0.0778,0 0.1415,0.0572 0.1415,0.127 0,0.0847 0.0847,0.127 0.254,0.127 0.21449,0 0.254,0.0329 0.254,0.21167 0,0.16933 0.0423,0.21167 0.21167,0.21167 0.1317,0 0.21167,0.048 0.21167,0.127 0,0.0698 0.0531,0.127 0.11794,0.127 0.0649,0 0.13987,0.0572 0.16668,0.127 0.0268,0.0699 0.14301,0.127 0.25825,0.127 0.11524,0 0.25931,0.0692 0.32016,0.15374 0.0609,0.0846 0.17731,0.17861 0.2588,0.20901 0.0815,0.0304 0.14817,0.13266 0.14817,0.22725 0,0.11555 0.0556,0.172 0.16933,0.172 0.0931,0 0.24553,0.0762 0.33867,0.16933 0.0931,0.0931 0.20554,0.16933 0.24979,0.16933 0.0443,0 0.11093,0.0529 0.14817,0.11756 0.0372,0.0647 0.1439,0.13179 0.23704,0.14917 0.0931,0.0174 0.24553,0.17393 0.33866,0.34788 0.11271,0.2105 0.22866,0.31634 0.34671,0.3165 0.0976,8e-5 0.24634,0.0764 0.33063,0.16956 0.0843,0.0931 0.2169,0.16933 0.29469,0.16933 0.15526,0 0.45405,0.29504 0.53719,0.53044 0.029,0.0822 0.14132,0.1831 0.24955,0.22425 0.20751,0.0789 1.16223,1.06169 1.16223,1.19641 0,0.0433 0.15424,0.17614 0.34274,0.29514 0.18851,0.119 0.37024,0.2907 0.40386,0.38157 0.0707,0.1912 0.8474,1.01286 0.9574,1.01286 0.0407,0 0.074,0.0696 0.074,0.15457 0,0.085 0.0953,0.24406 0.21167,0.35343 0.11642,0.10937 0.21167,0.26374 0.21167,0.34306 0,0.17037 0.14608,0.30388 0.38002,0.3473 0.0926,0.0172 0.18032,0.0933 0.19492,0.16914 0.0146,0.0758 0.17697,0.30082 0.36081,0.49995 0.18383,0.19913 0.33425,0.43548 0.33425,0.52523 0,0.092 0.0739,0.18249 0.16933,0.20745 0.0931,0.0244 0.16933,0.097 0.16933,0.16141 0,0.0644 0.0363,0.11713 0.0807,0.11713 0.0444,0 0.14563,0.13684 0.225,0.3041 0.0794,0.16726 0.19546,0.32374 0.25797,0.34773 0.0625,0.024 0.11367,0.11574 0.11367,0.20389 0,0.0882 0.0529,0.16028 0.11757,0.16028 0.0673,0 0.14133,0.12661 0.17317,0.29633 0.0333,0.17738 0.10504,0.29633 0.17876,0.29633 0.0677,0 0.12316,0.0584 0.12316,0.12966 0,0.0713 0.0571,0.15159 0.127,0.1784 0.0825,0.0317 0.127,0.16313 0.127,0.37536 0,0.23333 0.0456,0.35103 0.1596,0.41204 0.0878,0.047 0.18571,0.18949 0.21764,0.31669 0.0319,0.12721 0.13156,0.28277 0.22141,0.34571 0.0898,0.0629 0.16335,0.2087 0.16335,0.32394 0,0.11524 0.0572,0.23145 0.127,0.25826 0.0699,0.0268 0.127,0.12085 0.127,0.20901 0,0.0881 0.0572,0.16027 0.127,0.16027 0.0699,0 0.127,0.0739 0.127,0.16434 0,0.0904 0.0381,0.18788 0.0847,0.21666 0.0466,0.0288 0.0847,0.16438 0.0847,0.30133 0,0.1558 0.0439,0.249 0.11735,0.249 0.15671,0 0.40558,0.54063 0.45639,0.99144 0.0261,0.23118 0.0831,0.36323 0.15693,0.36323 0.081,0 0.11599,0.11485 0.11599,0.381 0,0.34996 0.0172,0.381 0.21167,0.381 0.1674,0 0.21167,0.0428 0.21167,0.20465 0,0.11255 0.0762,0.38241 0.16933,0.59968 0.0931,0.21728 0.16933,0.46808 0.16933,0.55736 0,0.0893 0.0572,0.16231 0.127,0.16231 0.0883,0 0.127,0.0888 0.127,0.29134 0,0.16023 0.0381,0.31488 0.0847,0.34366 0.0466,0.0288 0.0847,0.24058 0.0847,0.47066 0,0.31541 0.0312,0.41834 0.127,0.41834 0.0941,0 0.127,0.0988 0.127,0.381 0,0.26626 0.035,0.381 0.11606,0.381 0.0822,0 0.13312,0.17884 0.17461,0.61383 0.0322,0.33761 0.1133,0.88054 0.1802,1.2065 0.0669,0.32597 0.12169,0.7927 0.12172,1.03717 6e-5,0.33864 0.0303,0.4445 0.12707,0.4445 0.0952,0 0.127,0.1016 0.127,0.4064 0,0.22352 0.0355,0.4426 0.0789,0.48683 0.0434,0.0442 0.0953,0.63289 0.11548,1.3081 0.0237,0.79456 0.0857,1.39175 0.17569,1.69275 0.24454,0.81777 0.16509,5.35986 -0.10563,6.0386 -0.0523,0.13109 -0.0951,0.38826 -0.0951,0.5715 0,0.18323 -0.0381,0.33315 -0.0847,0.33315 -0.0489,0 -0.0847,0.26811 -0.0847,0.635 0,0.508 -0.0254,0.635 -0.127,0.635 -0.0996,0 -0.127,0.11659 -0.127,0.54128 0,0.40303 -0.0324,0.55372 -0.127,0.59001 -0.0827,0.0317 -0.127,0.16334 -0.127,0.37728 0,0.81773 -0.11126,1.6241 -0.22409,1.6241 -0.081,0 -0.11457,0.12388 -0.11457,0.42333 0,0.31985 -0.031,0.42334 -0.127,0.42334 -0.096,0 -0.127,0.10348 -0.127,0.42333 0,0.23283 -0.0381,0.42333 -0.0847,0.42333 -0.0466,0 -0.0847,0.1524 -0.0847,0.33867 0,0.24459 -0.0353,0.33867 -0.127,0.33867 -0.0887,0 -0.127,0.0894 -0.127,0.29633 0,0.19774 -0.0395,0.29633 -0.11868,0.29633 -0.0821,0 -0.13688,0.15675 -0.17765,0.508 -0.0538,0.46352 -0.0768,0.508 -0.26231,0.508 -0.18038,0 -0.20336,0.0378 -0.20336,0.33446 0,0.18395 -0.048,0.36493 -0.10665,0.40217 -0.12427,0.0789 -0.48601,0.93398 -0.48601,1.14884 0,0.0806 -0.0572,0.14653 -0.127,0.14653 -0.0847,0 -0.127,0.0847 -0.127,0.254 0,0.1397 -0.0381,0.254 -0.0847,0.254 -0.0466,0 -0.0847,0.0952 -0.0847,0.21167 0,0.1317 -0.048,0.21167 -0.127,0.21167 -0.0699,0 -0.127,0.0721 -0.127,0.16027 0,0.0882 -0.0571,0.18221 -0.127,0.20901 -0.0699,0.0268 -0.127,0.14518 -0.127,0.26306 0,0.15788 -0.0446,0.21432 -0.16933,0.21432 -0.12533,0 -0.16933,0.0564 -0.16933,0.21724 0,0.28392 -0.14332,0.54476 -0.29932,0.54476 -0.0881,0 -0.12402,0.0973 -0.12402,0.33569 0,0.25406 -0.0431,0.35876 -0.17729,0.43057 -0.0975,0.0522 -0.25944,0.26659 -0.35984,0.47643 -0.31068,0.64939 -0.34648,0.70465 -0.45661,0.70465 -0.0588,0 -0.10692,0.0631 -0.10692,0.14017 0,0.0771 -0.0952,0.26505 -0.21167,0.41768 -0.11642,0.15264 -0.21167,0.31371 -0.21167,0.35796 0,0.0442 -0.0762,0.10036 -0.16933,0.12472 -0.0931,0.0243 -0.16933,0.105 -0.16933,0.17921 0,0.0742 -0.0572,0.13492 -0.127,0.13492 -0.0699,0 -0.127,0.0718 -0.127,0.1596 0,0.0878 -0.0952,0.222 -0.21167,0.29828 -0.11642,0.0763 -0.21167,0.21145 -0.21167,0.30037 0,0.0889 -0.0762,0.18586 -0.16933,0.21542 -0.0931,0.0296 -0.16933,0.12036 -0.16933,0.20178 0,0.0845 -0.14526,0.22968 -0.33867,0.33838 -0.21151,0.11887 -0.33867,0.2514 -0.33867,0.35297 0,0.0947 -0.17277,0.29572 -0.41382,0.48142 -0.25066,0.19309 -0.4329,0.4079 -0.46219,0.5448 -0.0543,0.2537 -0.91229,1.20952 -1.36294,1.51831 -0.16192,0.11095 -0.33537,0.27822 -0.38544,0.3717 -0.0501,0.0935 -0.24474,0.25837 -0.43259,0.36642 -0.18785,0.10804 -0.46052,0.36521 -0.60592,0.5715 -0.1454,0.20628 -0.30974,0.37505 -0.36521,0.37505 -0.0555,0 -0.23368,0.14703 -0.39603,0.32673 -0.16234,0.1797 -0.39716,0.35232 -0.5218,0.3836 -0.12465,0.0313 -0.40183,0.22716 -0.61597,0.43528 -0.21413,0.20811 -0.44214,0.37839 -0.5067,0.37839 -0.0645,0 -0.1393,0.0571 -0.1661,0.127 -0.0268,0.0699 -0.10263,0.127 -0.16849,0.127 -0.0659,0 -0.16316,0.0952 -0.2162,0.21167 -0.0629,0.13798 -0.1654,0.21167 -0.29452,0.21167 -0.11962,0 -0.19808,0.0503 -0.19808,0.127 0,0.0699 -0.0583,0.127 -0.12965,0.127 -0.0713,0 -0.15159,0.0572 -0.17839,0.127 -0.0268,0.0699 -0.11496,0.127 -0.19589,0.127 -0.0809,0 -0.21611,0.0762 -0.3004,0.16933 -0.0843,0.0931 -0.24259,0.16933 -0.35179,0.16933 -0.11792,0 -0.19854,0.0504 -0.19854,0.12402 0,0.14672 -0.25615,0.29932 -0.50244,0.29932 -0.099,0 -0.1749,0.0551 -0.1749,0.127 0,0.0887 -0.0894,0.127 -0.29633,0.127 -0.20696,0 -0.29633,0.0383 -0.29633,0.127 0,0.0771 -0.0787,0.127 -0.20025,0.127 -0.11014,0 -0.29111,0.0697 -0.40217,0.15492 -0.11105,0.0852 -0.26859,0.17926 -0.35008,0.20901 -0.0815,0.0297 -0.14817,0.10752 -0.14817,0.17283 0,0.0786 -0.14325,0.13776 -0.42333,0.17491 -0.28989,0.0385 -0.42334,0.0953 -0.42334,0.18024 0,0.0683 -0.0774,0.12409 -0.17199,0.12409 -0.0946,0 -0.19283,0.0543 -0.2183,0.12067 -0.0255,0.0664 -0.20524,0.14536 -0.39951,0.17552 -0.53889,0.0837 -0.64953,0.12793 -0.64953,0.25984 0,0.0667 -0.0689,0.1213 -0.15315,0.1213 -0.0842,0 -0.22711,0.0559 -0.3175,0.12431 -0.0904,0.0684 -0.24259,0.12551 -0.33821,0.127 -0.24917,0.004 -1.67103,0.49683 -3.00114,1.04052 -1.4392,0.58829 -1.97245,0.74017 -2.59874,0.74017 -0.27409,0 -0.70638,0.0541 -0.96064,0.12032 -1.20376,0.31332 -2.25705,0.40627 -5.499954,0.48537 -4.056123,0.0989 -4.041909,0.0992 -4.625471,-0.10152 -0.264574,-0.091 -0.678776,-0.1655 -0.920449,-0.1655 -1.024654,0 -1.989419,-0.1088 -1.989419,-0.22435 0,-0.0858 -0.158297,-0.11432 -0.635,-0.11432 -0.508,0 -0.635,-0.0254 -0.635,-0.127 0,-0.0975 -0.108185,-0.127 -0.465666,-0.127 -0.256117,0 -0.465667,-0.0381 -0.465667,-0.0847 0,-0.0466 -0.1524,-0.0847 -0.338666,-0.0847 -0.244593,0 -0.338667,-0.0353 -0.338667,-0.127 0,-0.096 -0.103481,-0.127 -0.423333,-0.127 -0.322906,0 -0.423334,-0.0306 -0.423334,-0.1291 0,-0.15071 -0.29576,-0.27814 -0.889,-0.38303 -0.232833,-0.0412 -0.502903,-0.098 -0.600154,-0.12632 -0.167314,-0.0487 -0.174724,-0.0262 -0.13779,0.41919 0.05757,0.69422 -0.101942,1.20184 -0.538082,1.71235 -0.206236,0.2414 -0.374974,0.51266 -0.374974,0.60279 0,0.18721 -0.250085,0.44411 -0.432327,0.44411 -0.06746,0 -0.197815,0.052 -0.289667,0.11546 -0.197301,0.13639 -1.539444,0.23347 -2.029672,0.14681 z m 13.758335,-12.50021 c -0.2944,-0.0735 -0.96836,-0.11753 -1.832444,-0.1198 -1.08741,-0.003 -1.376022,-0.0277 -1.412014,-0.12148 -0.03421,-0.0892 -0.345996,-0.13292 -1.279058,-0.17957 -0.962398,-0.0481 -1.23382,-0.0874 -1.23382,-0.17844 0,-0.0851 -0.126327,-0.11676 -0.465666,-0.11676 -0.357481,0 -0.465667,-0.0295 -0.465667,-0.127 0,-0.0963 -0.104352,-0.127 -0.431176,-0.127 -0.237147,0 -0.703872,-0.0926 -1.037166,-0.20565 -0.333295,-0.11311 -0.927668,-0.30522 -1.320829,-0.42692 -0.393161,-0.1217 -1.03661,-0.37206 -1.429886,-0.55635 -0.393277,-0.1843 -0.785975,-0.33508 -0.872662,-0.33508 -0.08669,0 -0.157614,-0.0572 -0.157614,-0.127 0,-0.0941 -0.09878,-0.127 -0.381,-0.127 -0.255052,0 -0.381,-0.0362 -0.381,-0.10944 0,-0.0602 -0.17145,-0.1553 -0.381,-0.21135 -0.217422,-0.0582 -0.381,-0.15188 -0.381,-0.21832 0,-0.0758 -0.147812,-0.13602 -0.423333,-0.17257 -0.289885,-0.0384 -0.423334,-0.0953 -0.423334,-0.18024 0,-0.0759 -0.08217,-0.12408 -0.211666,-0.12408 -0.116417,0 -0.211667,-0.0387 -0.211667,-0.086 0,-0.0473 -0.13335,-0.14963 -0.296333,-0.22735 -0.162984,-0.0777 -0.296334,-0.1914 -0.296334,-0.25263 0,-0.0612 -0.07212,-0.11132 -0.160274,-0.11132 -0.08815,0 -0.182206,-0.0571 -0.20901,-0.127 -0.0268,-0.0699 -0.105425,-0.127 -0.174712,-0.127 -0.06929,0 -0.289559,-0.15192 -0.489491,-0.33761 -0.199932,-0.18569 -0.39372,-0.33809 -0.43064,-0.33867 -0.117752,-0.002 -0.901157,-0.77669 -1.083383,-1.07154 -0.100539,-0.16267 -0.245082,-0.28418 -0.338062,-0.28418 -0.129187,0 -0.162428,-0.0606 -0.162428,-0.29633 0,-0.27282 -0.02016,-0.29633 -0.254,-0.29633 -0.212851,0 -0.253999,-0.0335 -0.253999,-0.20667 0,-0.11367 -0.0381,-0.23022 -0.08467,-0.259 -0.04657,-0.0288 -0.08467,-0.11869 -0.08467,-0.19979 0,-0.091 -0.146613,-0.2187 -0.383057,-0.33357 -0.210681,-0.10236 -0.420141,-0.27188 -0.465465,-0.37671 -0.04532,-0.10483 -0.114676,-0.24775 -0.154116,-0.3176 -0.204378,-0.36196 -0.267362,-0.52125 -0.267362,-0.67618 0,-0.0938 -0.04326,-0.17048 -0.09612,-0.17048 -0.151523,0 -0.496542,-0.41485 -0.496542,-0.59703 0,-0.0907 -0.05715,-0.16497 -0.127,-0.16497 -0.08467,0 -0.127,-0.0847 -0.127,-0.254 0,-0.16934 -0.04233,-0.254 -0.127,-0.254 -0.07989,0 -0.127,-0.0806 -0.127,-0.21724 0,-0.28392 -0.143315,-0.54476 -0.299313,-0.54476 -0.07584,0 -0.124021,-0.0822 -0.124021,-0.21167 0,-0.12848 -0.04826,-0.21167 -0.122796,-0.21167 -0.08725,0 -0.139431,-0.14703 -0.180269,-0.508 -0.05226,-0.46188 -0.0757,-0.508 -0.258204,-0.508 -0.156583,0 -0.200731,-0.0456 -0.200731,-0.20746 0,-0.1141 -0.05156,-0.23792 -0.11457,-0.27516 -0.06301,-0.0372 -0.135281,-0.22735 -0.160595,-0.42246 -0.02531,-0.19511 -0.107106,-0.47719 -0.181763,-0.62684 -0.07466,-0.14965 -0.135738,-0.34244 -0.135738,-0.42842 0,-0.086 -0.05715,-0.15632 -0.127,-0.15632 -0.09172,0 -0.127,-0.0941 -0.127,-0.33867 0,-0.18627 -0.0381,-0.33867 -0.08467,-0.33867 -0.04657,0 -0.08467,-0.17145 -0.08467,-0.381 0,-0.24813 -0.03691,-0.38115 -0.105833,-0.38142 -0.154814,-5.9e-4 -0.49176,-1.15411 -0.489111,-1.6744 0.0016,-0.32092 -0.03358,-0.46092 -0.124722,-0.49589 -0.09129,-0.035 -0.127,-0.17787 -0.127,-0.508 0,-0.33013 -0.03571,-0.47297 -0.127,-0.508 -0.103761,-0.0398 -0.127,-0.24758 -0.127,-1.13535 0,-0.63308 -0.03534,-1.10845 -0.08467,-1.13894 -0.04707,-0.0291 -0.08467,-0.41857 -0.08467,-0.87706 0,-0.51598 -0.03702,-0.86176 -0.09888,-0.92362 -0.0754,-0.0754 -0.0754,-0.17726 0,-0.42892 0.05438,-0.18152 0.09888,-0.79235 0.09888,-1.35739 0,-0.62845 0.03287,-1.02734 0.08467,-1.02734 0.04657,0 0.08467,-0.17868 0.08467,-0.39707 0,-0.21839 0.03727,-0.60891 0.08283,-0.86783 0.04556,-0.25892 0.120059,-0.71842 0.165558,-1.0211 0.182028,-1.21096 0.522996,-2.66675 0.735503,-3.14027 0.30872,-0.68792 0.451977,-0.67754 1.44111,0.10448 0.389171,0.30769 0.591857,0.41112 0.805587,0.41112 0.15707,0 0.427755,0.0762 0.601521,0.16934 0.173767,0.0931 0.393473,0.16933 0.488237,0.16933 0.09476,0 0.194228,0.0571 0.221032,0.127 0.0268,0.0699 0.137659,0.127 0.246346,0.127 0.108686,0 0.221158,0.0381 0.249938,0.0847 0.02878,0.0466 0.183428,0.0847 0.343664,0.0847 0.202521,0 0.291336,0.0387 0.291336,0.127 0,0.079 0.07996,0.127 0.211667,0.127 0.128773,0 0.211666,0.0482 0.211666,0.12317 0,0.0737 0.118951,0.14548 0.296334,0.17875 0.16972,0.0318 0.296333,0.10583 0.296333,0.17317 0,0.0656 0.08419,0.11739 0.1905,0.11716 0.192569,-4.2e-4 0.913447,0.21222 1.184185,0.34931 0.08086,0.0409 0.204685,0.0744 0.275166,0.0744 0.07048,0 0.128149,0.0572 0.128149,0.127 0,0.0698 0.0608,0.127 0.135104,0.127 0.07431,0 0.236231,0.055 0.359833,0.12221 0.123601,0.0672 0.405705,0.14575 0.626896,0.17452 0.269184,0.035 0.402167,0.0926 0.402167,0.17413 0,0.0857 0.100484,0.12181 0.338667,0.12181 0.244592,0 0.338666,0.0353 0.338666,0.127 0,0.0706 0.07526,0.127 0.169334,0.127 0.09313,0 0.169333,0.0381 0.169333,0.0847 0,0.0466 0.05715,0.0847 0.127,0.0847 0.06985,0 0.127,0.0571 0.127,0.127 0,0.079 0.07996,0.127 0.211667,0.127 0.124689,0 0.211666,0.0486 0.211666,0.11819 0,0.0863 0.182785,0.13437 0.677334,0.17815 0.494549,0.0438 0.677333,0.0919 0.677333,0.17814 0,0.0696 0.08698,0.11819 0.211667,0.11819 0.131704,0 0.211666,0.048 0.211666,0.127 0,0.0706 0.07526,0.127 0.169334,0.127 0.09313,0 0.169333,0.0381 0.169333,0.0847 0,0.0466 0.17145,0.0847 0.381,0.0847 0.317277,0 0.381,0.0268 0.381,0.16016 0,0.10022 0.07921,0.18003 0.211667,0.21328 0.116416,0.0292 0.211666,0.0905 0.211666,0.13618 0,0.0457 0.13335,0.0831 0.296334,0.0831 0.162983,0 0.296333,0.0381 0.296333,0.0847 0,0.0466 0.09525,0.0847 0.211667,0.0847 0.131704,0 0.211666,0.048 0.211666,0.127 0,0.0699 0.0703,0.127 0.156211,0.127 0.08592,0 0.225171,0.0762 0.309456,0.16934 0.102629,0.1134 0.260771,0.16933 0.478789,0.16933 0.232928,0 0.325544,0.0361 0.325544,0.127 0,0.0847 0.08467,0.127 0.254,0.127 0.169334,0 0.254,0.0423 0.254,0.127 0,0.0914 0.09352,0.127 0.33367,0.127 0.183518,0 0.357217,0.0381 0.385997,0.0847 0.02878,0.0466 0.126278,0.0847 0.216664,0.0847 0.09038,0 0.164336,0.0572 0.164336,0.127 0,0.079 0.07996,0.127 0.211666,0.127 0.12603,0 0.211667,0.0485 0.211667,0.11978 0,0.0873 0.172062,0.1359 0.635,0.17928 0.455323,0.0427 0.635,0.0926 0.635,0.17656 0,0.0736 0.09426,0.11705 0.254,0.11705 0.1397,0 0.254,0.0299 0.254,0.0664 0,0.12446 0.491018,0.35692 0.753897,0.35692 0.166715,0 0.262103,0.0426 0.262103,0.11713 0,0.1287 0.251468,0.21859 0.61649,0.22038 0.130361,6.8e-4 0.257248,0.0579 0.284225,0.12816 0.0268,0.0699 0.141105,0.127 0.254,0.127 0.112897,0 0.225581,0.0529 0.25041,0.11764 0.02483,0.0647 0.271286,0.16782 0.547676,0.22914 0.29719,0.0659 0.50253,0.15624 0.50253,0.22102 0,0.0653 0.10267,0.10953 0.254,0.10953 0.15778,0 0.254,0.0436 0.254,0.11521 0,0.0754 0.14915,0.13287 0.43191,0.16636 0.43509,0.0515 0.74491,0.26192 0.86335,0.58627 0.0393,0.10766 0.1474,0.14816 0.39542,0.14816 0.18773,0 0.34132,0.0381 0.34132,0.0847 0,0.0466 0.0751,0.0847 0.1668,0.0847 0.0917,0 0.24794,0.10975 0.34712,0.24389 0.15829,0.2141 0.25167,0.25092 0.764534,0.30146 0.42528,0.0419 0.58422,0.0907 0.58422,0.17944 0,0.0824 0.0943,0.12187 0.29134,0.12187 0.16023,0 0.31339,0.0357 0.34035,0.0793 0.0643,0.10412 0.54806,0.34403 0.69365,0.34403 0.0627,0 0.11399,0.0572 0.11399,0.127 0,0.0859 0.086,0.127 0.26584,0.127 0.1462,0 0.30813,0.0578 0.35983,0.1285 0.0521,0.0713 0.2919,0.15193 0.5385,0.18112 0.29266,0.0346 0.4445,0.092 0.4445,0.16784 0,0.0716 0.0962,0.1152 0.254,0.1152 0.16636,0 0.254,0.0427 0.254,0.12374 0,0.0727 0.13964,0.16134 0.33867,0.21493 0.19902,0.0536 0.33866,0.14221 0.33866,0.21493 0,0.0902 0.10325,0.12374 0.381,0.12374 0.26683,0 0.381,0.0349 0.381,0.11641 0,0.12097 0.35209,0.22225 0.77259,0.22225 0.15992,0 0.24341,0.0436 0.24341,0.127 0,0.0699 0.0383,0.127 0.0851,0.127 0.0468,0 0.28252,0.0953 0.52384,0.21167 0.24132,0.11642 0.54593,0.21167 0.67692,0.21167 0.14699,0 0.23815,0.0451 0.23815,0.1178 0,0.13708 0.47864,0.34387 0.99484,0.42983 0.22516,0.0375 0.35983,0.10466 0.35983,0.17948 0,0.0657 0.0703,0.11955 0.15621,0.11955 0.0859,0 0.22517,0.0762 0.30946,0.16934 0.0843,0.0931 0.22129,0.16933 0.30446,0.16933 0.0832,0 0.17476,0.0381 0.20354,0.0847 0.0288,0.0466 0.14066,0.0847 0.24863,0.0847 0.10796,0 0.24373,0.0572 0.3017,0.127 0.058,0.0699 0.19599,0.127 0.3067,0.127 0.12249,0 0.2013,0.0497 0.2013,0.127 0,0.0841 0.0841,0.127 0.249,0.127 0.13696,0 0.27255,0.0381 0.30133,0.0847 0.0288,0.0466 0.12319,0.0847 0.20981,0.0847 0.18383,0 0.67845,0.24831 0.80407,0.40366 0.0477,0.059 0.28682,0.13102 0.53129,0.15996 0.29266,0.0346 0.4445,0.092 0.4445,0.16784 0,0.0716 0.0962,0.1152 0.254,0.1152 0.15963,0 0.254,0.0435 0.254,0.11695 0,0.12192 0.58332,0.30639 0.96883,0.30639 0.136,0 0.2165,0.0472 0.2165,0.127 0,0.0699 0.0525,0.127 0.11664,0.127 0.0641,0 0.16006,0.0523 0.21314,0.11628 0.0531,0.064 0.28635,0.14148 0.51837,0.17225 0.28867,0.0383 0.42185,0.0951 0.42185,0.18005 0,0.0755 0.0818,0.12408 0.2088,0.12408 0.23745,0 0.8072,0.25011 0.8072,0.35435 0,0.0379 0.1143,0.069 0.254,0.069 0.16934,0 0.254,0.0423 0.254,0.127 0,0.0884 0.0889,0.127 0.29213,0.127 0.17612,0 0.32136,0.0522 0.36574,0.13154 0.0469,0.0838 0.24835,0.14958 0.55454,0.18118 0.32473,0.0335 0.48093,0.087 0.48093,0.16479 0,0.0633 0.0762,0.11515 0.16933,0.11515 0.0941,0 0.16933,0.0565 0.16933,0.127 0,0.0917 0.094,0.127 0.3377,0.127 0.45492,0 0.6783,0.20138 0.6783,0.61149 0,0.22343 -0.0371,0.31985 -0.12316,0.31985 -0.0737,0 -0.14548,0.11895 -0.17876,0.29633 -0.0318,0.16972 -0.10583,0.29633 -0.17317,0.29633 -0.0647,0 -0.11757,0.0571 -0.11757,0.127 0,0.0774 -0.0789,0.127 -0.20225,0.127 -0.16467,0 -0.21272,0.0559 -0.25867,0.30079 -0.031,0.16543 -0.11147,0.3219 -0.17875,0.34772 -0.0673,0.0258 -0.12233,0.11907 -0.12233,0.20722 0,0.0882 -0.0571,0.16027 -0.127,0.16027 -0.0836,0 -0.127,0.0837 -0.127,0.24482 0,0.19054 -0.0469,0.25661 -0.21167,0.29795 -0.13666,0.0343 -0.21167,0.11256 -0.21167,0.22085 0,0.0922 -0.0546,0.16772 -0.12129,0.16772 -0.0667,0 -0.14631,0.0788 -0.17689,0.17517 -0.0306,0.0964 -0.16199,0.23988 -0.29203,0.31895 -0.13003,0.0791 -0.3665,0.31458 -0.52547,0.52333 -0.15898,0.20875 -0.39488,0.43059 -0.52423,0.49298 -0.12935,0.0624 -0.33716,0.26304 -0.4618,0.44589 -0.1336,0.196 -0.31857,0.35289 -0.45063,0.38222 -0.16284,0.0362 -0.23761,0.11774 -0.2738,0.29869 -0.035,0.17494 -0.13198,0.28594 -0.32632,0.37344 -0.31657,0.14255 -0.55955,0.2894 -0.71796,0.43395 -0.0605,0.0552 -0.18589,0.1244 -0.27874,0.15387 -0.0929,0.0295 -0.16884,0.10744 -0.16884,0.17327 0,0.0658 -0.0924,0.14288 -0.20543,0.17124 -0.11299,0.0284 -0.2713,0.12433 -0.35179,0.21328 -0.0805,0.0889 -0.2464,0.16172 -0.36867,0.16172 -0.16739,0 -0.24514,0.0604 -0.31469,0.24472 -0.0759,0.20114 -0.15839,0.25579 -0.46306,0.30688 -0.2121,0.0356 -0.45713,0.14819 -0.57273,0.26327 -0.13242,0.13181 -0.30019,0.20113 -0.48684,0.20113 -0.1967,0 -0.28479,0.0393 -0.28479,0.127 0,0.079 -0.08,0.127 -0.21166,0.127 -0.12878,0 -0.21167,0.0482 -0.21167,0.12316 0,0.0737 -0.11895,0.14548 -0.29633,0.17876 -0.16972,0.0318 -0.29634,0.10582 -0.29634,0.17316 0,0.0647 -0.0774,0.11758 -0.17199,0.11758 -0.0946,0 -0.19392,0.0572 -0.22072,0.127 -0.0316,0.0823 -0.16291,0.127 -0.37335,0.127 -0.17853,0 -0.34816,0.0381 -0.37694,0.0847 -0.0288,0.0466 -0.18342,0.0847 -0.34366,0.0847 -0.20252,0 -0.29134,0.0387 -0.29134,0.127 0,0.0917 -0.0941,0.127 -0.33866,0.127 -0.2446,0 -0.33867,0.0353 -0.33867,0.127 0,0.0887 -0.0894,0.127 -0.29633,0.127 -0.19953,0 -0.29634,0.0393 -0.29634,0.12021 0,0.15386 -0.82729,0.34494 -2.45533,0.56709 -0.67522,0.0921 -1.39638,0.22283 -1.60258,0.29044 -0.26844,0.088 -0.78544,0.12292 -1.82037,0.12292 -0.95439,0 -1.64678,0.0427 -2.03808,0.12553 -0.771274,0.16337 -3.194504,0.16202 -3.852304,-0.002 z m 26.687834,-16.00161 c -0.06,-0.0681 -0.20292,-0.12378 -0.3175,-0.12378 -0.12874,0 -0.20833,-0.0485 -0.20833,-0.127 0,-0.0917 -0.0941,-0.127 -0.33867,-0.127 -0.18627,0 -0.33867,-0.0381 -0.33867,-0.0847 0,-0.0466 -0.0571,-0.0847 -0.127,-0.0847 -0.0705,0 -0.127,-0.0753 -0.127,-0.16933 0,-0.11289 -0.0564,-0.16934 -0.16933,-0.16934 -0.0941,0 -0.16933,-0.0564 -0.16933,-0.127 0,-0.0934 -0.0974,-0.127 -0.36837,-0.127 -0.44602,0 -0.87132,-0.13755 -0.93452,-0.30225 -0.0282,-0.0734 -0.16428,-0.12108 -0.34546,-0.12108 -0.1968,0 -0.29899,-0.0397 -0.29899,-0.11606 0,-0.079 -0.16211,-0.13441 -0.508,-0.17354 -0.36096,-0.0408 -0.508,-0.093 -0.508,-0.18027 0,-0.0675 -0.0762,-0.1228 -0.16933,-0.1228 -0.0931,0 -0.16933,-0.051 -0.16933,-0.11344 0,-0.0739 -0.20648,-0.15034 -0.59267,-0.21935 -0.40329,-0.0721 -0.59267,-0.14404 -0.59267,-0.22523 0,-0.0656 -0.0625,-0.11931 -0.13883,-0.11931 -0.0764,0 -0.18113,-0.0578 -0.23283,-0.1285 -0.0522,-0.0713 -0.29191,-0.15193 -0.5385,-0.18113 -0.29266,-0.0346 -0.4445,-0.092 -0.4445,-0.16783 0,-0.0671 -0.0904,-0.11521 -0.21654,-0.11521 -0.1191,0 -0.38715,-0.0952 -0.59567,-0.21166 -0.20853,-0.11642 -0.43493,-0.21167 -0.50313,-0.21167 -0.0682,0 -0.124,-0.0572 -0.124,-0.127 0,-0.0862 -0.0863,-0.127 -0.2685,-0.127 -0.14767,0 -0.33424,-0.0595 -0.41459,-0.13222 -0.0804,-0.0727 -0.35958,-0.15424 -0.6205,-0.18117 -0.26092,-0.0269 -0.47441,-0.0851 -0.47441,-0.12938 0,-0.17286 -0.39273,-0.39837 -0.6985,-0.40108 -0.17462,-0.002 -0.3175,-0.0409 -0.3175,-0.0875 0,-0.0466 -0.0953,-0.0847 -0.21166,-0.0847 -0.13171,0 -0.21167,-0.048 -0.21167,-0.127 0,-0.0699 -0.0571,-0.127 -0.127,-0.127 -0.0699,0 -0.127,-0.0572 -0.127,-0.127 0,-0.0908 -0.0926,-0.127 -0.32521,-0.127 -0.4564,0 -1.04524,-0.19284 -1.38867,-0.45479 -0.16047,-0.1224 -0.3526,-0.22254 -0.42695,-0.22254 -0.0743,0 -0.15872,-0.0381 -0.1875,-0.0847 -0.0288,-0.0466 -0.20248,-0.0847 -0.386,-0.0847 -0.24015,0 -0.33367,-0.0356 -0.33367,-0.127 0,-0.0847 -0.0847,-0.127 -0.254,-0.127 -0.14627,0 -0.25438,-0.0449 -0.25491,-0.10583 -5.1e-4,-0.0588 -0.34867,-0.21646 -0.78316,-0.35468 -0.43025,-0.13687 -0.92362,-0.31784 -1.09639,-0.40217 -0.17277,-0.0843 -0.41089,-0.15332 -0.52917,-0.15332 -0.1347,0 -0.21504,-0.0474 -0.21504,-0.127 0,-0.079 -0.08,-0.127 -0.21166,-0.127 -0.13171,0 -0.21167,-0.048 -0.21167,-0.127 0,-0.0705 -0.0753,-0.127 -0.16933,-0.127 -0.0931,0 -0.16934,-0.0381 -0.16934,-0.0847 0,-0.0466 -0.10844,-0.0847 -0.24099,-0.0847 -0.13254,0 -0.36343,-0.0611 -0.51309,-0.13574 -0.14965,-0.0747 -0.4222,-0.15587 -0.60567,-0.18048 -0.20401,-0.0274 -0.33358,-0.0897 -0.33358,-0.16059 0,-0.0723 -0.0955,-0.11586 -0.254,-0.11586 -0.16933,0 -0.254,-0.0423 -0.254,-0.127 0,-0.0705 -0.0753,-0.127 -0.16933,-0.127 -0.0931,0 -0.16934,-0.0381 -0.16934,-0.0847 0,-0.0466 -0.1524,-0.0847 -0.33866,-0.0847 -0.2446,0 -0.33867,-0.0353 -0.33867,-0.127 0,-0.0699 -0.0667,-0.12821 -0.14817,-0.12969 -0.0815,-10e-4 -0.22212,-0.0586 -0.31251,-0.127 -0.0904,-0.0684 -0.261844,-0.12445 -0.381004,-0.12463 -0.11916,-1.7e-4 -0.3414,-0.0764 -0.49387,-0.16933 -0.15246,-0.093 -0.37154,-0.16902 -0.48683,-0.16902 -0.12988,0 -0.20962,-0.0483 -0.20962,-0.127 0,-0.0699 -0.0739,-0.127 -0.16434,-0.127 -0.0904,0 -0.18788,-0.0381 -0.21666,-0.0847 -0.0288,-0.0466 -0.14125,-0.0847 -0.24994,-0.0847 -0.10868,0 -0.21954,-0.0572 -0.24634,-0.127 -0.0268,-0.0699 -0.12613,-0.127 -0.22073,-0.127 -0.11554,0 -0.17199,-0.0556 -0.17199,-0.16933 0,-0.13653 -0.0564,-0.16934 -0.29134,-0.16934 -0.16023,0 -0.31488,-0.0381 -0.34366,-0.0847 -0.0288,-0.0466 -0.12628,-0.0847 -0.21666,-0.0847 -0.0904,0 -0.16434,-0.0571 -0.16434,-0.127 0,-0.0879 -0.0884,-0.127 -0.28727,-0.127 -0.1656,0 -0.30619,-0.0493 -0.33194,-0.11638 -0.0246,-0.064 -0.21602,-0.14207 -0.425466,-0.17348 -0.209445,-0.0314 -0.426691,-0.11239 -0.482767,-0.17996 -0.05702,-0.0687 -0.246652,-0.12285 -0.430256,-0.12285 -0.217893,0 -0.3283,-0.0381 -0.3283,-0.11341 0,-0.136 -0.353486,-0.30992 -0.629925,-0.30992 -0.109244,0 -0.220555,-0.0572 -0.24736,-0.127 -0.0268,-0.0698 -0.126129,-0.127 -0.220725,-0.127 -0.09459,0 -0.17199,-0.0524 -0.17199,-0.11642 0,-0.1164 -0.349034,-0.22225 -0.732907,-0.22225 -0.112058,0 -0.225671,-0.0572 -0.252475,-0.127 -0.03007,-0.0784 -0.158758,-0.127 -0.33601,-0.127 -0.19891,0 -0.287275,-0.0391 -0.287275,-0.127 0,-0.0797 -0.08046,-0.127 -0.216158,-0.127 -0.118887,0 -0.356331,-0.0952 -0.527654,-0.21166 -0.196039,-0.13322 -0.429738,-0.21167 -0.630508,-0.21167 -0.217661,0 -0.319013,-0.0378 -0.319013,-0.11905 0,-0.0789 -0.144881,-0.13899 -0.429357,-0.17811 -0.243849,-0.0335 -0.448959,-0.11013 -0.474725,-0.17728 -0.02495,-0.065 -0.117491,-0.11823 -0.205643,-0.11823 -0.08815,0 -0.160275,-0.0493 -0.160275,-0.10953 0,-0.0649 -0.206962,-0.15545 -0.508,-0.22224 -0.319983,-0.071 -0.508,-0.15579 -0.508,-0.22913 0,-0.0729 -0.09491,-0.11643 -0.254,-0.11643 -0.158696,0 -0.254,-0.0436 -0.254,-0.11606 0,-0.079 -0.162114,-0.13441 -0.508,-0.17354 -0.34787,-0.0394 -0.508,-0.0943 -0.508,-0.17438 0,-0.0643 -0.08572,-0.12908 -0.1905,-0.14396 -0.120493,-0.0171 -0.200184,-0.0951 -0.216852,-0.21219 -0.02373,-0.16673 -0.0932,-0.19097 -0.6985,-0.24377 -0.484369,-0.0423 -0.672148,-0.0911 -0.672148,-0.1747 0,-0.0703 -0.09223,-0.11607 -0.233923,-0.11607 -0.161379,0 -0.259842,-0.0591 -0.3175,-0.1905 -0.05733,-0.13067 -0.16999,-0.19883 -0.358743,-0.21703 -0.170444,-0.0164 -0.275167,-0.0728 -0.275167,-0.14816 0,-0.0817 -0.09382,-0.12164 -0.285967,-0.12164 -0.157281,0 -0.332749,-0.0564 -0.389929,-0.12527 -0.05718,-0.0689 -0.290445,-0.15 -0.518367,-0.18024 -0.267882,-0.0355 -0.414404,-0.096 -0.414404,-0.17106 0,-0.0639 -0.07739,-0.1161 -0.17199,-0.1161 -0.0946,0 -0.193921,-0.0571 -0.220725,-0.127 -0.02984,-0.0778 -0.158203,-0.127 -0.331013,-0.127 -0.155253,0 -0.305825,-0.0381 -0.334605,-0.0847 -0.02878,-0.0466 -0.202478,-0.0847 -0.385997,-0.0847 -0.240151,0 -0.33367,-0.0356 -0.33367,-0.127 0,-0.079 -0.07996,-0.127 -0.211666,-0.127 -0.123152,0 -0.211667,-0.0487 -0.211667,-0.11642 0,-0.1254 -0.355119,-0.22225 -0.814917,-0.22225 -0.187009,0 -0.285749,-0.0405 -0.285749,-0.11726 0,-0.14934 -0.364304,-0.39074 -0.589688,-0.39074 -0.09477,0 -0.172312,-0.0381 -0.172312,-0.0847 0,-0.0466 -0.1143,-0.0847 -0.254,-0.0847 -0.169334,0 -0.254,-0.0423 -0.254,-0.127 0,-0.0835 -0.08351,-0.127 -0.243633,-0.127 -0.133999,0 -0.291064,-0.0572 -0.349034,-0.127 -0.05797,-0.0698 -0.158403,-0.127 -0.223183,-0.127 -0.06478,0 -0.183939,-0.034 -0.264799,-0.0756 -0.08086,-0.0416 -0.251793,-0.11694 -0.379851,-0.16751 -0.218632,-0.0864 -0.331415,-0.3496 -0.14978,-0.3496 0.04568,0 0.10696,-0.0953 0.136178,-0.21166 0.02922,-0.11642 0.08709,-0.21167 0.128613,-0.21167 0.04152,0 0.07549,-0.0571 0.07549,-0.127 0,-0.0699 0.05715,-0.127 0.127,-0.127 0.0887,0 0.127,-0.0894 0.127,-0.29633 0,-0.18345 0.06451,-0.36084 0.169333,-0.46567 0.09313,-0.0931 0.169333,-0.23707 0.169333,-0.31985 0,-0.15493 0.275623,-0.44215 0.424301,-0.44215 0.04603,0 0.0837,-0.0821 0.0837,-0.18251 0,-0.10038 0.09525,-0.30739 0.211667,-0.46002 0.116417,-0.15263 0.211667,-0.31407 0.211667,-0.35876 0,-0.0447 0.05505,-0.10238 0.122328,-0.1282 0.06728,-0.0258 0.146958,-0.17823 0.177061,-0.33869 0.04307,-0.22959 0.103355,-0.30147 0.282955,-0.33739 0.162359,-0.0325 0.261751,-0.13109 0.344399,-0.34173 0.0639,-0.16285 0.224419,-0.37612 0.356716,-0.47393 0.132297,-0.0978 0.24054,-0.25051 0.24054,-0.33934 0,-0.0919 0.2066,-0.33712 0.479357,-0.56897 0.839968,-0.71399 1.53662,-1.38955 1.73812,-1.68548 0.107538,-0.15794 0.248305,-0.28742 0.312815,-0.28774 0.129266,-6.4e-4 0.517708,-0.3855 0.517708,-0.51294 0,-0.0442 0.04517,-0.0803 0.100377,-0.0803 0.05521,0 0.187129,-0.0815 0.293159,-0.18111 0.199537,-0.18745 0.441995,-0.34178 0.770631,-0.49049 0.104775,-0.0474 0.1905,-0.1443 0.1905,-0.2153 0,-0.0792 0.0772,-0.1291 0.199807,-0.1291 0.114295,0 0.267836,-0.0906 0.358763,-0.21167 0.0966,-0.12863 0.243431,-0.21166 0.374297,-0.21166 0.161519,0 0.239305,-0.0635 0.311217,-0.254 0.08498,-0.22515 0.135177,-0.254 0.441895,-0.254 0.289576,0 0.346021,-0.0276 0.346021,-0.16934 0,-0.13031 0.05645,-0.16933 0.244941,-0.16933 0.139623,0 0.265897,-0.0546 0.293677,-0.127 0.0268,-0.0699 0.12613,-0.127 0.220725,-0.127 0.0946,0 0.17199,-0.0381 0.17199,-0.0847 0,-0.0466 0.0762,-0.0847 0.169334,-0.0847 0.112888,0 0.169333,-0.0564 0.169333,-0.16933 0,-0.13171 0.05644,-0.16934 0.254,-0.16934 0.169333,0 0.254,-0.0423 0.254,-0.127 0,-0.079 0.07996,-0.127 0.211667,-0.127 0.116416,0 0.211666,-0.0381 0.211666,-0.0847 0,-0.0466 0.06892,-0.0847 0.153151,-0.0847 0.08423,0 0.227108,-0.0559 0.3175,-0.1243 0.09039,-0.0684 0.250074,-0.12552 0.354849,-0.127 0.106881,-0.002 0.1905,-0.0555 0.1905,-0.12296 0,-0.0855 0.15896,-0.13728 0.550334,-0.17919 0.347543,-0.0372 0.550333,-0.0974 0.550333,-0.16322 0,-0.15034 0.540157,-0.35922 1.248833,-0.48292 0.387365,-0.0676 0.613833,-0.14723 0.613833,-0.21578 0,-0.0677 0.111647,-0.10862 0.296334,-0.10862 0.197486,0 0.296333,-0.0395 0.296333,-0.11848 0,-0.092 0.238112,-0.13221 1.065048,-0.1799 0.781717,-0.0451 1.076932,-0.0924 1.109724,-0.17786 0.03297,-0.0859 0.229777,-0.11643 0.751079,-0.11643 0.51489,0 0.724757,-0.032 0.774109,-0.11792 0.07015,-0.12218 0.575527,-0.16287 3.390867,-0.273 0.91786,-0.0359 1.29117,-0.0234 1.29117,0.0432 0,0.0611 0.248914,0.0937 0.715544,0.0937 0.39354,0 0.93495,0.0571 1.20312,0.127 0.26817,0.0699 0.84153,0.127 1.27413,0.127 0.61093,0 0.78654,0.026 0.78654,0.11642 0,0.15029 0.37348,0.22225 1.15359,0.22225 0.49859,0 0.62441,0.0256 0.62441,0.127 0,0.0887 0.0894,0.127 0.29634,0.127 0.20696,0 0.29633,0.0383 0.29633,0.127 0,0.0699 0.0138,0.127 0.0308,0.127 0.0169,0 0.236,0.0388 0.48683,0.0861 0.61906,0.11692 1.17572,0.33748 1.17572,0.46583 0,0.0675 0.19856,0.1269 0.55034,0.16457 0.39137,0.0419 0.55033,0.0937 0.55033,0.1792 0,0.0675 0.0836,0.12144 0.1905,0.12295 0.10478,0.001 0.26446,0.0586 0.35485,0.127 0.0904,0.0684 0.23327,0.12431 0.3175,0.12431 0.0842,0 0.15315,0.0381 0.15315,0.0847 0,0.0466 0.0952,0.0847 0.21167,0.0847 0.1317,0 0.21166,0.048 0.21166,0.127 0,0.0887 0.0894,0.127 0.29634,0.127 0.23989,0 0.29633,0.0323 0.29633,0.16933 0,0.12418 0.0564,0.16933 0.21167,0.16933 0.11641,0 0.21166,0.0381 0.21166,0.0847 0,0.0466 0.0583,0.0847 0.12966,0.0847 0.0713,0 0.15159,0.0571 0.17839,0.127 0.0278,0.0724 0.15406,0.127 0.29368,0.127 0.1885,0 0.24494,0.039 0.24494,0.16934 0,0.12417 0.0564,0.16933 0.21167,0.16933 0.1317,0 0.21166,0.048 0.21166,0.127 0,0.0699 0.0721,0.127 0.16028,0.127 0.0881,0 0.1822,0.0572 0.20901,0.127 0.0268,0.0699 0.13799,0.127 0.24709,0.127 0.22283,0 0.52939,0.24994 0.60718,0.49505 0.0304,0.0956 0.16098,0.18402 0.31856,0.21554 0.29941,0.0599 0.57455,0.27324 0.57455,0.44553 0,0.0626 0.0328,0.11388 0.0729,0.11388 0.0401,0 0.21251,0.0948 0.3832,0.2106 0.17069,0.11584 0.40647,0.23474 0.52397,0.26423 0.13172,0.0331 0.3802,0.27692 0.6481,0.63606 0.23896,0.32034 0.49715,0.58244 0.57375,0.58244 0.15997,0 0.50746,0.34051 0.50746,0.49727 0,0.1742 0.52605,0.77567 0.91017,1.04065 0.19791,0.13652 0.35983,0.28852 0.35983,0.33777 0,0.0493 0.0952,0.20274 0.21167,0.34109 0.11642,0.13836 0.21167,0.30322 0.21167,0.36635 0,0.0631 0.0721,0.13768 0.16019,0.16565 0.0881,0.028 0.18225,0.11625 0.20921,0.1962 0.0753,0.22328 0.24612,0.4611 0.4561,0.63494 0.10477,0.0867 0.1905,0.20802 0.1905,0.26951 0,0.0615 0.0571,0.13373 0.127,0.16053 0.0699,0.0268 0.127,0.10708 0.127,0.17839 0,0.0713 0.0572,0.12966 0.127,0.12966 0.0698,0 0.127,0.0597 0.127,0.1327 0,0.1687 0.51562,0.79508 0.65616,0.79711 0.0585,8.4e-4 0.10609,0.10565 0.10639,0.23436 3.4e-4,0.12806 0.0763,0.34713 0.16878,0.48683 0.0925,0.1397 0.16847,0.34092 0.16878,0.44716 3.3e-4,0.10623 0.0577,0.21509 0.12755,0.24189 0.0699,0.0268 0.127,0.12086 0.127,0.20901 0,0.0881 0.0381,0.16027 0.0847,0.16027 0.0466,0 0.0847,0.0762 0.0847,0.16934 0,0.0931 0.0525,0.16933 0.11663,0.16933 0.19189,0 0.30305,0.20289 0.39951,0.72922 0.0503,0.27415 0.14517,0.5586 0.21094,0.63211 0.0658,0.0735 0.11958,0.17949 0.11958,0.23549 0,0.056 0.0571,0.12376 0.127,0.15056 0.0756,0.029 0.12701,0.15643 0.12703,0.31485 10e-6,0.14635 0.13191,0.63507 0.29311,1.08604 0.70977,1.98566 1.22039,4.70692 1.36334,7.26573 0.0663,1.18721 -0.0975,3.97325 -0.28128,4.78367 -0.0739,0.32596 -0.14968,0.90699 -0.16836,1.29116 -0.0187,0.38418 -0.0692,0.6985 -0.11239,0.6985 -0.0431,0 -0.0785,0.2286 -0.0785,0.508 0,0.39511 -0.0282,0.508 -0.127,0.508 -0.0956,0 -0.127,0.10248 -0.127,0.41428 0,0.27548 -0.0394,0.4294 -0.11763,0.45941 -0.0793,0.0305 -0.13734,0.26773 -0.17815,0.72873 -0.0554,0.62528 -0.076,0.68331 -0.2422,0.68036 -0.0999,-0.002 -0.23081,-0.0589 -0.29085,-0.127 z"
       id="path1429" />
  </g>
</svg>
