<?xml version="1.0" encoding="UTF-8" standalone="no"?>
<svg
   xmlns:dc="http://purl.org/dc/elements/1.1/"
   xmlns:cc="http://creativecommons.org/ns#"
   xmlns:rdf="http://www.w3.org/1999/02/22-rdf-syntax-ns#"
   xmlns:svg="http://www.w3.org/2000/svg"
   xmlns="http://www.w3.org/2000/svg"
   width="113.17948mm"
   height="86.312927mm"
   viewBox="0 0 113.17948 86.312927"
   version="1.1"
   id="svg838">
  <defs
     id="defs832" />
  <metadata
     id="metadata835">
    <rdf:RDF>
      <cc:Work
         rdf:about="">
        <dc:format>image/svg+xml</dc:format>
        <dc:type
           rdf:resource="http://purl.org/dc/dcmitype/StillImage" />
        <dc:title></dc:title>
      </cc:Work>
    </rdf:RDF>
  </metadata>
  <g
     id="layer1"
     transform="translate(-45.463591,-75.505111)">
    <path
       style="fill:#000000;stroke-width:0.0846667"
       d="m 97.248729,161.74591 c -0.1074,-0.081 -0.14817,-0.23146 -0.14817,-0.54689 0,-0.33037 -0.0306,-0.43517 -0.127,-0.43517 -0.0847,0 -0.127,-0.0847 -0.127,-0.254 0,-0.16933 -0.0423,-0.254 -0.127,-0.254 -0.0959,0 -0.127,-0.10348 -0.127,-0.42333 0,-0.31986 -0.031,-0.42334 -0.127,-0.42334 -0.1023,0 -0.127,-0.1317 -0.127,-0.67733 0,-0.54563 -0.0247,-0.67733 -0.127,-0.67733 -0.0999,0 -0.127,-0.1176 -0.127,-0.55034 0,-0.49389 -0.0174,-0.55033 -0.16933,-0.55033 -0.15522,0 -0.16933,-0.0564 -0.16933,-0.67733 0,-0.54563 -0.0247,-0.67734 -0.127,-0.67734 -0.14453,0 -0.16097,-0.17901 -0.0515,-0.56072 0.0415,-0.1448 0.0446,-0.31336 0.007,-0.37458 -0.0455,-0.0736 -0.087,0.002 -0.1223,0.22149 -0.12531,0.77956 -0.24568,1.1303 -0.59362,1.72981 -0.2027,0.34925 -0.45543,0.81598 -0.56163,1.03717 -0.16231,0.33809 -0.23086,0.40217 -0.4302,0.40217 -0.23541,0 -0.23713,-0.004 -0.23713,-0.55034 0,-0.4724 -0.0215,-0.55033 -0.15158,-0.55033 -0.12543,0 -0.1786,-0.14842 -0.3083,-0.86066 -0.25806,-1.41717 -0.071,-2.99741 0.53734,-4.53998 0.0971,-0.24619 0.17654,-0.52361 0.17654,-0.61649 0,-0.0929 0.0586,-0.19132 0.13013,-0.21879 0.18987,-0.0729 0.37787,-0.48415 0.37787,-0.82668 v -0.29767 l -0.381,0.25713 c -0.23103,0.15592 -0.381,0.32143 -0.381,0.42047 0,0.11778 -0.059,0.16334 -0.21167,0.16334 -0.1317,0 -0.21166,0.048 -0.21166,0.127 0,0.0917 -0.0941,0.127 -0.33867,0.127 -0.18627,0 -0.33867,0.0381 -0.33867,0.0847 0,0.0466 -0.13454,0.0847 -0.29899,0.0847 -0.18766,0 -0.31713,0.0473 -0.34772,0.127 -0.0268,0.0699 -0.0811,0.127 -0.12058,0.127 -0.0395,0 -0.21221,0.0952 -0.38376,0.21167 -0.17964,0.1219 -0.43256,0.21166 -0.59643,0.21166 -0.19646,0 -0.28452,0.0393 -0.28452,0.127 0,0.0911 -0.0931,0.127 -0.3296,0.127 -0.21488,0 -0.34657,0.0442 -0.37835,0.127 -0.0359,0.0935 -0.18357,0.127 -0.55939,0.127 h -0.51066 v -0.56549 c 0,-0.31101 0.0357,-0.68249 0.0793,-0.8255 0.0436,-0.143 0.11698,-0.43146 0.16306,-0.64101 0.19158,-0.87132 0.51978,-1.81889 0.76864,-2.21923 0.3002,-0.48292 0.28048,-0.59932 -0.0595,-0.35137 -0.12748,0.093 -0.29846,0.19384 -0.37996,0.22416 -0.0815,0.0303 -0.14816,0.11194 -0.14816,0.18138 0,0.16653 -0.89314,0.44104 -1.84841,0.56812 -0.6344,0.0844 -0.82578,0.0773 -1.41126,-0.0523 -0.37253,-0.0824 -0.86783,-0.17374 -1.10067,-0.20285 -0.38722,-0.0484 -0.97366,-0.28901 -0.97366,-0.39945 0,-0.11884 0.95004,-1.11104 1.4605,-1.52531 0.31432,-0.25509 0.5715,-0.51484 0.5715,-0.5772 0,-0.0624 0.1524,-0.26579 0.33866,-0.45206 0.18627,-0.18626 0.33867,-0.41291 0.33867,-0.50365 0,-0.0907 0.0952,-0.21596 0.21167,-0.27827 0.12062,-0.0646 0.21222,-0.18906 0.21296,-0.28947 0.002,-0.23922 0.0803,-0.341 0.38277,-0.49586 0.30132,-0.15429 1.46319,-1.34746 1.69617,-1.74187 0.0885,-0.14977 0.47286,-0.51673 0.85418,-0.81546 0.44914,-0.35187 0.70305,-0.6118 0.72095,-0.73808 0.0173,-0.1222 0.12961,-0.24231 0.30097,-0.32192 0.18971,-0.0882 0.27389,-0.1861 0.27517,-0.32016 0.001,-0.10624 0.059,-0.21509 0.12883,-0.24189 0.0698,-0.0268 0.127,-0.0977 0.127,-0.15762 0,-0.0599 0.0571,-0.13081 0.127,-0.15762 0.0742,-0.0285 0.127,-0.15535 0.127,-0.30539 0,-0.1717 0.042,-0.25666 0.127,-0.25666 0.0699,0 0.127,-0.0571 0.127,-0.127 0,-0.0699 0.0381,-0.127 0.0847,-0.127 0.0466,0 0.0847,-0.0421 0.0847,-0.0936 0,-0.0515 0.0953,-0.16857 0.21167,-0.26014 0.11641,-0.0916 0.21166,-0.22208 0.21166,-0.29001 0,-0.0679 0.0571,-0.14544 0.127,-0.17225 0.0724,-0.0278 0.127,-0.15405 0.127,-0.29367 0,-0.16128 0.0434,-0.24494 0.127,-0.24494 0.0847,0 0.127,-0.0847 0.127,-0.254 0,-0.16934 0.0423,-0.254 0.127,-0.254 0.0706,0 0.127,-0.0753 0.127,-0.16934 0,-0.11289 0.0564,-0.16933 0.16934,-0.16933 0.14424,0 0.16933,-0.0564 0.16933,-0.381 0,-0.28222 0.0329,-0.381 0.127,-0.381 0.0699,0 0.127,-0.0571 0.127,-0.127 0,-0.0699 0.0571,-0.127 0.127,-0.127 0.096,0 0.127,-0.10348 0.127,-0.42333 0,-0.31986 0.0311,-0.42334 0.127,-0.42334 0.0879,0 0.127,-0.0884 0.127,-0.28727 0,-0.17725 0.0486,-0.30594 0.127,-0.33601 0.0838,-0.0322 0.127,-0.16477 0.127,-0.39006 0,-0.28488 0.028,-0.34132 0.16933,-0.34132 0.15197,0 0.16934,-0.0565 0.16934,-0.55034 0,-0.43274 0.0271,-0.55033 0.127,-0.55033 0.0999,0 0.127,-0.11759 0.127,-0.55033 0,-0.43275 0.0271,-0.55034 0.127,-0.55034 0.10637,0 0.127,-0.17874 0.127,-1.10066 0,-0.92193 -0.0206,-1.10067 -0.127,-1.10067 -0.0847,0 -0.127,-0.0847 -0.127,-0.254 0,-0.16933 -0.0423,-0.254 -0.127,-0.254 -0.0698,0 -0.127,-0.048 -0.127,-0.10663 0,-0.0587 -0.0762,-0.15423 -0.16934,-0.21239 -0.0957,-0.0598 -0.16933,-0.19744 -0.16933,-0.3167 0,-0.12665 -0.0485,-0.21095 -0.12129,-0.21095 -0.0667,0 -0.14425,-0.0857 -0.1723,-0.1905 -0.028,-0.10477 -0.0869,-0.32385 -0.13077,-0.48683 -0.0439,-0.16298 -0.17869,-0.62018 -0.29961,-1.016 -0.36381,-1.19096 -0.54678,-2.18709 -0.60321,-3.28388 -0.0294,-0.57212 -0.087,-1.0609 -0.12791,-1.08619 -0.0409,-0.0253 -0.31129,0.20526 -0.60082,0.51234 -0.90615,0.96107 -2.6828,1.77831 -4.10359,1.88761 l -0.61383,0.0472 v -0.22389 c 0,-0.14257 -0.0461,-0.22389 -0.127,-0.22389 -0.15391,0 -0.17929,-0.67543 -0.0355,-0.94415 0.17195,-0.32128 -0.004,-0.26712 -0.43159,0.13293 -0.7388,0.69107 -1.98032,1.11785 -3.51227,1.20739 l -0.84666,0.0495 -0.13836,-0.37663 c -0.11719,-0.31902 -0.12196,-0.42433 -0.0311,-0.68849 0.1347,-0.39181 0.0384,-0.39585 -0.31001,-0.013 -0.57879,0.63604 -1.98662,1.05465 -3.54973,1.05548 -0.71219,3.3e-4 -0.75903,-0.0371 -0.88488,-0.70794 l -0.0563,-0.30004 -0.21362,0.25387 c -0.28523,0.33897 -0.740037,0.56018 -1.465565,0.7128 -0.77187,0.16236 -2.133019,0.2413 -2.621417,0.15202 -0.332217,-0.0607 -0.401964,-0.11251 -0.544731,-0.40433 -0.172602,-0.35281 -0.202872,-0.71268 -0.08874,-1.05506 l 0.06867,-0.20602 -0.298992,0.18479 c -0.164444,0.10163 -0.580289,0.28844 -0.924098,0.41512 -0.582068,0.21448 -0.715464,0.23016 -1.937441,0.22778 -1.203649,-0.002 -1.354405,-0.02 -1.820333,-0.21378 -0.464916,-0.19331 -0.510348,-0.23548 -0.535685,-0.49719 -0.05041,-0.5207 0.0705,-0.83127 0.623375,-1.60123 0.30102,-0.41922 0.54731,-0.82122 0.54731,-0.89334 0,-0.0721 0.04762,-0.13141 0.105833,-0.13177 0.05821,-3.4e-4 0.148795,-0.0933 0.201303,-0.20659 0.121289,-0.26162 0.03229,-0.30075 -0.683971,-0.30075 -0.764049,0 -1.741515,-0.18939 -3.433165,-0.66517 -1.77007,-0.49785 -2.054559,-0.60164 -2.311969,-0.84346 -0.108136,-0.10159 -0.269331,-0.18471 -0.35821,-0.18471 -0.08888,0 -0.395811,-0.23213 -0.682071,-0.51584 l -0.520471,-0.51585 0.163034,-0.18265 c 0.08967,-0.10046 0.344545,-0.43031 0.566391,-0.73299 0.272661,-0.37201 0.552343,-0.63754 0.86316,-0.81948 0.824704,-0.48275 1.152357,-0.73668 0.993407,-0.76987 -0.07905,-0.0165 -0.222153,0.0119 -0.318003,0.0632 -0.127506,0.0682 -0.260806,0.0674 -0.496722,-0.003 -0.268096,-0.0803 -0.392886,-0.0709 -0.74033,0.0559 -0.900521,0.32864 -5.210076,0.22888 -5.567852,-0.12889 -0.11393,-0.11393 0.175496,-0.72358 0.98774,-2.08057 0.538346,-0.89939 0.655743,-1.04173 1.022916,-1.24019 0.228127,-0.12331 0.456297,-0.29636 0.507044,-0.38456 0.280403,-0.48733 0.528215,-0.71498 0.872727,-0.80173 0.241465,-0.0608 0.362546,-0.13741 0.362555,-0.2294 1.1e-5,-0.12205 -0.160087,-0.13812 -1.375833,-0.13812 -1.222834,0 -1.430014,-0.0211 -1.862913,-0.1894 -0.720772,-0.28027 -1.41756,-0.64824 -1.789408,-0.94496 -0.181029,-0.14445 -0.366046,-0.26264 -0.41115,-0.26264 -0.04511,0 -0.226323,-0.1143 -0.402709,-0.254 -0.176385,-0.1397 -0.362843,-0.254 -0.41435,-0.254 -0.05151,0 -0.09365,-0.0571 -0.09365,-0.127 0,-0.0699 -0.04763,-0.12776 -0.105833,-0.12868 -0.05821,-9.3e-4 -0.50864,-0.39145 -1.00096,-0.86784 -0.852801,-0.82519 -1.346083,-1.4994 -1.474475,-2.01527 -0.05104,-0.20507 -0.02543,-0.22607 0.438032,-0.35935 0.27073,-0.0778 0.728528,-0.19949 1.017328,-0.2703 0.2888,-0.0708 0.694321,-0.20129 0.901156,-0.28995 0.224547,-0.0963 0.56337,-0.15952 0.84095,-0.15702 0.255687,0.002 0.507392,-0.0221 0.559344,-0.0542 0.115252,-0.0712 0.124775,-0.21771 0.01415,-0.21771 -0.04417,0 -0.183081,-0.0952 -0.308697,-0.21167 -0.125615,-0.11642 -0.275314,-0.21167 -0.332662,-0.21167 -0.05735,0 -0.1517,-0.0571 -0.20967,-0.127 -0.05797,-0.0699 -0.195985,-0.127 -0.3067,-0.127 -0.122489,0 -0.2013,-0.0497 -0.2013,-0.127 0,-0.079 -0.07996,-0.12699 -0.211667,-0.12699 -0.13323,0 -0.211666,-0.0478 -0.211666,-0.1291 0,-0.071 -0.101862,-0.16782 -0.22636,-0.21516 -0.124498,-0.0473 -0.306311,-0.17233 -0.404031,-0.27777 -0.09772,-0.10544 -0.243507,-0.21697 -0.323973,-0.24785 -0.08047,-0.0309 -0.146303,-0.0954 -0.146303,-0.14347 0,-0.048 -0.05277,-0.0873 -0.117262,-0.0873 -0.06449,0 -0.177856,-0.0925 -0.251915,-0.2055 -0.07406,-0.11303 -0.219692,-0.217799 -0.323631,-0.232839 -0.103938,-0.015 -0.285852,-0.16854 -0.404252,-0.34113 -0.1184,-0.17259 -0.393383,-0.45168 -0.611073,-0.6202 -0.500386,-0.38735 -1.0012,-1.02529 -1.0012,-1.27533 0,-0.13426 -0.05697,-0.20001 -0.189707,-0.21894 -0.107039,-0.0153 -0.238184,-0.12852 -0.300953,-0.25989 -0.06119,-0.12806 -0.166318,-0.23283 -0.233627,-0.23283 -0.06731,0 -0.12238,-0.0381 -0.12238,-0.0847 0,-0.0466 -0.05715,-0.0847 -0.127,-0.0847 -0.06985,0 -0.127,-0.0531 -0.127,-0.11794 0,-0.0649 -0.05715,-0.13988 -0.127,-0.16668 -0.07971,-0.0306 -0.127,-0.16006 -0.127,-0.34773 0,-0.23145 -0.03442,-0.29899 -0.152371,-0.29899 -0.192544,0 -0.918323,-1.0862 -1.368174,-2.04761 -0.324907,-0.69439 -0.69018,-1.92415 -1.013874,-3.41341 l -0.165618,-0.76198 0.228185,0.26736 c 0.125502,0.14705 0.310391,0.29137 0.410864,0.32072 0.100473,0.0293 0.204052,0.10907 0.230176,0.17715 0.02693,0.0702 0.156477,0.12377 0.299158,0.12377 0.138414,0 0.275208,0.0381 0.303988,0.0847 0.02878,0.0466 0.145328,0.0847 0.258996,0.0847 0.127263,0 0.20667,0.0488 0.20667,0.127 0,0.0941 0.09878,0.127 0.381,0.127 0.282222,0 0.381,0.0329 0.381,0.127 0,0.096 0.103482,0.127 0.423334,0.127 0.395111,0 0.423333,0.0141 0.423333,0.21167 0,0.17874 0.03951,0.21167 0.254,0.21167 0.169333,0 0.254,0.0423 0.254,0.127 0,0.0956 0.102406,0.127 0.413655,0.127 0.227511,0 0.522786,0.0569 0.656167,0.12648 0.133381,0.0696 0.385386,0.12671 0.560011,0.127 0.174625,2.5e-4 0.3175,0.0386 0.3175,0.0852 0,0.0466 0.17145,0.0847 0.381,0.0847 0.349956,0 0.381,0.0173 0.381,0.21166 0,0.1989 0.02681,0.21167 0.444532,0.21167 0.244492,0 0.711217,0.0565 1.037166,0.12553 0.32595,0.069 0.750485,0.12619 0.94341,0.127 0.232665,9.7e-4 0.367185,0.0442 0.39951,0.12847 0.03901,0.10165 0.224905,0.127 0.931333,0.127 0.706429,0 0.892327,0.0254 0.931334,0.127 0.03884,0.10121 0.221207,0.127 0.898058,0.127 0.509771,0 0.849324,0.0338 0.849324,0.0847 0,0.051 0.350814,0.0847 0.883111,0.0847 0.851358,0 0.884084,0.007 0.910167,0.1905 l 0.02706,0.1905 2.709333,0.0465 c 2.061302,0.0354 2.877925,0.0807 3.414194,0.18972 0.636907,0.12943 1.049111,0.13529 4.275667,0.0608 1.963943,-0.0453 3.761305,-0.11892 3.994139,-0.16351 0.232833,-0.0446 0.766233,-0.0845 1.185333,-0.0887 0.777795,-0.008 1.45382,-0.0825 2.58233,-0.28537 l 0.635,-0.11414 0.93133,0.3191 c 1.12194,0.38442 1.84212,0.69394 3.6907,1.58618 2.37667,1.14713 3.62897,1.63885 5.53797,2.1745 1.52956,0.42919 3.54694,0.75949 4.99533,0.81788 l 0.508,0.0205 0.0204,-0.33436 c 0.0618,-1.01266 0.21015,-2.18354 0.3276,-2.58561 0.0736,-0.25195 0.16302,-0.87719 0.19873,-1.38942 0.0357,-0.51224 0.11671,-1.26471 0.18001,-1.67217 0.0949,-0.61047 0.1416,-0.74083 0.26568,-0.74083 0.12998,0 0.15057,-0.0811 0.15057,-0.59267 0,-0.47037 0.0262,-0.59267 0.127,-0.59267 0.0999,0 0.127,-0.11759 0.127,-0.55033 0,-0.43274 0.0271,-0.55033 0.127,-0.55033 0.0745,0 0.12812,-0.0788 0.1297,-0.1905 0.001,-0.10478 0.0586,-0.26446 0.127,-0.35485 0.0684,-0.0904 0.1243,-0.25232 0.1243,-0.35984 0,-0.11732 0.0508,-0.19548 0.127,-0.19548 0.0759,0 0.127,-0.078 0.127,-0.19377 0,-0.10657 0.0762,-0.34322 0.16934,-0.5259 0.0931,-0.18267 0.16933,-0.40028 0.16933,-0.48357 0,-0.0833 0.0571,-0.15143 0.127,-0.15143 0.10231,0 0.127,-0.1317 0.127,-0.67733 0,-0.54563 0.0247,-0.67733 0.127,-0.67733 0.0999,0 0.127,-0.1176 0.127,-0.55034 0,-0.43274 0.0271,-0.55033 0.127,-0.55033 0.0941,0 0.127,-0.0988 0.127,-0.381 0,-0.32456 0.0251,-0.381 0.16933,-0.381 0.15606,0 0.16934,-0.0564 0.16934,-0.71967 0,-0.58326 0.0241,-0.71966 0.127,-0.71966 0.0941,0 0.127,-0.0988 0.127,-0.381 0,-0.28223 0.0329,-0.381 0.127,-0.381 0.0999,0 0.127,-0.1176 0.127,-0.55034 0,-0.43274 0.0271,-0.55033 0.127,-0.55033 0.0956,0 0.127,-0.10248 0.127,-0.41428 0,-0.29014 0.038,-0.42887 0.127,-0.46301 0.0698,-0.0268 0.127,-0.14518 0.127,-0.26305 0,-0.15788 0.0446,-0.21433 0.16933,-0.21433 0.14626,0 0.16933,-0.0564 0.16933,-0.41427 0,-0.29014 0.0381,-0.42888 0.127001,-0.46301 0.087,-0.0334 0.127,-0.16947 0.127,-0.43239 0,-0.24932 0.0371,-0.38443 0.10584,-0.38585 0.12683,-0.003 0.40216,-0.57079 0.40216,-0.82988 0,-0.12749 0.052,-0.18393 0.16934,-0.18393 0.12026,0 0.16933,-0.0564 0.16933,-0.19478 0,-0.13871 0.10959,-0.26406 0.38063,-0.43538 0.20933,-0.13232 0.42355,-0.29232 0.47602,-0.35555 0.0525,-0.0632 0.20249,-0.11496 0.33337,-0.11496 0.49038,0 1.11688,1.03641 2.02162,3.34434 0.32858,0.8382 0.65478,1.62512 0.72489,1.74873 0.0701,0.1236 0.12746,0.38077 0.12746,0.5715 0,0.25179 0.0348,0.34677 0.127,0.34677 0.0935,0 0.127,0.0975 0.127,0.36962 0,0.46502 0.4062,2.0262 0.76739,2.94936 0.1706,0.43603 0.29769,0.94365 0.33489,1.33768 0.033,0.34925 0.14608,0.84455 0.25133,1.10067 0.10525,0.25612 0.20986,0.58949 0.23247,0.74083 0.0297,0.19892 0.0855,0.27517 0.20118,0.27517 0.11904,0 0.16007,0.061 0.16007,0.23812 0,0.13096 0.11516,0.57864 0.2559,0.99483 0.83026,2.45515 1.60677,6.48859 1.60677,8.34611 0,0.67747 0.0678,0.74177 0.85803,0.81342 0.40495,0.0367 0.49664,0.0216 0.49664,-0.0819 0,-0.10263 0.18241,-0.13555 0.9525,-0.17185 0.52387,-0.0247 1.06543,-0.0893 1.20346,-0.14361 0.13803,-0.0543 0.76668,-0.21375 1.397,-0.35435 1.66996,-0.37253 3.24866,-0.82761 3.3567,-0.96761 0.0517,-0.067 0.23268,-0.12181 0.40217,-0.12181 0.21748,0 0.30817,-0.0374 0.30817,-0.127 0,-0.0917 0.0941,-0.127 0.33866,-0.127 0.28223,0 0.33867,-0.0282 0.33867,-0.16934 0,-0.14111 0.0564,-0.16933 0.33867,-0.16933 0.24459,0 0.33866,-0.0353 0.33866,-0.127 0,-0.0872 0.0875,-0.127 0.27914,-0.127 0.20601,0 0.33356,-0.0656 0.48684,-0.25041 0.17561,-0.21174 0.2698,-0.25097 0.60986,-0.254 0.37157,-0.003 0.40216,-0.0197 0.40216,-0.21526 0,-0.17874 0.0395,-0.21166 0.254,-0.21166 0.16934,0 0.254,-0.0423 0.254,-0.127 0,-0.082 0.0826,-0.12719 0.23284,-0.12752 0.12806,-2.6e-4 0.34245,-0.0577 0.47642,-0.12756 0.13397,-0.0699 0.5703,-0.22669 0.9696,-0.34849 0.39931,-0.1218 0.8993,-0.29739 1.11108,-0.39022 0.45664,-0.20014 0.73081,-0.20326 1.40583,-0.016 0.37504,0.10405 1.01549,0.15068 2.51407,0.18306 1.64262,0.0355 2.01083,0.0651 2.01083,0.16152 0,0.0999 0.62717,0.1115 4.08517,0.0753 2.24684,-0.0236 4.46616,-0.0619 4.93183,-0.0852 0.46567,-0.0233 1.58962,-0.0714 2.49767,-0.10696 1.62535,-0.0636 1.65142,-0.0675 1.67806,-0.25507 0.0263,-0.18529 0.0544,-0.1905 1.0281,-0.1905 0.81172,0 1.01027,-0.024 1.04978,-0.127 0.038,-0.0992 0.20711,-0.127 0.77106,-0.127 0.42511,0 0.72233,-0.0348 0.72233,-0.0847 0,-0.0482 0.24603,-0.0841 0.5715,-0.0833 0.31432,7.6e-4 0.93345,-0.0799 1.37583,-0.17933 1.4185,-0.31867 2.48014,-0.58278 3.175,-0.78984 0.93654,-0.27909 1.43293,-0.38686 1.78187,-0.38686 0.18659,0 0.31598,-0.0474 0.34652,-0.127 0.0268,-0.0699 0.13038,-0.12759 0.23017,-0.1283 0.22472,-0.002 0.34689,-0.0817 0.4178,-0.27387 0.041,-0.11127 0.1502,-0.14817 0.43832,-0.14817 0.28458,0 0.38366,-0.0328 0.38366,-0.127 0,-0.0851 0.0851,-0.127 0.25798,-0.127 0.26081,0 1.20594,-0.47166 1.98568,-0.99093 l 0.42334,-0.28192 0.0265,0.34978 c 0.0146,0.19238 -0.002,0.41209 -0.0378,0.48826 -0.0354,0.0762 -0.0746,0.23373 -0.0871,0.35015 -0.0729,0.6791 -0.20539,1.11288 -0.47235,1.54665 -0.16735,0.27192 -0.35782,0.74093 -0.42982,1.05833 -0.18863,0.83164 -0.28214,1.03568 -0.47466,1.03568 -0.122,0 -0.23683,0.14611 -0.42543,0.54127 -0.14208,0.2977 -0.25832,0.60042 -0.25832,0.67272 0,0.0723 -0.10478,0.1815 -0.23284,0.24269 -0.13137,0.0628 -0.24462,0.19391 -0.25989,0.30095 -0.0149,0.10434 -0.0569,0.18971 -0.0935,0.18971 -0.11565,0 -0.51448,0.41036 -0.51448,0.52935 0,0.0628 -0.0396,0.15373 -0.088,0.20215 -0.0484,0.0484 -0.15668,0.21604 -0.24059,0.37249 -0.0839,0.15645 -0.29194,0.35679 -0.46229,0.4452 -0.17036,0.0884 -0.30975,0.20052 -0.30975,0.24914 0,0.0486 -0.17145,0.28909 -0.381,0.53438 -0.20955,0.24528 -0.381,0.48343 -0.381,0.52923 0,0.10131 -0.20326,0.18563 -0.45142,0.18728 -0.13207,8.8e-4 -0.2489,0.11965 -0.41639,0.42333 -0.12804,0.232159 -0.28996,0.422109 -0.35983,0.422109 -0.0699,0 -0.12702,0.0572 -0.12702,0.127 0,0.0782 -0.0794,0.127 -0.20668,0.127 -0.11366,0 -0.22777,0.0341 -0.25357,0.0759 -0.0765,0.12373 -0.71664,0.4321 -0.89703,0.4321 -0.11028,0 -0.16672,0.0573 -0.16672,0.16934 0,0.0941 -0.0564,0.16933 -0.127,0.16933 -0.0699,0 -0.127,0.073 -0.127,0.16233 0,0.11663 -0.11322,0.20362 -0.40217,0.30898 -0.22119,0.0807 -0.57362,0.22363 -0.78317,0.31771 l -0.381,0.17106 0.66607,0.0672 c 0.36634,0.0369 0.87821,0.12883 1.1375,0.20421 0.41231,0.11986 2.13656,0.77708 2.19876,0.83809 0.0127,0.0124 -0.11098,0.24716 -0.27473,0.52167 -0.16376,0.27451 -0.32153,0.56621 -0.35062,0.64821 -0.0291,0.082 -0.14357,0.17185 -0.25443,0.19968 -0.14263,0.0358 -0.20155,0.11031 -0.20155,0.25489 0,0.13461 -0.0707,0.23652 -0.2073,0.29875 -0.11401,0.0519 -0.21878,0.17496 -0.23283,0.27335 -0.0183,0.1279 -0.11604,0.20126 -0.34303,0.25733 -0.17463,0.0431 -0.3175,0.12887 -0.3175,0.1905 0,0.0616 -0.05,0.11207 -0.11121,0.11207 -0.0611,0 -0.16351,0.13335 -0.22746,0.29634 -0.064,0.16298 -0.16224,0.29633 -0.21842,0.29633 -0.0562,0 -0.12406,0.0572 -0.15086,0.127 -0.0306,0.0797 -0.16007,0.127 -0.34773,0.127 -0.20933,0 -0.29899,0.0381 -0.29899,0.127 0,0.079 -0.08,0.127 -0.21167,0.127 -0.15118,0 -0.21166,0.0458 -0.21166,0.16015 0,0.10022 -0.0792,0.18004 -0.21167,0.21328 -0.11642,0.0292 -0.21167,0.0905 -0.21167,0.13618 0,0.0457 -0.0964,0.0831 -0.21432,0.0831 -0.11788,0 -0.23626,0.0571 -0.26306,0.127 -0.0318,0.0828 -0.16346,0.127 -0.37834,0.127 -0.23655,0 -0.32961,0.0359 -0.32961,0.127 0,0.0917 -0.0941,0.127 -0.33867,0.127 -0.24459,0 -0.33866,0.0353 -0.33866,0.127 0,0.10141 -0.12585,0.127 -0.62467,0.127 -0.37476,0 -0.75129,0.0529 -0.94121,0.13226 -0.17411,0.0727 -0.36926,0.11204 -0.43367,0.0873 -0.0644,-0.0247 -0.17137,-0.0241 -0.23766,10e-4 -0.10124,0.0388 -0.0982,0.0723 0.0188,0.20901 0.0766,0.0895 0.18399,0.16275 0.23856,0.16275 0.17389,0 1.97983,1.8484 1.97983,2.0264 0,0.0916 0.0529,0.19699 0.11756,0.23423 0.0647,0.0372 0.13172,0.1439 0.14903,0.23704 0.0173,0.0931 0.10728,0.18096 0.19994,0.19518 0.16645,0.0255 0.4648,0.50029 0.4648,0.73963 0,0.0679 0.0336,0.12352 0.0748,0.12352 0.0734,0 0.10398,0.0628 0.25734,0.52917 l 0.0766,0.23283 h -0.67001 c -0.61357,0 -0.67001,0.0143 -0.67001,0.16933 0,0.16519 -0.0555,0.16927 -2.26484,0.16638 -1.57028,-0.002 -2.47159,-0.0398 -2.93903,-0.12307 -0.37082,-0.0661 -0.69125,-0.10307 -0.7121,-0.0822 -0.0794,0.0794 0.30058,0.40599 0.64547,0.55489 0.1979,0.0854 0.35983,0.19851 0.35983,0.25126 0,0.0528 0.19208,0.26861 0.42685,0.47968 0.51384,0.46199 0.67382,0.7484 0.67382,1.20634 0,0.31636 -0.0213,0.34925 -0.25659,0.39631 -0.14113,0.0282 -0.3343,0.15011 -0.42928,0.27086 -0.095,0.12075 -0.33195,0.2968 -0.52658,0.39123 -0.19464,0.0944 -0.44809,0.23829 -0.56323,0.31969 -0.11513,0.0814 -0.2973,0.148 -0.40482,0.148 -0.10752,0 -0.21742,0.0571 -0.24422,0.127 -0.0341,0.0889 -0.17287,0.127 -0.46301,0.127 -0.3118,0 -0.41427,0.0314 -0.41427,0.127 0,0.0976 -0.10849,0.127 -0.46833,0.127 -0.33818,0 -0.48186,0.0353 -0.51706,0.127 -0.0394,0.1026 -0.23402,0.127 -1.01334,0.127 h -0.96461 v 0.21005 c 0,0.25548 -0.32701,0.36902 -0.64522,0.22403 -0.30643,-0.13962 -0.52264,-0.11694 -0.62002,0.065 -0.0637,0.11912 -0.0536,0.1872 0.0393,0.26436 0.0689,0.0572 0.12523,0.15641 0.12523,0.22056 0,0.0641 0.0571,0.11663 0.127,0.11663 0.0699,0 0.127,0.0546 0.127,0.1213 0,0.0667 0.0762,0.14548 0.16933,0.17504 0.11931,0.0379 0.16933,0.1281 0.16933,0.30547 0,0.13844 0.0749,0.35495 0.16636,0.48112 0.18599,0.25648 0.33644,0.83272 0.33958,1.30059 l 0.002,0.30919 -0.52917,0.0576 c -0.29104,0.0317 -0.76965,0.11164 -1.06359,0.17764 -0.72489,0.16279 -1.11787,0.15101 -1.64483,-0.0493 -0.24498,-0.0931 -0.53796,-0.16931 -0.65107,-0.16933 -0.11311,-2e-5 -0.32266,-0.0364 -0.46566,-0.0807 -0.9348,-0.29017 -1.06435,-0.31707 -1.06435,-0.22095 0,0.0542 0.0425,0.14091 0.0944,0.19281 0.12162,0.12162 -0.0684,0.95119 -0.25275,1.10368 -0.22359,0.18491 -2.60548,0.0984 -3.64529,-0.13237 -0.28167,-0.0625 -0.44631,-0.16938 -0.66319,-0.43048 -0.15864,-0.19102 -0.32341,-0.34731 -0.36612,-0.34731 -0.0427,0 -0.0776,0.23456 -0.0776,0.52125 v 0.52126 l -1.30448,-0.0538 c -1.20893,-0.0499 -1.74352,-0.14952 -1.74352,-0.32494 0,-0.0391 -0.17145,-0.0711 -0.381,-0.0711 -0.28222,0 -0.381,-0.0329 -0.381,-0.127 0,-0.0705 -0.0753,-0.127 -0.16933,-0.127 -0.11251,0 -0.16934,-0.0564 -0.16934,-0.16819 0,-0.11328 -0.10013,-0.21004 -0.30667,-0.29634 -0.16867,-0.0705 -0.33453,-0.12813 -0.36857,-0.12813 -0.0341,0 -0.0438,0.18843 -0.0217,0.41874 0.0221,0.23031 0.0145,0.52135 -0.017,0.64677 l -0.0572,0.22803 -0.9056,-0.048 c -0.49808,-0.0264 -1.11515,-0.10973 -1.37127,-0.18518 -0.25611,-0.0754 -0.64664,-0.15924 -0.86783,-0.18621 -0.26066,-0.0318 -0.40217,-0.0899 -0.40217,-0.16526 0,-0.0639 -0.0545,-0.11623 -0.12111,-0.11623 -0.0666,0 -0.13328,-0.0857 -0.14816,-0.1905 -0.0182,-0.1284 -0.0953,-0.20012 -0.23633,-0.22001 -0.1151,-0.0162 -0.28551,-0.0829 -0.37868,-0.14817 -0.2698,-0.18898 -0.30105,-0.14855 -0.30105,0.38935 0,0.64262 -0.1692,0.84736 -0.6985,0.8452 -0.48472,-0.002 -1.40338,-0.2014 -2.20133,-0.47785 -0.53389,-0.18496 -0.65635,-0.2601 -0.65714,-0.40317 -6.8e-4,-0.12338 -0.10804,-0.22619 -0.35983,-0.34457 -0.19738,-0.0928 -0.40517,-0.2071 -0.46176,-0.254 -0.0566,-0.0469 -0.15976,-0.1329 -0.22926,-0.19111 -0.0695,-0.0582 -0.14957,-0.10583 -0.17792,-0.10583 -0.0284,0 -0.17682,-0.0955 -0.32991,-0.21231 l -0.27835,-0.21231 -0.0485,0.57843 c -0.08,0.95381 -0.29135,1.59644 -1.00164,3.04507 -0.67786,1.38249 -1.22114,2.13512 -1.54122,2.13512 -0.0782,0 -0.19153,0.12182 -0.25592,0.27516 -0.0636,0.15134 -0.38791,0.53167 -0.7208,0.84517 -0.59442,0.5598 -0.60526,0.57761 -0.60526,0.99484 0,0.35708 0.025,0.42483 0.15681,0.42483 0.12652,0 0.17765,0.11044 0.2646,0.5715 0.0593,0.31432 0.12574,0.75247 0.14769,0.97366 0.0268,0.26979 0.079,0.40217 0.15874,0.40217 0.0844,0 0.11882,0.11042 0.11882,0.381 0,0.28222 0.0329,0.381 0.127,0.381 0.0699,0 0.12822,0.0667 0.1297,0.14817 10e-4,0.0815 0.0586,0.22212 0.127,0.31251 0.0684,0.0904 0.1243,0.27137 0.1243,0.40217 0,0.18084 0.0403,0.23782 0.1682,0.23782 0.10972,0 0.20819,0.0957 0.28322,0.27516 0.0633,0.15134 0.17807,0.32746 0.25514,0.39137 0.0771,0.0639 0.14011,0.22703 0.14011,0.36249 0,0.14082 0.0544,0.26716 0.127,0.29502 0.0699,0.0268 0.127,0.12086 0.127,0.20901 0,0.10383 0.0596,0.16028 0.16933,0.16028 0.13171,0 0.16934,0.0564 0.16934,0.254 0,0.16933 0.0423,0.254 0.127,0.254 0.0699,0 0.127,0.0531 0.127,0.11794 0,0.0649 0.0572,0.13987 0.127,0.16668 0.0742,0.0285 0.127,0.15535 0.127,0.30539 0,0.17169 0.042,0.25666 0.127,0.25666 0.0699,0 0.127,0.0572 0.127,0.127 0,0.0699 0.0571,0.127 0.127,0.127 0.0699,0 0.127,0.0568 0.127,0.12628 0,0.0695 0.0762,0.17387 0.16933,0.23203 0.0931,0.0582 0.16933,0.17279 0.16933,0.25472 0,0.0819 0.0381,0.14897 0.0847,0.14897 0.0466,0 0.0847,0.0497 0.0847,0.11039 0,0.0607 0.13335,0.23964 0.29633,0.39761 0.16298,0.15797 0.29716,0.34641 0.29817,0.41877 0.001,0.0724 0.12483,0.18871 0.27516,0.25856 0.15034,0.0699 0.2854,0.19237 0.30015,0.27226 0.0147,0.0799 0.13857,0.26489 0.27517,0.41112 0.13659,0.14622 0.24835,0.33056 0.24835,0.40963 0,0.16603 0.42783,0.59153 0.81917,0.81471 0.14787,0.0843 0.40823,0.3361 0.5786,0.5595 0.17037,0.2234 0.55229,0.60295 0.84872,0.84346 0.29642,0.2405 0.59981,0.56554 0.6742,0.7223 0.0744,0.15676 0.19062,0.28502 0.25828,0.28502 0.0677,0 0.12303,0.0336 0.12303,0.0747 0,0.0411 0.35994,0.44652 0.79987,0.90098 0.52267,0.53995 0.80875,0.90283 0.8255,1.04715 0.0181,0.15579 0.0826,0.22893 0.21902,0.24828 0.11427,0.0162 0.27668,0.15937 0.39696,0.34989 0.11196,0.17736 0.37509,0.46302 0.58473,0.63481 0.24784,0.20308 0.39034,0.39161 0.40738,0.53894 0.0193,0.16693 0.10982,0.26585 0.34371,0.3756 0.2421,0.11361 0.3175,0.1991 0.3175,0.35999 0,0.11605 0.0381,0.211 0.0847,0.211 0.0466,0 0.0847,0.0329 0.0847,0.0732 0,0.10259 -0.56605,0.29834 -1.63046,0.56383 l -0.91079,0.22717 -0.52854,-0.21015 c -0.62401,-0.24812 -1.29394,-0.40002 -1.76421,-0.40002 -0.33398,0 -0.33779,0.004 -0.29589,0.27517 0.0233,0.15134 0.0658,0.45832 0.0944,0.68217 0.0761,0.59618 0.44577,1.77974 0.58926,1.88676 0.22881,0.17066 0.37965,1.11461 0.38097,2.38407 0.001,0.98651 -0.0207,1.2065 -0.119,1.2065 -0.22544,0 -1.6135,-0.52218 -2.38322,-0.89656 -0.42229,-0.20539 -0.81401,-0.37344 -0.87049,-0.37344 -0.0565,0 -0.12462,-0.0571 -0.15142,-0.127 -0.0268,-0.0699 -0.0952,-0.127 -0.15192,-0.127 -0.1195,0 -0.47137,-0.35311 -0.47137,-0.47304 0,-0.0446 -0.1374,-0.15512 -0.30534,-0.24556 -0.16794,-0.0904 -0.34002,-0.25564 -0.3824,-0.36712 -0.0636,-0.16738 -0.0989,-0.18453 -0.20266,-0.0984 -0.087,0.0722 -0.1256,0.2702 -0.1256,0.6442 0,0.48352 -0.0177,0.53997 -0.16933,0.53997 -0.15197,0 -0.16933,0.0564 -0.16933,0.55033 0,0.43274 -0.0271,0.55034 -0.127,0.55034 -0.0863,0 -0.12789,0.0882 -0.12977,0.27516 -0.002,0.24752 -0.21749,0.99073 -0.34904,1.2065 -0.0284,0.0466 -0.0782,0.20849 -0.11063,0.35984 -0.0329,0.15361 -0.11215,0.27516 -0.17929,0.27516 -0.081,0 -0.12027,0.0967 -0.12027,0.29634 0,0.18808 -0.0406,0.29633 -0.11108,0.29633 -0.13644,0 -0.48159,0.45264 -0.48159,0.63157 0,0.0717 -0.0571,0.13043 -0.127,0.13043 -0.0699,0 -0.12821,0.0667 -0.12969,0.14817 -0.004,0.23487 -0.18623,0.41145 -0.48492,0.4706 -0.15177,0.03 -0.38037,0.12879 -0.508,0.21943 -0.12763,0.0906 -0.39398,0.19011 -0.59189,0.22107 l -0.35983,0.0563 0.002,-0.32494 c 9.1e-4,-0.17872 -0.0631,-0.96312 -0.14234,-1.74311 -0.10609,-1.04477 -0.1734,-1.41817 -0.25566,-1.41817 -0.0662,0 -0.11166,0.0979 -0.11166,0.24055 0,0.1323 -0.0567,0.42757 -0.12609,0.65616 -0.0693,0.2286 -0.12649,0.53945 -0.127,0.69079 -7.6e-4,0.21842 -0.0358,0.27517 -0.17025,0.27517 -0.12473,0 -0.16933,0.0564 -0.16933,0.21432 0,0.11788 -0.0572,0.23626 -0.127,0.26306 -0.0699,0.0268 -0.12721,0.13038 -0.12747,0.23018 -9.8e-4,0.37408 -0.18225,0.83579 -0.34484,0.87831 -0.12003,0.0314 -0.16269,0.11765 -0.16269,0.329 0,0.19819 -0.0391,0.28646 -0.127,0.28646 -0.0699,0 -0.127,0.0568 -0.127,0.12629 0,0.0695 -0.0762,0.17387 -0.16933,0.23203 -0.0931,0.0582 -0.16934,0.17278 -0.16934,0.25472 0,0.0819 -0.0571,0.14896 -0.127,0.14896 -0.0699,0 -0.127,0.0583 -0.127,0.12954 0,0.0712 -0.1905,0.32511 -0.42333,0.56414 -0.23283,0.23904 -0.42333,0.50459 -0.42333,0.59013 0,0.0855 -0.0572,0.15553 -0.127,0.15553 -0.0698,0 -0.127,-0.0703 -0.127,-0.15621 0,-0.0859 -0.0727,-0.22199 -0.16151,-0.30237 -0.0888,-0.0804 -0.2475,-0.34347 -0.35262,-0.58463 -0.17563,-0.40294 -0.19671,-0.62366 -0.26023,-2.72446 -0.0609,-2.01508 -0.13467,-2.84225 -0.26505,-2.97263 -0.021,-0.021 -0.0848,0.19845 -0.14168,0.4877 -0.0569,0.28925 -0.17639,0.71092 -0.26552,0.93705 -0.0891,0.22613 -0.16205,0.50618 -0.16205,0.62234 0,0.11615 -0.0571,0.23312 -0.127,0.25992 -0.0724,0.0278 -0.127,0.15406 -0.127,0.29368 0,0.16128 -0.0434,0.24494 -0.127,0.24494 -0.0887,0 -0.127,0.0894 -0.127,0.29633 0,0.23989 -0.0323,0.29634 -0.16933,0.29634 -0.13171,0 -0.16934,0.0564 -0.16934,0.254 0,0.1397 -0.0415,0.254 -0.0923,0.254 -0.14815,0 -0.40985,0.36388 -0.41292,0.57415 -0.002,0.10624 -0.06,0.21509 -0.12982,0.24189 -0.0724,0.0278 -0.127001,0.15406 -0.127001,0.29368 0,0.17341 -0.0417,0.24494 -0.14292,0.24494 -0.24994,0 -0.70254,0.36646 -0.70316,0.56933 -3.4e-4,0.12329 -0.0883,0.23369 -0.25458,0.31967 -0.1784,0.0923 -0.254,0.1937 -0.254,0.34085 0,0.15925 -0.0446,0.20949 -0.18587,0.20949 -0.10223,0 -0.2832,0.091 -0.40217,0.20215 -0.28125,0.26286 -0.51891,0.32615 -0.70313,0.18724 z"
       id="path1415" />
  </g>
</svg>
